<mxfile host="app.diagrams.net" modified="2024-04-21T19:24:15.372Z" agent="Mozilla/5.0 (Windows NT 10.0; Win64; x64) AppleWebKit/537.36 (KHTML, like Gecko) Chrome/124.0.0.0 Safari/537.36" etag="BQHtabTNCNV-l7u9UgN5" version="24.2.7" type="device">
  <diagram name="Page-1" id="SZFi_UBmzwb3c7TnXBTQ">
    <mxGraphModel dx="1366" dy="855" grid="1" gridSize="10" guides="1" tooltips="1" connect="1" arrows="1" fold="1" page="1" pageScale="1" pageWidth="850" pageHeight="1100" math="0" shadow="0">
      <root>
        <mxCell id="0" />
        <mxCell id="1" parent="0" />
        <mxCell id="S7IZpB0op00duPQ5i5Fw-1" value="" style="shape=image;verticalLabelPosition=bottom;labelBackgroundColor=default;verticalAlign=top;aspect=fixed;imageAspect=0;image=data:image/png,iVBORw0KGgoAAAANSUhEUgAAB4AAAAQzCAIAAAANdqbXAAAACXBIWXMAAA7EAAAOxAGVKw4bAAAAB3RJTUUH6AQVEwomkgZCfAAAACR0RVh0U29mdHdhcmUATUFUTEFCLCBUaGUgTWF0aFdvcmtzLCBJbmMuPFjdGAAAACJ0RVh0Q3JlYXRpb24gVGltZQAyMS1BcHItMjAyNCAxNDoxMDozOCvgxqgAACAASURBVHic7N1rjFx3fT/+M/fZnb15vbtOOOuQpA5OgokCqGsl5aKmgFSqKiKFltJC+6ASBTVK1dKWNmqpKpC4tVClqsqjVkoBBdq0akRvomkIEGSjQI3tBCdxCPFufFlf1utd72Vu/wfff85v2F07jr1nZjP7ej1YzZw58z2fczYPrPd+8vlmms1mRMre//7333333VNTU3v27PnkJz/Z6XIAAAAAANoh2+kCNoWJiYk9e/Z0ugoAAAAAgLYSQLfD7t279+7d2+kqAAAAAADaSgDdDnEcT01NhZ+drgUAAAAAoE0E0O0Qx3Ecx6ZwAAAAAACbigC6TSYmJkzhAAAAAAA2FQF0m+zevXtqasoIDgAAAABg8xBAt4kB0AAAAADAZiOAbpMwBrrTVQAAAAAAtI8Aun00QQMAAAAAm4oAun0mJiY6XQIAAAAAQPsIoNvnrrvu6nQJAAAAAADtI4BunzAD2hQOAAAAAGCTEEC3lX0IAQAAAIDNQwDdVvYhBAAAAAA2DwE0AAAAAACpEEADAAAAAJAKATQAAAAAAKkQQLeVGdAAAAAAwOYhgAYAAAAAIBUC6LaK43hycrLTVQAAAAAAtIMAGgAAAACAVAigAQAAAABIhQC6rcbHx21CCAAAAABsEgJoAAAAAABSIYBuqziOdUADAAAAAJuEABoAAAAAgFQIoAEAAAAASIUAGgAAAACAVAig28oMaAAAAABg8xBAAwAAAACQCgE0AAAAAACpEEC3lREcAAAAAMDmIYAGAAAAACAVAuh20wQNAAAAAGwSAmgAAAAAAFIhgAYAAAAAIBUC6HYzggMAAAAA2CQE0AAAAAAApEIADQAAAABAKgTQ7WYEBwAAAACwSQigAQAAAABIhQAaAAAAAIBUCKDbLY7jycnJTlcBAAAAAJA6ATQAAAAAAKkQQAMAAAAAkAoBdLuNj49PTU11ugoAAAAAgNQJoAEAAAAASIUAut3iONYBDQAAAABsBgJoAAAAAABSIYAGAAAAACAVAuh2M4IDAAAAANgkBNAAAAAAAKRCAA0AAAAAQCoE0AAAAAAApEIA3W5mQAMAAAAAm4QAGgAAAACAVAigO0ATNAAAAACwGQigAQAAAABIhQAaAAAAAIBUCKA7wAgOAAAAAGAzEEADAAAAAJAKATQAAAAAAKkQQHeAERwAAAAAwGYggAYAAAAAIBUC6A6I43hycrLTVQAAAAAApEsADQAAAABAKgTQAAAAAACkQgANAAAAAEAqBNAdMD4+PjU11ekqAAAAAADSJYAGAAAAACAVAugOiONYBzQAAAAA0PUE0AAAAAAApEIADQAAAABAKgTQHWAEBwAAAACwGQigAQAAAABIhQAaAAAAAIBUCKA7wAgOAAAAAGAzEEADAAAAAJAKATQAAAAAAKkQQHeGKRwAAAAAQNcTQAMAAAAAkAoBdGfogAYAAAAAup4AGgAAAACAVAigAQAAAABIhQAaAAAAAIBUCKA7wwxoAAAAAKDrCaABAAAAAEiFALoz4jienJzsdBUAAAAAACkSQAMAAAAAkAoBNAAAAAAAqRBAd8b4+LhNCAEAAACA7iaABgAAAAAgFQJoAAAAAABSIYDujDiOjeAAAAAAALqbAHr9HTly5Otf//qhQ4c6XQgAAAAAQCcJoNfZQw899N73vve//uu/PvShD/31X/91p8sBAAAAAOiYfKcL6Cr1ev1jH/vYV77ylR07dpw+ffqOO+648847r7322tVnGsEBAAAAAHQ9HdDr6dFHHx0aGtqxY0cURcPDw295y1u+9a1vdbooAAAAAIDOEECvp5mZmRtvvDF529fX99RTT3WwHgAAAACADhJAr6d6vZ7N/r9Hms1mG43GmmcawQEAAAAAdD0B9HoqlUr1ej1522g08nlTtgEAAACATUoAvZ7GxsYOHDiQvD1z5swb3/jGDtYDAAAAANBBAuj19NM//dNRFH3jG9+Ioujpp59+7LHHbrvttgudbAoHAAAAANDdDIhYT9ls9rOf/ezv/d7v7dix4+DBg5/61KdGRkbCR//yL//yrne9q7PlAQAAAAC0kwB6ne3evfvb3/72ioNTU1P33XffigA6dEDHcdzG6gAAAAAA2scIjnaI4ziO471793a6EAAAAACA9hFAAwAAAACQCgF0m0xMTNx3332drgIAAAAAoH0E0G1y1113TU1NtR4JM6A7VQ8AAAAAQNoE0G0ibgYAAAAANhsBdPtMTEy07kMYx/Hk5GQH6wEAAAAASJUAun0mJib27NnT6SoAAAAAANpEAN0+u3fvbu2ABgAAAADobgLo9lkxBnp8fNxUaAAAAACgiwmg2yeO4ziONUEDAAAAAJuEALqtWsdAr2iIBgAAAADoMgLotjIGGgAAAADYPATQbaXrGQAAAADYPATQbRXHcRRFmqABAAAAgM1AAN1uIYOOdEMDAAAAAN1OAN1uExMTDz74YKerAAAAAABInQC63exDCAAAAABsEgLodksmbxjBAQAAAAB0NwF0u8VxPDExoQkaAAAAAOh6AugOmJiY2LNnT6QJGgAAAADoagLoDjAGGgAAAADYDATQHaDxGQAAAADYDATQHRDHcRzHe/fulUQDAAAAAF1MAN0ZyRhoAAAAAIBuJYDuDGOgAQAAAICuJ4DujDB8wwgOAAAAAKCLCaA7I47jKIo0QQMAAAAAXUwA3TEhgwYAAAAA6FYC6I6ZmJiYmpqanJzsdCEAAAAAAKkQQHfM7t27O10CAAAAAECKBNAdYwQHAAAAANDdBNAdE8dxmMLR6UIAAAAAAFIhgO6kiYmJTpcAAAAAAJAWAXQn7d69Wwc0AAAAANCtBNAAAAAAAKRCAA0AAAAAQCoE0J0Ux7ERHAAAAABAtxJAAwAAAACQCgE0AAAAAACpEEADAAAAAJAKAXQnmQENAAAAAHQxATQAAAAAAKkQQHeYJmgAAAAAoFsJoAEAAAAASIUAGgAAAACAVAigO8wIDgAAAACgWwmgAQAAAABIhQAaAAAAAIBUXH4Afc899/zxH//xmh+98MILP/uzP3vZK28qRnAAAAAAAN0qf9nfPHjw4JEjR/bt2/fv//7vqz89fvz4FVQFAAAAAMAr3hWN4JiYmDhy5MjOnTufffbZ9Spos4njeHJystNVAAAAAACsvyudAb1///5bb73153/+5//lX/5lXQoCAAAAAKA7rMMmhA888MAHPvCBj370o3/xF39x5asBAAAAANAd1iGAjqLo3nvv/dznPvfFL37xPe95z7osCAAAAADAK936BNBRFL3zne985JFHnnjiide+9rV2ILx04+PjU1NTna4CAAAAAGD9rVsAHUXR1VdfffDgwV27dr33ve9dx2UBAAAAAHglyl/2N7/2ta+tefyBBx74xCc+8e1vf/uyV95U4jjWAQ0AAAAAdKXLD6BLpdKFPrr33nsve1kAAAAAALrDeo7gAAAAAACAhAC6w4zgAAAAAAC6lQAaAAAAAIBUCKABAAAAAEiFALrDjOAAAAAAALqVABoAAAAAgFQIoAEAAAAASIUAuvNM4QAAAAAAupIAGgAAAACAVAigO08HNAAAAADQlQTQAAAAAACkQgANAAAAAEAqBNAAAAAAAKRCAN15ZkADAAAAAF1JAA0AAAAAQCoE0J0Xx/Hk5GSnqwAAAAAAWGcCaAAAAAAAUiGABgAAAAAgFQLozhsfH7cJIQAAAADQfQTQAAAAAACkQgANAAAAAEAqBNCdF8exERwAAAAAQPcRQAMAAAAAkAoBNAAAAAAAqRBAd54RHAAAAABAVxJAAwAAAACQCgE0AAAAAACpEEB3nhEcAAAAAEBXEkADAAAAAJAKATQAAAAAAKkQQG8IpnAAAAAAAN1HAA0AAAAAQCoE0BuCDmgAAAAAoPsIoAEAAAAASIUAGgAAAACAVAigAQAAAABIhQB6QzADGgAAAADoPgJoAAAAAABSIYDeEOI4npyc7HQVAAAAAADrSQANAAAAAEAqBNAAAAAAAKRCAL0hjI+P24QQAAAAAOgyAmgAAAAAAFIhgN4Q4jjWAQ0AAAAAdBkBNAAAAAAAqRBAAwAAAACQCgE0AAAAAACpEEBvCGZAAwAAAADdRwANAAAAAEAqBNAAAAAAAKRCAL0hGMEBAAAAAHQfATQAAAAAAKkQQG8UmqABAAAAgC4jgAYAAAAAIBUCaAAAAAAAUiGA3iiM4AAAAAAAuky+0wW84h05cuTQoUPbt2/fuXPnhc555plnnnvuueHh4Te84Q3trA0AAAAAoIME0FfkoYce+uQnP3n77bc//vjjd9555z333LP6nI9//OMPP/zwG9/4xqeeeqpSqfz93/99qVRqf6kAAAAAAG0mgL589Xr9Yx/72Fe+8pUdO3acPn36jjvuuPPOO6+99trWc5588skHHnjgm9/85tDQUBRFv/iLv/jQQw+9+93vXr2aERwAAAAAQJcxA/ryPfroo0NDQzt27IiiaHh4+C1vecu3vvWtFecMDQ194QtfCOlzFEXXXXfdCy+80O5CAQAAAAA6QQB9+WZmZm688cbkbV9f31NPPbXinKuvvvr2228Pr3/84x//7//+79vf/vb2lQgAAAAA0DkC6MtXr9ez2f/3ALPZbKPRuNDJx48f/83f/M0Pf/jDN91005onxHE8OTm5/lUCAAAAAHSIAPrl+fjHP/6GN7zhDW94w5vf/OZSqVSv15OPGo1GPr/2TO39+/e/613v+sAHPvChD32oXZUCAAAAAHSYTQhfnve973133HFHFEX5fL7ZbB44cCD56MyZM+985ztXf+Wxxx675557PvGJT7zjHe9oX6EAAAAAAJ2mA/rluf7662+//fbbb799YmLip3/6p6Mo+sY3vhFF0dNPP/3YY4/ddttt4bR9+/YdPXo0iqIjR478zu/8zqc//emf/dmfrVar1Wo1NE1PTU2tWHl8fHz1QQAAAACAVy4B9OXLZrOf/exn/+RP/uQ3fuM3fvVXf/VTn/rUyMhI+Ojzn//8t7/97SiKvvSlL83Pz//2b//2rhd94hOfiKLoox/96N69eztZPQAAAABAyjLNZrPTNWxG9913XxRFd999d3Jk796999133/3339+5ogAAAAAA1pMO6M7YvXu3DmgAAAAAoLsJoDsjjmMTnwEAAACA7iaA7ow4juM4bm2CFkkDAAAAAF1GAN0xcRzv2bOn01UAAAAAAKRFAN0xd911lzHQAAAAAEAXE0B3jJkbAAAAAEB3E0B3TAigkwxaHg0AAAAAdBkBdCdNTEwInQEAAACAbiWA7qSJiYnWfQg1QQMAAAAA3UQA3Um7d++2DyEAAAAA0K0E0J2k5RkAAAAA6GIC6E6K4ziO46QJWh4NAAAAAHQTAXSHrRgDDQAAAADQNQTQHWYMNAAAAADQrQTQHdY6dsMIDgAAAACgmwigOyyO4yiKNEEDAAAAAN1HAN15IYMOLyYnJztbDAAAAADAehFAd97ExMSDDz7Y6SoAAAAAANaZALrz7EMIAAAAAHQlAXTn2XsQAAAAAOhKAujOi+N4YmJi79694+PjkmgAAAAAoGsIoDeEiYmJPXv2dLoKAAAAAID1JIDeEMIYaLM4AAAAAIBuIoDeEETPAAAAAED3EUBvCHEcx3FsCgcAAAAA0E0E0BvI1NSUPmgAAAAAoGsIoDeKu+++e+/evZ2uAgAAAABg3QigNwpjoAEAAACALiOA3ijiOI6iSAYNAAAAAHQNAfQGMjEx0ekSAAAAAADWjQB6AxFAAwAAAADdRAC9gezevTsyhQMAAAAA6BYC6A0kjIEGAAAAAOgOAugNJI7jiYkJHdAAAAAAQHcQQAMAAAAAkAoBNAAAAAAAqRBAAwAAAACQCgH0xhLHsRnQAAAAAEB3EEADAAAAAJAKAfTGEsfx5ORkp6sAAAAAAFgHAmgAAAAAAFIhgAYAAAAAIBUC6I1lfHzcJoQAAAAAQHcQQAMAAAAAkAoBNAAAAAAAqRBAbyxxHBvBAQAAAAB0BwE0AAAAAACpEEADAAAAAJAKAfTGYgQHAAAAANA1BNAAAAAAAKRCAA0AAAAAQCoE0BuLERwAAAAAQNcQQAMAAAAAkAoBNAAAAAAAqRBAbzimcAAAAAAA3UEADQAAAABAKgTQG44OaAAAAACgOwigAQAAAABIhQAaAAAAAIBUCKABAAAAAEiFAHrDMQMaAAAAAOgOAmgAAAAAAFIhgN5w4jienJzsdBUAAAAAAFdKAA0AAAAAQCoE0AAAAAAApEIAveGMj4/bhBAAAAAA6AICaAAAAAAAUiGA3nDiONYBDQAAAAB0AQE0AAAAAACpEEADAAAAAJAKATQAAAAAAKkQQG84ZkADAAAAAN1BAA0AAAAAQCoE0AAAAAAApEIAveEYwQEAAAAAdAcBNAAAAAAAqRBAb0SaoAEAAACALiCABgAAAAAgFQJoAAAAAABSIYDeiIzgAAAAAAC6gAAaAAAAAIBUCKABAAAAAEiFAHojMoIDAAAAAOgCAmgAAAAAAFIhgAYAAAAAIBUC6I0ojuPJyclOVwEAAAAAcEUE0AAAAAAApEIADQAAAABAKgTQG9H4+PjU1FSnqwAAAAAAuCICaAAAAAAAUiGA3ojiONYBDQAAAAC80gmgAQAAAABIhQAaAAAAAIBUCKA3IiM4AAAAAIAuIIAGAAAAACAVAmgAAAAAAFIhgAYAAAAAIBUC6I3IDGgAAAAAoAsIoAEAAAAASIUAeoPSBA0AAAAAvNIJoAEAAAAASIUAGgAAAACAVAigNygjOAAAAACAVzoBNAAAAAAAqch3ugAAADrvxIkTuVzuO9/5TqPRCEemp6eTn8kJx44dGx0drdVqg4ODo6OjN99887Zt28bGxrZt29ax0gEAgA1MAL1BGcEBAKTq+PHjBw4cOHHixA9/+MPDhw8Xi8VisRhFUTabDT8LhUJ4kc1mc7lcuVyOomj79u3h60tLS5OTk08//fT58+dDHr20tLRt27bR0dE77rjjta99befuDAAA2EAE0AAAm8Xx48e//vWv5/P5Bx54oL+/v1Ao9Pf3R1G0bdu2kDKH9PlS5PP5KIr6+/vDClEUlcvlxcXFp556at++fQMDA7t37/6VX/mVlG4EAAB4pRBAb1BxHE9OTna6CgDgFW96evqRRx7JZrNf/vKXS6VSqVQaGhq68cYb1/1CSSQ9MDDQbDa/+93vfv/737/mmmve+ta3aogGAIBNSwANANCdpqenH3300QcffDDM0xgfHy+Xy5fe43x5MplM+FkqlZrN5rPPPvuDH/ygVCq95S1vefOb3zw2Npbq1Tea06dPLy0thddXX331JX7rxIkT0YvTt+v1+i233JJSeQAA0AYCaACAbhOi53/9138tFApbtmwpFothgnPaQvrc+rZUKhUKhWq1+sgjj3z3u9/t7e394Ac/uBl2LDx58uRjjz32b//2b/V6vVgsFgqF4eHhLVu2jIyM3HDDDdVqtVqtHj9+PIqiEydOhMT5xIkT09PTuVwuenH0dhRFtVpteHj4TW9602/8xm909o4AAODyZJrNZqdrYA333XdfFEV33313pwsBAF5JDhw48E//9E/PP/98aHYul8tha8E2WJE+t2o2m81ms9FoLC8v9/b27ty58wMf+EB7qmqzo0ePFgqFED0n/8zOZDKZTCaXyxUKhZAvR1FUq9Xm5+fPnj0bTsjn8yFxTgLo5HUURc1mc3BwcHx8/G1ve9vrX//69t8XAABcNh3QG9T4+PiePXs6XQUA8Ipx//3379mzp9FoRFE0NDRULBbTnrYRXTR0XnFaUCwWa7Xa448/Xi6Xf/mXfznt8tJw9OjR8PPUqVMnT54sFAqnTp06evTo2bNnT506VSgUVn+l+aJ6vR6y5mKxmM/nBwcHK5VKtVoN47MvrlarHThw4PDhw29605t+/dd/ff1vDAAA0iGAXn9Hjhw5dOjQ9u3bd+7cefEz9+3b96pXvWp0dLQ9hQEA3efYsWOPPPLIV7/61YGBgUqlUi6X0562cYmh85pfzOVyzWazXC5/97vf3bNnz7333js8PLy+5V25JGIOisXiyZMnT548mSTOYaTG6i+ueTARGqKbzWa1Wq3VarlcLp/Ph68sLy9nMpnWr6/5Pyn29vYuLCx87Wtfe/TRR3/3d3/35ptvvsI7BQCANjCCY5099NBDn/zkJ2+//fbHH3/8zjvvvOeeey505jPPPPOud73rc5/73Nve9rbVn+7du/e+++67//770ywWAHgFO3HixMMPP/zVr361p6enXC4PDAykET1nMv//PxcvO3deLYzjOH/+fDabfec73/mOd7xjvVa+dEdbZLPZ6enp48ePnzx5cmZmJoqiQqFQKBQqlcpLrnN5jyX5VsidM5nM8vJys9nM5/PJ2I0Vwm+h0WjMzc3VarUoit797nf/0i/90mVcHQAA2kkH9Hqq1+sf+9jHvvKVr+zYseP06dN33HHHnXfeee21164+s1qt/v7v//7IyEjbawQAusH+/fv/9E//tFwuDw4O9vT0DA4OruPiq/cSXMfFoxdboXt7e+fn5//pn/4pk8m8/e1vX99LRD8ZMUdRdPz48ePHj4cu5tB6HGZkh5/hK8VicWxsbN0rWa21BSS0P5dKpUqlUq/Xa7VavV5PNiFM5qjkcrnwesuWLceOHVtcXHz00UdvuukmfdAAAGxwAuj19Oijjw4NDe3YsSOKouHh4be85S3f+ta31gyg/+qv/urnfu7nDh482O4SAYBXvi9+8Yv//M//PDAw0NvbWy6Xe3t7r3zNdU+ZX1Iul6tUKoVC4b/+67++973v/dEf/dHLXSGZlfG9730vn88fO3bs+PHj+Xz+//7v/3K5XC6XKxaLIdvN5/Ohubinp2f79u0p3M1lSpLoxcXFnp6eoaGhc+fONRqNUqm0+uRMJhMy6LGxsbNnz547d+4LX/jCb/3Wb73uda9ra9EAAPByCKDX08zMzI033pi87evre+qpp1aftnfv3j179jz44IMf/OAHL7RUHMdTU1OpVAkAvGIdO3bsL//yL6empq666qqQsV56+hwi5tbe23aGzsm1ms1m8jpkxLVabXp6+itf+UrrtoQnTpw4fvz4tm3bTpw4EUXRqVOnpqenoyj6/ve/n8/nf/CDH4Q1w4Z+SbNw6K1+9atfvV7VXsrxSz+YHE8KDn3N4UW9Xp+bmxsZGVlaWpqbm8vlcq2LhLsLr8vl8uLiYjabXV5e/sd//Mff/d3fvfrqq1/mLQIAQJsIoNdT+P8lk7fZbDbsRN9qdnb2z/7sz/7u7/6uvaUBAK94+/bt+5M/+ZPt27dv3bo1iqJsNvuS6fPLykavROuaScb9klfPZDLh7dmzZx9//PFDhw6dP38+/C9iuVyuUCiEf0o1Go1ms1mr1YaHh8PQ5OHh4Xw+fymXuMjB5OppCP8mTPLlcCRJnFtnQIfTwouZmZnTp0+Pjo6WSqWFhYXl5eWopfG5VX9//9mzZ6Mompub+/SnP/25z30upRsBAIArJIC+Uh//+McffPDBKIoqlcof/uEf1uv15KNGo1EsFlec/+lPf/rmm2/+8Y9//OMf//j06dMHDx7cvn37zp0721o0APBKc//993/1q1+99tprkzTzIlvkXSRXTbvrubXB+VKELuZyuXzu3LlqtTo9PT00NBQi17BOtVo9c+ZMJpO56qqr8vl8a2rc/rEhrZKIOUThURSFF4VCYfXJF6p5RZvz0NDQ3Nzc9PT06OhoX19fo9FYWlqq1WqrexpyuVx/f//MzEyz2Zybm/vbv/3bD3/4w+t3cwAAsG4E0Ffqfe973x133BFFUT6fbzabBw4cSD46c+bMO9/5zhXnj46OPvHEE1/60peiKJqamvrGN74xMDCwOoA2ggMACI4dO/b5z3/+6aefvuqqqy6ePnckkL3CHQvD+aVS6dixY0NDQ319faHtN1EsFsvl8lVXXZX8mb89t3mhFuboAhHzCi+Zkq+InhN9fX1JBh02SKzX681mM/SVh2bwILTAz8/PFwqFffv2HThwYNeuXZd7uwAAkJZM6xxArlCj0XjrW9/68Y9//K1vfevTTz/97ne/+3/+539GRkaiKNq3b9/Y2NiK8Xwf/OAH3/Oe97ztbW8LWXMcx62f7ty589ChQ+2sHwDYaI4fP37vvfeeOXNmy5YtxWIx5KEdT5/X91ohYD19+nRfX18URefOnYta5ng0m81cLjc2Nra4uDg/Px9FUS6XW5frXnxKxstd7dL7spPLXcTc3Fw2mx0dHY2iqF6vr+6ATq519OjR5eXlRqNRqVQ+85nPvNyyAQAgbTqg11M2m/3sZz/7e7/3ezt27Dh48OCnPvWpkD5HUfT5z3/+F37hF9797nev+cWpqan77rvv/vvvb2OxAMArwOc///lTp06Foc8hGC2Xy8mnbW55TulymUym2WxWKpWlpaX+/v4w2DpJaUOncIjdC4XCuXPnLn3Kx+qIOUzJuMSI+eLN3UlLcvSTOwRevJ5LjLb7+vrC3oyhDzqTyYTe59ZiQhC/devWmZmZWq02Ozv7zW9+881vfvOlrA8AAG2jA3pDmJqaev/73//www+3Hrzjjjvuv//+FW3RAMDm8ZGPfOTw4cMhfS4Wi4VCoVwuX2h0Q9rSu2iz2Ww0Go1G4/Tp02NjY7VaLfko9CNHLRvx1ev1xcXFxcXF1hNa0+rVUzLW3H7wJY+sLjL8TKZhtBYfvbil4ZobBkYvJ3puVavVlpeXR0dHWzdjjFrS5yiK6vX6yZMnw6eVSuXP//zPX+5VAAAgVTqgN4SQMu/du3diYqLTtQAAG8If/MEfHDp0aNu2beFtSJ+T/e7aLNXIO3T4ZrPZMOU5NESHjDW5bpL55nK5SqXS29u75iCO9a2zdfLyhU5ICl5xcnJTF4qkHI0MtgAAIABJREFUL0X4dU9PT4+MjIShz/V6fUWWncvlBgYGZmdns9nswsLCf//3f7/jHe+4vMsBAEAaBNAbxepO57APoQ5oANiE/vEf//HAgQPJPwNyuVy3ps9RFOXz+Uwms7y8nM1mq9VqMiVjxWmtkzcuFOleyf/bF4LdTCZTrVZXzLu4+LXWfD4hhl5eXh4aGioWi6HgJMgOHd/hdYjdkx7nFeuEpzEzMzM4OJjJZEqlUrIZYyIMBw/HH3/8cQE0AAAbigB6o5iYmNizZ48OaABg3759f//3f3/99dcnRwYHB7s1fY6iKJ/PNxqNkNLm8/lisbg6Y11fyWaD0YsJb/jZbDZDAt5oNGq1Wr1ev8JKMpnMmTNnKpVKPp8vlUo9PT0XOrM17w4x9Ipg+vTp02E763w+n8vlqtVqtVoN54eu8NnZ2SiKzpw5853vfOe22267krIBAGAdCaA3it27d3/0ox+9++67O10IANBhn/nMZ0ZGRpIm3470PqedOyfr5/P5ZJBFOFgsFqMoajabtVqttVP40vcebLUia774LOZk/HQ2mw1lNBqNer0ewujWM1f0R4cpHBe6zbm5uWKx2Gg0lpaWCoVCCKPXPDMI1SbDr0PZ+Xx+aWmpVCqFC5XL5ZDUV6vVer0emqBD/V/72tcE0AAAbBwC6I3CqA0AIIqij3zkIzMzM6Ojo+FtLpdr3U8vbanmzmsuXigUQsScBKmNRiOMwgg3Hnb5C83IF8+gQ7icTPB4ufv+rTl2IyxSKBSazWaooVarvaxBH9lstlarhV0Ty+Xy0tLS0tLSwsJCoVAIG0te/LvJCcVicXp6+oYbbpibm0smQYcTwvNpNBqnTp2Komh+fn7//v2ve93rLr1IAABIjwB6o4jjOI7j1n0IwwzozlYFALTT17/+9SeffDKXy4X227ALXy6Xu7zm30T47uqm3SusdvVVViezF79KMug5jLwol8vZbDYE0K0r5HK5MHdiaWmpVquFNTOZTLlcbjabL9nXfClCw/VFTgiBeLhWSJMvUag/ZNDLy8t9fX3hHkMSnc1mS6VSPp9fkUQnjc/JkVKpFMfxCy+88OpXv/rMmTO1Wi38RxJFUS6Xy+Vyg4ODyZr/+q//KoAGAGCDuKJ/qbO+whjoTlcBAHTMf//3f2cymd7e3ujF9Dm68IZ7LynzotVH1it9XnPBS79K0uMc2op7e3tDb2/rUoVCoaenp6enp1gslkqlJH3u6+vr7+/v7+8vlUqrdyx8udZMn1vvIhSZ9DKvefKFFk/y8UajMTc317pCo9FYWFg4d+7czMzMwsJCaAYPf4FY/XsPdzo7O7tly5ZMJrOi5pBBFwqFcrl8+vTp/fv3X+rNAwBAmgTQG8ju3bv37t2bvI3jeHJysoP1AADt9B//8R8HDx7M5XI9PT1J+pw0xl762IcLhb/r2PJ8kUtc+lWSewxBanKDod07yZ0LhULrwOhwlTDyOJwZppQk7cmXcTthfsWKWwsXTaZ/hAEdCwsLyWmXcuPJwdZe7+Xl5dUpdkiiZ2Zm5ufnw18g1tTf33/48OGQNUcvblGYSAL6Uqn0yCOPXOLtAwBAqgTQG4iZGwCwmT3yyCNh9nFPT8+KyPXSpb154DpeIp/Ph0ETIUVtNBo9PT2NRqO3t3dF7pzIZrNnzpyJoqhcLkc/GcpnMpkwADok0Um6/ZLCcOcVkXoYPB12QQxXaU2fkyuu+NZFrhiC8vC60WgsLi7Ozc2tPidsyXjy5MmBgYE127rDII4nnngil8sNDAysCKBzuVxvb2+41pEjR44fP34pTwAAAFIlgN5AkjHQnS4EAGi3J5544plnngmpYmuOeSk7EK77YI2LX2td1ikUCqVSKUTtIWk9d+5cLpdbXl4O8fGFepnz+Xy5XA758ppd4SGJbm2LvnjNrYMskty5tSc6HF9aWnrJm7r4hcJfF1qvOzs729p5XSgUwl1Xq9XJycktW7ZUKpXV6wwMDOTz+TNnzqz+ryWKov7+/rDa7OzsP//zP79kzQAAkDYB9MY1Pj6uIRoANokHHnigXq+XSqXWg63p85r7+7UtdF7fayXTiuv1ehRFxWKxXq/39fXNzs4mzcshRF4dQ+fz+Z6envD6JceShHUuMqCjXq83m82QOyejNlacE9Ln1ccvdMWLfLSiqTkZCR3S59aPqtXqs88+29fXNzIysjqGHhkZeeKJJ6IoCgNbCoVC8iiSHSwrlcqhQ4cupWYAAEiVAHpjmZiYePDBBztdBQDQbnv27AnpcxJEhij2Que3M3de32VLpdLWrVuT2DeKorCxXk9Pz9LSUpitkRQQpmqE3uFgy5YtL3csSetSxWKxUCgkDdRhyEYy4nnFV8K9Ly8vr5k+r/l8Mj9pxVdWNEFHL47jWHNjw2q1+vTTT+dyuRBDh1g5SAZxRC2JcyI0Qefz+dnZ2XAOAAB0kAB6Y7nrrruM4ACAzeazn/1sLpcL3bhRFOVyuXK5HGZHtKaiYc+9VLueU53mkclkent7w+55mUwmtD9HL24quLi4mMygWCF0Q2de3BUwCakvfWPGFWXkcrnh4eHe3t5SqRQmgYQu6VwuFy6U3P7S0lJSZ6sV46cvcq0VR9b8o8Ls7OyRI0fCKOrW4yGDDt/asmVL62Do0dHRer0+MzMTqr366quvv/760dHRgYGBUqkUIulSqXTw4MFLeSYAAJAeAfSGk4zdsCchAGwS3//+90OwGNLVpAm6+aK0C2jDNI9MJlOpVPr6+sLb0HEcNgA8ceJEPp9fXFwcHh6+SNN3NpvNZrNhhaQJ+tIfTnKPpVJp27Zt/f39Yd50iJ57enp6enoqlUqlUunv769UKsVi8ULp80te6CKfhrtY8ytTU1O1Wm1Fl3SSQUdR1NPT0zoYOo7jgwcPhiewtLR07bXXXn/99TfddNOtt956yy23RFFULpcF0AAAdJwAemOJ43hiYkITNABsHv/5n/957Nix8DrEr6tD1dD7vO6Xbs8U6dBxPDQ01NvbG44kG/3V6/WzZ882Go3+/v5SqRSmZFxonWw2Wy6XK5XK0tJSslRrV/jFRVGUy+W2bt06MjKSz+fPnz8fXTi/bjQap0+fbt2fcPVNXeTtxa0O2UOFzWZzamrq1KlTmUymNYYOGXQ4J5nIUalUwiCO48ePh3POnj2bND5fffXVpVIpl8sZwQEAQMcJoDeciYmJPXv2dLoKAKB9krQxl8slrcHho2T68Lr3QaedOydXyefzAwMDhUIh5KrZbDaMXW42m8vLy/Pz8wMDA/Pz86EDesXXs9ls6E3esmXLli1b+vr6ent7+/v7s9lsCFsvcW/AkIBv27Yt2eZxbm7uQicvLS0dO3YsrLz6KV0osr/Q81x9fsiRWw+2/vZPnz596tSp6MW51eGjarX61FNPVavVsFo+n+/v7x8ZGRkZGZmfn9+9e3cURVNTU9dff31YsKenZ3x8vFgslsvl/fv3X/zhAABAqgTQG87u3btDB7QRHACwSSQzGZLe2CSDXjEDer1i6DakzyFmLRQKw8PDPT09Yfe/sLNiuIvl5eWZmZne3t6wB+DAwEClUunp6clms729vb29vVu3bt2yZUt43Tq2Irxu3a7wInK5XH9//7Zt25Km6WBpaSm8WPFIl5aWpqenV6fDq7vFV/8ukk8vFFsnK7Ruq9i6bAimT58+PTk5mXwxpPa1Wu1HP/pRtVpN1szn89dff/3P/MzPHD16dNeuXefPn//+97+/ffv28OnIyMjg4GB/f//DDz98KQ8KAABS8rL3ECdtcmcA2FSOHTuWNMBGP9nynESfyckhvX1ZMXTmJ3cyjNY7fQ6rrb5EoVDo7+/v6elJDraeEzbQazablUplenp6cXHxlltuyeVyo6OjhUIhSYfXFNYJTdDLy8sXOi2Xy/X29g4MDKy++vz8/JpfmZ+fP3PmzJrx8UXqebmSxDkZ8ZGM4AjPbXl5eWFh4bnnnovjOBkInslk6vX6c889d9NNN1133XVRFN1www3ho3/4h3/4zd/8zSiKfvSjH+3atWvbtm0nTpyI4/jw4cPDw8MHDhxYx+IBAODl0gG94cRxHMexMdAAsElMT0+HF0nUmAjjOJJZEKVSKWyal8/nV29kt1oSa644eOU1r27dbT1eLBYHBgbGxsYulD5Xq9UzZ840m83BwcGzZ8/mcrkwTyOKonK5XCqV+vr6klkZa149OTm6wBSO/v7+q666Kkmfo59sYV4xfyPUNjs7OzMzc4XP50JPZrUVmw22fjcMwq5Wq2EkdOs5tVrt2LFjN9xwQ5I+R1F02223HTp0aNeuXdddd93Bgwe3bds2NjbW29s7PDxcqVQWFhZk0AAAdJAAeoPas2ePVmgA2AxCCpnP58OLer3e+mnIoDOZTLlcbp3UUSgUisXi6u3skjVbx0Fceir6kqVeaJEkOQ3Rc39/f/LR6pbtmZmZer1eKpXq9fry8vLs7OxVV10VEucwKjqXy5XL5f7+/iSYXvPucrlcpVJZsXh/f38cx63R8+qvr+6wPnHixLlz5176EVyyS3nUya9vxe8rl8uFj6rVajISOllzenr6P//zP1vX2blz51NPPRVF0a5du0ZHR+fn57ds2VKpVIaHh0MbuAAaAIAOEkBvRHfddZcOaADYJGq1Wq1Wa53+nFllzXnHIfAtFouhYTY5uL7zIqKL5s6JXC43MDCwbdu21ug5WjWao1arvfDCC9VqNZvNDgwMhPbnSqUSguYVcXPYgbC/v7/1BlurilqC+yiKSqXSVVddNTg4ePHbWdH+HPLoCw3luDyZVbNT1hSGO6/59dZdCk+fPn38+PHWNZ955pmDBw+2fmXr1q2HDh2KoihM5ygWi+Pj49ddd93y8nJPT499CAEA6CAB9EY0MTGh9xkANomwBV8yDji0PGdfFJphw8HkK8nrTCaTzWbz+XyYzrHu0XN00RQ1m80WCoVKpXLVVVft3LlzfHx88EUjIyM/9VM/NTY21np+rVZ7/vnnFxcXs9ns4ODgiRMnarVavV4fGhqKoqhUKq0eQhKukmxO2HoweVEqlcLw6NHR0RBVXzwxP3v2bOs62Ww2tBivOcrj4k8j/CJW/8FgzZPX1NoE3Xo8TLhO3s7MzDz33HPJ26Wlpccee+zIkSPJkZ07d37nO98JryuVSq1WKxaLN99888DAQLlcXpG5AwBAOwmgN6Jk+IYpHADQ9UKImUzeyGazCwsLrWFoyCjDMOgkek62KAySbujWztkrt3qpEPj29vYODg5u3bp1bGxsdHR0eHg4ScxLpdLY2NhrXvOabdu2nTx5MglYFxYWnn/++ZDP9vX1LS8vLy4uFgqFXC7X19cXRVEYKnKhSorFYqVSSQZDt4bRPT09v/ZrvzYxMTE+Pr5169YV9a9IohcXF0PWn3QZnz17dmFhIVo1/GT1o1izr/lCTzs5+eK/jlDGmutkMpkwkCTc79mzZ48ePZosODs7+73vfS/JoLdu3Zo0QUdRFMaJhOeZzWbn5+dN4QAAoFPW+P8Z2QgmJiZM4QCAzaDRaGSz2SRxDv3OS0tLyQ5+rYOek5bbaFUGHb0YQ4eoOriMetYMncMMkNBrHEVRmPsRUuBSqRReFAqFoaGh0dHRUGSyuWIul5ufnz927Fg4rVwuNxqNU6dO5fP55eXlMDIipOetl14xuyMpo1gshvA6Od7T05PJZLZv3759+/Yois6fPx9F0alTp06dOrWwsBC6m5MnFkZttG4AeOzYseT16lh/zQeSWbW140We5EueGX77a+bUuVyu2WzW6/Vms1koFCYnJ6MoetWrXhXWPHLkSBh1HW789ttvf+ihh3bu3BlF0cLCwpYtWw4fPrxly5Zjx4719PQ8/fTTu3btesmaAQBg3QmgN6iJiYlkH8I4jjtdDgCQohAZV6vVpMO3Wq2unu+cnJzkpGumliGGDq9fMoZecwZxOB62OmwdixF6clv7lJNzhoaGxsbGWsPW2dnZKIpqtdrZs2dnZ2eTkc35fH5mZqZYLC4uLvb19Q0MDJw7d271/I0LNQ7ncrlXvepVQ0NDyZ/qS6XS+fPnk7y+t7c3/Ezy6IWFhfPnz4c8+oUXXmgN9I8dOxa19CnX6/UVA7Uv9NySDHr1nwFertAEfaH+6/AHiejFaSHT09P9/f0DAwP1en1paemZZ55JMugV3d8LCwv79u0rlUoDAwNzc3PPPvvslRQJAACXTQC9Qe3evfu+++7rdBUAQDuEhLFWq7VuNri0tLTm5ntBiKGjKEqmNKyeQRy1dE+HSdMX6rQNkuS6NQtOeq6T6Ll1hYGBgS1btoyOjq5Yp9lsnj59+uzZs2Hgcmjyzefz5XJ5fn4+dPVGUXT11VeHGdZRFF3kZqMo6unpieN4eHh4eHg4HHniiSfm5uaSyP5Cent7e3t7t27dun379v3797fG8efPn0/KS2720gPlS9lpMPw6LqUJOpfLJXPAV6xQKBSWl5dzuVxI7Z999tmbbrqpVCo1Go3Z2dlnnnkmiqKBgYHBwcHbbrvtoYce+sVf/MUoip588sm5ublCoTA2NnbixInWydcAANBOAugNSu8zAGwetVotxM2t/ciNRmNhYSFp7I1+cphDaJsN2w8mrbirV07i0RDvJoOkk3HSISENS63ePS+bzfb19Q0ODoboOQxrTiwsLIyNjTUajWQgRhLvHj58uHXTvJCilkqlMAEjdPVu3bq1v78/vO3v71/di706dG5VqVRCwBpF0enTp1f0/67p+eefDwNPwtswnSP6yRB5RRP0S1pzEErys/Wmkr8ZRC9uNRm9+FtrNputfdkrhD8MhH0Fl5aWlpaWnnzyySSDnp6eHhsbe+aZZ3bs2JFsRdjT0zM0NDQ4OHju3LmBgYF8Pn/q1KnwrUu/NQAAWBcC6A0qjuM4jvfu3WsTQgDYDGq12sLCQsgrk5iyWq2G4RIr5kLkcrnWM5PEc0USvTrSDVFmsmFg0um8Oi2Noqi3t/f1r3/9ddddt2I4RjA9Pf3CCy+EgcutWyMuLi7+8Ic/PHPmTOvKmUymWCzOzc1FURQmGjebzWuvvTZ8MZ/PJ5e4eOjc6ujRo2HPw4uf1mr//v2VSiXc5tmzZ0PxK+76ZTVBJ/eYPMAVXwxd56VSqXUedPNFK9Ypl8uLi4tLS0urx3GEYdBRFIUkOmTQt956azabrdVqhw8fvvnmm5955pldu3a95jWveeyxx0LQPDY2FsabDA0NhYcPAADtJ4DeuOxDCACbyvLy8uzs7ODgYHIkn883Go3z58+H/ffCtI1cLte6aV7rCiuGQoSUObTWhsy6NQ5OWm6r1eqKdXbu3HnNNdf09vaumAGdOH/+/MmTJ5Ou6uT4c889FxqfWyddZDKZUql09uzZer2e1HbNNdckt5DNZm+99dZt27a9ZOjcaseOHcnf6U+dOnXDDTdc/Pz9+/e3vk3an1drNBqtD/lCMplM8niTL9ZqtTBJIzzV/v7+1rEqrb+g1WF0LperVCphk8bFxcXWjRajF9vGk0kdSR90FEVzc3Nnz54dHBw8cODAq1/96i9/+cuvf/3roygaHBwMCfirX/3qH/3oR0888YQOaAAA2k8AvXHt3r37b/7mbzpdBQDQPmFCRZJBJ9v9hRi6UqkUCoUwRKI1g26NSkM/bzIMulAotCakoQN6ReNzoVCo1+uh6zaJnsNHa/YXV6vVH//4x+Fa+Xy+Wq1GUbS4uPjkk0/OzMysODn0WZ87d661q7dYLA4ODlar1ZBTv+51r7uMYDT09l76+SGADlc8efJkKDtaa4jzxZugw98AQkKdnBOi55Dyj4yM3HLLLddcc82ZM2fOnTsXrfo7Qevb8HpxcfG5556bn59fXFwMfzbo6+vr7e2tVquLi4uh1PDbDHsPhm732dnZZ5999vrrr4+i6PDhw+973/vOnDlz9OjR22+//dlnn+3p6SmVSmNjYwsLC6VSacWAFwAAaBsB9MYVBkBPTk52uhAAIF2hszW8XlhYyOVyfX19yVDmJAwNe/eFDf2iVZMf1gxSq9VqklavaGcO/cshS81mszt27NixY0etVgtZalg2ScBbvfDCC8nrUqlUrVaPHTv25JNPrrh0svjCwkK1Wk2af3O53MjISJJH5/P5y2vL3bFjx1NPPZU8tJc8//nnn4+iqNFoVKvV1vbnNZ9b66jo1jNDy3Oy8WNieHj4ta997TXXXLN9+/bWgz/8/9i71xhJyvts+Hedu/ow3XPqmdmeZWeXMwu7y2JYwMTYxGxwFAvixHYIjkJex0qkyElsvYlMPgRjxcrhsS1HiqJEVhQZ65GVSLGfCCeSFyssNmCDk5fdBcOyMOwM7Oyce7qnpw91fj/8PfdzU1Vd3XOegev3AXVXV1fd3Y0Ucs3f133+PL9m6BbiU9M0FxcXJUkyTZNCZ9u2mfCTUdzseZ6u69TCQRn0/Py8ruujo6Plcvn111+/4YYbCoXC22+//cQTT9x///0XL16sVqupVMowjP7+/ldeeeVXf/VXO35RAAAAAACbCwH07oUdCAEAAN4LxsfH6QHPNKmud2BgIHQmBdA8a6ZBXdu20+k0a7MJIWPMsizako4SZ8qU6Z90nVQqdcstt1BTBM0UW5ZVrVar1er8/LxlWfw6lmWNj49TPE2xpqqqk5OTlUpFDGRpYZSc2rbdarX4RLYsy5lMhqftqqr29PQMDQ2t43vLZrOjo6P0p/qOAfR//Md/8MczMzPiS7GTzqH9HmkqOTR1ns/no6GzqKenJ5fL0RA0b+gOCR2nyD6VSrmuGxp/TqVSsizTQfoJ6L1TU1M0Mf3jH//4hhtu0HX9yiuvrNfrL7zwQiqVkiTJdV1N01Kp1MLCQvK3BAAAAACwFRBA72q33XbbTi8BAAAAthbVbhCeRa6srJimaZomH4Dluw5SnkinybIcBIFlWcllFIqi0ERtOp3mQ82UaY6MjBw6dIh2O2yuYowtLi5Wq9V0Oi3ufzg+Ps73sltaWrJt2/M83mXBL8sY03XddV3qixCjW+o45oPbPT09d9xxxzq/OMay2Sx/3Gw2TdNsdyaNPzPGVlZWaO9BcbVRlPVrmhZqeWaM9fT0HD9+/P3vf383Kzx06NDZs2f5vfjv27FgmifRnudRDE0V4X19ffv27ZuamqJPQdeZmZm55pprlpeXL126RBMMQ0NDlmXRV02D8N3cFAAAAABgKyCA3tU+9rGPPf/88zu9CgAAANgqP/3pT8VN6jhJkih2NAzDMAyx84EyaMqFKZWmQgaxLiO0G6Hv+57nUbisKIqu64ZhHDp0aGhoqNls8iIL/t5ms1kulxlj9Xq9p6eHjo+Pj9frdd/3LcsK7Y8nCoJAURTqd261WmKZci6XU1WV57mZTIYxRhXG6zA8PPziiy/29fXRUhuNRrsA+qWXXqpWq9ShPDc3F/qwsW+RZdk0TTF8Z4z19PTcd999Bw8eDB1PYBgGH4Jmqxm0uAkhaz8cTWhnQsZYJpMJgqBcLufz+VKpxDNoxpjjOPPz8/39/T/+8Y9//dd/nTGWzWZnZ2d7e3upraXRaOi6LibvAAAAAADbBluRAAAAAOwYCk8TWJa1vLy8srIibuJHgTJbDaAZYzRuzFb7ImIrofmZtVptdnb29ddff+WVVxqNBjVm8BMajQbfgoJCZMbY+Ph4rVar1+vVapWnz6E3stWKZyqSpiZl/lIqleKt04yxXC6nadq602dy8803X3311R1Pe+utt1RVNQyDvknqr+ALjp5PjRZUtVyv113XHR0d/cQnPvGZz3xm//79oYHojg4dOiTehT8O3Tq2blukaVqhUMhms9Vq1bKsUqk0ODjIL7W8vCxJ0qVLly5duhQEQW9vb7lc5kk3bQ4pSdLLL7+8psUDAAAAAGwcJqB3NRpv2elVAAAAwFYpl8ux08SSJIk7E1qWRaXAVEasaZqiKKZpUsJLQbDv+zRfTO/iSTRdgTolPM/jkbHrunNzc5VKpVAoDA0N0WRus9kM/bfHysrK5OTk3NycmCazuMppup1t27RyCsRpbbqu03gy7azIq0WOHDmykW9vZmYmn8/TEHS5XO7v74+e4zjOhQsXKPuen5+nD85HmKMBtK7r1Km9vLxsWdbNN99833339fT00Jl8Z8juGYYxMDAwPz8v/hahc0LXjB2Ipu+TMmhqcy4UCvxDWZZVLpeLxeJPfvKTX/u1X9N1XVEUam6h350x1tvbu9b0HAAAAABg4xBAAwAAAOykQqEwPT1Nj3noTAF06Ezf9+kgVfpS6zHvnaDwlzqLQ2O2juNomqaqarQ7wrZtiqGLxWI2m7148SJbncteWVmhxudo5MoTUv6Alk3psyzLuq5T6zRjTNO0fD5PK1cURVVVWvOhQ4eoXGLdhoeHGWOjo6PtBsnr9fpzzz1H65+fn6fvjcL62DnxTCajaZrruktLS3ffffcdd9zBo2fSffkGY6xSqZw5c4Yx9tprr1GzNt8uMp1Oi48ZY9VqNaGIgzHG/31QVXVgYKDZbFqWJWbQ5XK5UChcvnz50qVLtNPj0tJSb28v/RyWZWUymZ/97GfXX3999x8BAAAAAGDjEEADAAAA7JhyuUxp7Jrmamla2ff9ZrPp+34mk+FdHNR9IUkSRaWUafKCDlmWKYbWdZ3SWNp+kDE2Pj5OIWm724lPxVf5nDWlz6qq0nQzb7rIZDIU9QZBoGkaL5XeYP8GR4PPi4uLoTqOer0+OTk5Pj5OTymlpaW6rmsYhvihZFmmNJx6rt/3vvcdP348lD7zvR/b4Ynz5OTkxMSE+BLNntPkcizP81zX7e/vz+fzsSeIX7uqqrlcrtVqWZZFRRzz8/OtVmtmZubQoUOvvPLK0NBQJpMpl8u9vb2SJGUymXq9rus69iEEAAAAgO2HAHq3QwUHAADAu5thGIVCQdwgLrRtWUiZAAAgAElEQVRJHT9Cc7t0hL9K7Rw08UqnUfeC4zjUF8HfSwcty/I8T+z34PjFuyQG07ZtB0GQSqV4GE3HC4WCrut0pqIouVyOv31oaGhNtxN5nmfb9szMzMGDB03THB0dDe2wR+nz1NRUs9mUJOny5cviq6HpclVVs9ksXdM0TSokmZ+fF0uWaf3RlVy8eHFycjKaOIeI2w+SaH224zgzMzOLi4vpdLqnp4cmo9utmQm12jyDrlarzWaTVq7r+uzsLJ2paRr9uJOTkwmLBAAAAADYCgigd7VSqbTTSwAAAIAtRLFpPp+nBxRK8sg44Y0UaNJj3/epfEN8lTEmyzLN+UYvFc1DWWTSOUrMTPmeh4wxurs4IEzF1pqmaZrGP1RPTw9f5B133JFwowS2bTuOQ5+IR9hXX331T37yE34Opc9stUvEcRy+Cx//IJ7n0YJTqZSmaZSYZ7NZ/l9fk5OTN9xwA79mdPz54sWL3/nOdyqVith50k70hNAR6k7xPM9xnGq1Wq1WaVp8YGCAThB3oeR4JQhl0DMzMxMTE+l0+tVXX6UaaHpVURRZloMgiC0cBwAAAADYUgigAQAAAHZMaMqVtAsrEzqCxeFofialmQm1xR0T59AF+b08z+PNG1QwLd7ddV2asKaGYsaYoiiU89LwtSzLa+3f8H3fdV2as46uSuzC5ulzEAQ0+BwafyaO45imSbUblO3mcjlxKLvRaMzPzxeLRcYY7f3IX+LRM19bx839ukmodV0XW1Acx1lcXFxeXk6n06Zp8t8x+g24rttsNimDnpqaqlarjUajv79fUZRms5lKpSzLoltssHQbAAAAAGAdEEADAAAA7JhisUj7/kXFVnDwoFMMNHk8HUo5acw5lE1H3949GhyWJInmmoMgcF1X1/XQaTRNzNs2NE2jc/g6b7rppu5vGhs903XEI1dffTU1YvP0mdqfG41GvV6PXlaWZWpbpnC2WCzycmru1VdfpQCah7+h6HlNxKH1WLEVKHwg2vf90dHRdu91HIeaN2RZvnz5cqlUkmW5t7eXAmj6g4Hv+2+99dY6Vg4AAAAAsBEIoHe1UqmEDmgAAIB3MUo2DcPgRxK6GqJNGhQ6R+Np8Y2xAXToCh3XSclpEATiPLXv+7H78tm2ncvlNE2TJMk0Td5MTa9ms9ljx451vCNbrRZxXTcaPfMT+MF0Oi2mz4yxy5cvy7K8sLAQ+wFp60LXdVVVLRaLfIBaVK/X5+fnh4eHZVlOiJ4pCu/4NcqyHFujIZ5ALRyxrzqOc+HChYMHD0a/c/oUnufR4DMNRFuWZRjG0tJSb28v/3fAdd2XX375xhtvTF4qAAAAAMAmQgANAAAAsGNGRkbm5+dpFDeEp6sd64OTCzpobFnMptda/Uwroc6NYFW7Tfls29Y0jQo3+HB0EAQ8BL/rrrsS7kU8z2u1Wjz1Dq1WfDwzMzM8PMwYc133e9/73uDg4MjICGPs8uXLjuPk8/lyuZxKpULXz+fzhmFYlpWQPjPGGo3GxMSE67rf/e532009txs/Xx9qKWn3UqPRuHjxYqFQoLlsznVdxphhGPV6nYJ4GkKXZdlxHMaY4ziSJK2srDDGot8GAAAAAMCWQgC929EQNHYjBAAAeFcaHBwcGhqqVCpjY2MTExO+74s5Jg2uilvnhd4eyj1DT3nmm9z8kMDzvCAIFEWhFJuuT2UOfGtBPoLN39Lb22sYBo+n6Ux6Ojw8THlxO7THYMfomT/lMf3p06dbrdb09PTi4mJ/f//CwkIul5uamop+dsMw8vk8JbMHDhwIvRo6/7/+678Sxpb5B+8mfaYvKvm3SOiSlmVZVVWq2mCMFYvF6CS4rutzc3ODg4Nzc3OWZaVSKf4tSZJEOxC+/PLLV111VcfVAgAAAABslrb/e0wAAAAA2GpXXnnloUOHJEkaGBigUohQoCye3C67jO3oCF0nufwhemXP81zXpYvQzoGURCuKEroy7UnIb53JZNLpdCh9ZqvRarvxZxraXVlZoa7nUL9zwlOaBX7ttdcuX75MB23bnp6ept7n2Coz+p5rtdqBAweCCH6abdvj4+O1Wi3afMJW0+SELzBWQhcKPyEhg+YT5fPz8xcuXKAMXaSqqqIotm2nUimKm5vN5tzcHL1K/w5gAhoAAAAAthkCaAAAAICdlMlkUqlUtVrdt2+fWAZNQqO1FIa2m7cNRajtXop9uzhOGwSBpmniYmj8NqHrgzJuTdP43oPimdQcfezYsWw2G3ojRc+NRoNaI7qPntlqBQdj7PTp0+I1V1ZWKGwtl8uh+LhYLKqqOjMzUywWYzcnJLZtv/rqq9RZEc3uo19gwjcvvVO7O3KxtdpELOB2HGdiYsJxHPreOMMwqtWqpmnNZpO9M4BOp9OSJJ0/f77jGgAAAAAANhEC6N0O+xACAAC8u7VarYmJiUKhoCjK1VdfLeaPnud12e3AH4vN0aGsNnaSl7/KaZpGWTPNNVP03HF0lzFmGAZ1RFAlcSiQje496Pt+q9Xi0XPoLV0m0b7vP/HEE9G3s7jxZ8r6l5eXBwcHFUVpNpuh9JasrKy8+uqr/GkogE7+RaSI0Ktip0qs0Iy5iH4L/pQy6HK5zI/QN2Ca5vLyMpVWO47TarWWl5dXVlZotlq8AgAAAADANkAADQAAALDDZmZmKpXK0tJSrVbbv38/dUSwNs0YCaXP4lv4tHJotDm2QIPXa1C/MwmCIDZ6jq2i1jSNonMahaYMmlMURSzfsG27Xq83Gg1+WjRfFh8nPH3rrbcuX77MPyA9sCyLrQbQ/KCqqv39/TTUnM1m6TrLy8uhm5bL5fHx8dCn44PnCdlxly0cdIWEmWhq4Yh9SZKk0Hy04ziVSiX0naiqmkqlHMcpl8uSJLmu6/u+67pU2SEG1gAAAAAA2wATEAAAAAA777XXXrvmmmvK5XKtVhsaGsrn8zMzM7yFOUFsHUQ0leZtzrIs82FnGsilaJLPAlOPMC/ciF48+jTU18FWa6Mp0WaMlUql4eHhIAiilRGxFxSf8qKMer1Oj/k/XdcdHx+PpuStVkvTtFDS2tfXt7y83Gq1xL2dPc9rNpumadLTmZmZ2dnZ6KemzxI9HhL95qNiY+XQRVRVpbHr6KaFvFtD/Aiu66qqKp5pGIamaY1GI7oA2sMQAAAAAGDbIIDe7VDBAQAA8F7QarWmp6cLhUKz2Zyamurr69u/f//KygpVJPMWCN/3O0acvu9HaxYonaRAk1ogKFFttVo86+RtG90UbvC4U9O02H3taBQ6CAJd1++66y7btnn0TAkyDSPzNDkIAgpM+ZHYjma6LM1os9UKaVoAX5LruqH/fMrn867rtlqt/v5+8cuhgFvXdUVRxsfHo3fkwX1CNTO/VJd9KdFYOUQMu0O92/QbiQPmkiTNz8/v27cv2nmytLQUXRJ97QAAAAAA2wYBNAAAAMCuUKvVUqlUNptdWVmZm5urVCqDg4O5XE6WZc/zKMClcolkoSCSIkgaahYLiIMgsCyLZnsTeodjr98xfeZnep6XTqefeuop1j5T7vKmYu7MNRoNXdc9z6PQlk9MLy0t0bi37/uGYZimWalU6OvlF6QHnufV6/X5+fmEtVELR5e5fDdD0MkBNLVwiN3T4lt0XQ81nFiW1Ww2Qz8ETbIzxqh5g97ueV4mk+n4KQAAAAAANhECaAAAAIBdpF6vm6Ypy3KtVpuamhocHNR1XdM0WZaz2WxPTw9bbXNmq9UQFIyK5cLUs0EXpF0BqT6Y58VBEDSbTVmWdV0PLaDLLmPGmKIoCekzD75t256bm1vr98AXE5s7h9i2bZomrbzVaqmqSs3IlOEWi0Wq4+Dl2qFbXLhwIfo9MKEcgy61iQF08qtUyd1u88PoeLuu65OTkzfccIP4lpWVFVVVxe9NluXl5eVcLtfxUwAAAAAAbCIE0LtdqVS6dOnSTq8CAAAAtk+r1WKMZTIZSZJWVlYKhYJlWbyKgRo2UqmUpmliVwPvdKZzQpsBUv8yhdGUO8dGruKlYo/zx4qipNPp0AnRdyXcJUGXuTNjLJ1Ou67reR4fgrYsS9f1ZrNJQW1fXx+9Gi3foAeNRmNlZSWXy4VKNkKfpeNKuh8h79jCQX8tCJVl85diWzgYY+VyOZ/P84OO49DmkFSEQrdzHKfjBwEAAAAA2FwIoAEAAAB2C7HngSZ5qUjBdV3XdXkga9t2o9GQZTmVShmGwWNoPvFK0TOfhmaMSZKUTqe7meFtJyF9bpe9Urfymm7RZe4c1Wq1MpkMLbJSqfDjVGmiaRov32Dv/CwLCwuMMcuyxAA6+oloVe2+QP7ngS6/4XW0cIiiLRy6rlN1OL2FylVCU9v0rRaLxW5WCAAAAACwWRBAAwAAAOwKYrcyodnehYUFWZZzuRztHMhPC4Kg1WrZtk1VGDRrTIW/kiStb/RYXEy7l+h23RRNdLmGjeTO1AHNhBFvXdepcINks9mFhYXh4eHYty8sLNDOh+2iXlG7Fo7QV9GxhYP+KtDxw7YLoCVJirZwqKraarUmJib279/PGKOucM/zDMMI3aibTwoAAAAAsIkQQO92o6Ojzz///E6vAgAAAHYG9WnwomcRL33u6enhBRTRaFI8eVNIkuS6bqiwIiqhHppQ7kwFEeteTCaTocydMUZZvCzLPIDOZrO6rtu2Tbs48kCc91HQ+DNjjOaF6TtsVz8SjYy7+VZjz+nYwsEYS27h0DSNf3DGmKIohmHUajXXdSmL58dt2xZvNDg42HHNAAAAAACbaP3/M0wAAAAA2FxrGgHmqSLtWbc1K4q/r+u6rVYrYbXUHJLwdsuyLMuitHQTF0bjzEtLS3Qkm81Wq1Xado9ux89kjE1PT4vvpert5ExZ/Mgda7IpZW53KVmWk+9FLRztXtU0TXy7JEmmabZarenpaRp/5uvhKXa9Xk+4HQAAAADAFkEAvduVSqWpqamdXgUAAABsh9hIN1rNIZIkqcvY2vf9jc9B8ysEQWBZVmi6lp8THX/eutyZ8zyPMtZms0nr7Ovrq9frpmkyxnzfbzab/LtqNBqUVotvT74+H4JOTpZZFy0cTBhg56LnJATQNOouvouO1Gq1arUqXqGnp6der8/PzzuOg/4NAAAAANh+CKABAAAAdoWE/evapZndx7ibWMEh8jzPsiwqfAhWienzNuTOHHVALy8v8yO6rvu+z9tCKIOmx+L4M/8sHaP8jiH+mn6R0KWiYXRCoYosy6EMWlVVXddpjptrtVqKovDZ5266pwEAAAAANhcCaAAAAICdtG/fPv64XTiYMObcsUp4rXiOHHuv2POpkYPeomka7ZS4PbmzuCTHcWRZ5v/Tsb6+PsdxaPyZc1232WzSOHD0UmJ5RRR9LV0GuN185I5/FVAUJTaDpjfyYJ0PU4c+LGPM8zxxaF2SpOuvv77jwgAAAAAANhE2IdztUMEBAADw3hEbblKAmBBobtFMa2yPRLtlUCOHqqqaptXr9dBp7apFurm4+F46ge9bSHFwJpNhjPFAuVar0YO+vr5Go9HT0xNd5+XLl6ObKNKmiLGfLnT3hFl1tvq9dd/C0e4lup2iKLSq0JcjSZKYTdP5qqpKkrS4uFgqlei467riHwDK5fIv/dIvJa8KAAAAAGBzIYAGAAAA2C26nzvu8lXxHLr4Riamk99IY9qbuNOdOHHccfSYYlZZlmn42jCMbDa7srIirpz+WS6XHceJBtCMMc/zPM9r17xMX+M2V1jwxUR/OJqP5jsrMsY0TdM0zbbtSqVSKBQYY61Wi49FLy8vf/CDH9ymdQMAAAAArEIFBwAAAMCuljwnyzrtUhiVULKxPrIsK4qykZppypdpXNdxHNu2aYdD2jevYzszvZceK4riOE5fX5945dDnbVe1QfPRsS+JX/VmZdDJmxlGNycUn9IDXddDKzRNU5IkSt7FbJoxNjs7K/a9AAAAAABsD0xAAwAAAOwWCcmm7/vtJnP5jPBa98cTj3R8b+wJsiyvNXemm1IozLoYbe6o0WiInRiyLHuel81mgyBoNBrRSeeVlRXP81zXDVVYiMsLCX3GhBYOMSDupoWDVptwgqIomqaJjdXiKHSoIZrvTOh5XrPZ9H2fJ9TLy8uyLN97773J6wEAAAAA2HQIoHc7dEADAAC8p/i+Hwo3k5sfxMCUl2yEzgkdiW3hiA1e29UZS5KU3IMsXqH7Go11EzNcWZb5d0gbIRqGIZ5cLpcZY47jRPf3oxrohBYO+ioSNoQMPUg+rUuhAJoJvyAlzuKkM9Vw27a9vLxsmib/HpaWllzXHRkZWdOtAQAAAAA2DhUcAAAAALsCZYVrasaIzaYTrkBx8Ea6MiRJUhQlNn2mfJmGi9dRo9GlIMJxHPHKpmkGQUApM2PMcRwxn+Wt0O2qNnzfD70UuxNj6LOEujKiP4EkSHhjrNgT+BvFFg46Ti0ctm0zxhRF4ekzth8EAAAAgB2BAHoPwBA0AADAe9k6gunkbo21tj/TFcTomZJfypopbuZZs+u6lDVvvGM6mjXHXjM0HRwKx33fb7Va/CnFsowxWrz4AcWbhj57aFXsnTPXCQkyxf3JEXPH+myq2G73amiOm34mWqHjOJIk1Wo1y7Kazebdd9+dcBcAAAAAgC2CCg4AAACAXSSh6zmK74wXfSlax7HuRJjPWVOsvOk1Gskj20wojOZVHhR/05FqtdrT05PL5RhjnudpmpZOp2kCmgqgfd9vNpumaTJhApq1aeGg8xNaOMSFtQuO1zFmnvxLGYbRaDRi3xhq4aAAmlo7HMdpNBqSJM3Nzf3O7/zO8ePH17QkAAAAAIBNgQAaAAAAYBeJxrsJHdAdU852SWhsDXS79fDdArs5v+N6WGKsLD6NvpHeIr5kWZYsyysrK81ms7+/n7YHTKfT9XpdbNKgrFnTNDGAtm2bUunQjYIgsCwrnU7HfnW8F7vLlLnjaTQiHTt2zQ8m/4i6ros1I4qimKbJA2jbto8ePfrpT3+641IBAAAAALYCAug9gCo4SqXSTi8EAAAAtluXg7QJKedGGp8TrhPNo0M7DYZ6M2Jj5WT8Ut3MXHuet7CwYFlWb29vb2/vwsJC6ASqoeAVHGy1hSM6BE0xd8L3Ri9R2J2weD6f3k3Lc+w3I242qCiK2PshatfC4ft+o9FYXl7+0pe+lLwAAAAAAICtgwAaAAAAYFegNDMUtvKIM3ZfO/64m+KO7sPfUGYaG4/yEzzPa7VaW7HBYJdv4Y+bzSZVHuu6Ti0cVMFBKI0NvddxHPEcftz3/dhsmp8gSdImVpF080eC2BYO+mkSWjgGBgb+5m/+5siRI5u1VAAAAACAtcImhAAAAAC7yLY1LG/KZDQNCxuGYRjGOi4obma4vg0MNU3jF6GW6pWVFcdxQt0a7WqdxYHoELHBI7psJgxod9Tx43TcqLDjOalUSnwqy7JhGPQupM8AAAAAsLMQQO8BVMGx06sAAACALTEyMiI+bRdWtuuGTn4Xb4HYYINzu+iTr4oST1VVu6ml9jyPQmeypsQ5ejV6IM7/zs/Pa5o2Pz/PF0mnqapKexVynuc5jhO9ZpffmNi83G5hXUpoUCHUwhE6jafSoTIQSZJosnt2dvbMmTNrWgkAAAAAwOZCAA0AAACwe3U5VtzNKO4GY+joSkI3pdCTYujofcUxZxpV3shi/FX0lMaf6bGqqj09PfPz8/V6nZo0xBvl8/nQ2mJDZLp4u85l8e3JJ3Qz2kynJdRJ83P4UHM0hpZlWewS4UckSTp37lzHBQAAAAAAbB10QO8BpVLp0qVLO70KAAAA2A4JUbLv+2JMuVm7C65b7FIphlYUpdVqWZYVO1/c8TqhI+LTUOGGruuGYVCIzL8QyqB54YZYaR2qqmCMRfs6+Fssy0qn0zGffPUEauGIzY477mEYPdhuK8LYN4ZOpniap+10NcMwHMdBAA0AAAAAOwsBNAAAAMDuImaaYriZkE6ur+i5XeKZcDX+Umz6TAPFlA7TvHNCk3KXQolz6FVZlkMzzqSnp6darRqGUS6XTdPkGbQkSblcrlar8TMdx4ndipC1+R5CX6nrurquJ5zAL9VxGrpjAE0tHHwum/er0FMK3PlF+Ew0AmgAAAAA2Fmo4AAAAADYMZVK5fTp0/SYZ82hyVb+ONSh0U0HdMgGm6DFZYSmkh3HabVazWbTcRyeFKdSqVwuF2rk6PL6lAs3m02apKbijujJ1OwRPa6qqq7rkiTRqpjw7YVqoFlclTN9wGgLB//O+TcZ+koTfpSOE+sdWzgYY9GgnF9WlmX6qnkrtKIo1MLx/e9/v+OVAQAAAAC2CAJoAAAAgJ0xMTHx9a9/fWJiYouuvxUdHXRNyoKjuTM/jWevsiybpknlxQl44mxZVqvVarVatD9h7JmihMYSTdNc102n0zyDZox5npfJZKK3jr0RY6zjBDdfQ8cB524Ko2VZTr4O7xUR38Uf84IRfhH65p988snkWwMAAAAAbB1UcOwBo6Ojzz///E6vAgAAADbT6dOn+exziO/7vE4hejy2zKGbTQhjdax9iH2Lbdvivn8hoQ0GZVlOpVK6rtOugHSQ7/4XW6zBuhvW9jxvcXExnU739PSw1a/L87xGo0ElGwMDAwMDA2+99Var1WKMmabpuq6qqrZti5l4wgLajZyHlhHNhflFxKHpjn8S4D9H6Ewx0BdbOEJCM9TUx80Ym5ubS74vAAAAAMDWQQANAAAAsN14+hybSPI8lOLI2NqHTZxuXsfVdF23bbtdbhubHcuynE6nK5VKo9EIhc7tsuZ21+fNGI7jBEGwvLxcr9fT6XQQBPV6nQkdFNVqdXh4OJ1ONxoN27YZY6ZpmqbZ09MjjjZ7nmdZVmhMm1ZF91IUJfoV8b8EbEqxCenmh9A0LVoMwnufVVXlWzLSnys0TZudnT179uzRo0c3a50AAAAAAN1DAL0HlEqlqampnV4FAAAAbI6JiYmnn356gwlyuwnZhHPanca6m/MVybJsGAZ1XNi2Hbps9CltSOh5HoW5nudRHNwRDVNTokpvF1+lXDgIgmazubKyEn17T09PLpfL5/OUetu2rWmabdvRu0cDaLYaMVuWFWrtiJ4m7huZfGbHfQg7Jtrtpq1JKpXiXwXdS9M0x3Eef/zxr371qx1XCAAAAACw6RBAAwAAAGyfiYmJb37zm0zIeaOJpDgBzbqeUO7mNBpPDp0WSjxjKyBC59MKZVnWdV1VVcdx+CaB4pg25c78aavVkiRJVVWqhrAsK1S+nBw3R5ehaVoulxsZGaH3DgwMHD58mDF27bXXjoyM0HHG2De+8Y3p6Wk6p16v07sWFhZ0XedrC01b86prGiJu92Xy0Nl1XX610DmhbQk3ProebeEQf0ExB6c42zCMRqOBFg4AAAAA2CkIoAEAAAC23NLS0osvvvjMM8+w1bhQDGpDJ4cCaLYaXIohabtGiORlRHuN2bpqoEV8GtrzPNpFkPYPDF2TV15QKkqbE6qqury87Hleuy0HGWOmaTLG0ul0KpW64447CoUChcunT58eGxu7/vrrr7vuuuQV3nPPPc8++yxNPfu+v7y83NPTc/nyZTEy9n0/oYWDmqMTbtHlF9jldHk0eed/iqCn0RYO8e28hYOtptWaps3NzaGFAwAAAAB2BALoPQAVHAAAAHvd3/7t37YLH2kDPXFwdX1FGb7vi5sTdj9puykVxrIsU9YpSVKj0Qhdk/o3xJMdx2m1WryyWVEUx3EURTl48GA6nabQOZfLhcaKNU379Kc/TY9vvvnmLtd25ZVXXnfddefOnWOMBUFg2/bc3Fxo+DoIgnYBNGPMsqzYAJqH/gktHLGbRoZ0+WPx06ItHOJfEdq1cHzrW99CAA0AAAAA269zVx0AAAAAbMSZM2cSEkZN09q9GmpvEF9KCKk3cU+8oI2Et6iqmsvlent7s9mspmmMMWp8ppRZ1/VUKpVOpz3PoyFo0zQNw/B9X9f166677pprrhkdHe3v7+/v74+WWlQqlbNnz67jg3z605+WZZli4iAIFEXJ5XKhc6KD56zNzHjoVdJugjv2guJL0UaUjnm0oiihQFx8S6iFgzFGwfrs7GzyZQEAAAAAtgICaAAAAICt1TEzHRgYEJ/GJqHR4wmR9Foz6G62NOwGf6OiKKlUKp/P9/b2GobR09NDHRqapimKsrKyQmXQ9FTX9YMHD+7bt6+bW5w5c2YdCxscHPzYxz4mdpikUilxK0LKpkNj0Wz1O6cWjuRbRL+0dlGyJIi9VPI2g/yc0BX4U2rhEA9SC8fs7Oz6vj0AAAAAgI1AAL0HoIIDAABgT5uYmEg+IWEfwmQJoXNsuLmJw9FdXlyW5VQqZZpmJpPRdV1RFMuyJEnKZDK9vb379u0bGBgoFAp0cn9/f8e7VKvV9S3v/e9//wMPPCA2gVABiKjZbIaOiC0cydcP7WSYMMW8Kb8CTZdHb0RPU6kUP0JxNg3aP/nkkxu/NQAAAADAmqADGgAAAGALdTNz2tvb22g0xCPJOwqGKh26r3veUtTOIZYRi5msJElUqaEoCj/oeR5VV9Nbstlsx7tUKpXT7DRjbIyN0RH+INnQ0NA999zj+/63v/3tVCoVbbEIJcjtPhTH59D59++6Ln3G6ET5mn4y2qQxue2EGrcpTw9NxNPbQ+s0DKPRaFARNgAAAADAdkIADQAAALCFuuks7uvrq1QqrVZLPNj9WHQ0IeVPN6tboxuh5cW2J4fWQ/kpndPX18cYq9Vq0XbmkF+t/GqlUIkeF5PoaDx9gB1gQyz94fThc4dfeuklTdNM07RtmzdNUwDtui4fLg59Os/zkssxNvGPAbIse56XUB7NGOMBNBH/HaB4nWpDoi0cx44d25RFAgAAAAB0AwH03kAtHKVSaacXAgAAAGvTsX+DMVYul3O5nGVZPEBslzX7vi/LcjTljLkCRfMAACAASURBVJ3eZaupZTepaOyQb/di02fWphmZPxbz00wmw7oLoAuVQmwAPcEmYh+/wxAzP28e+dqRvpf6VFVdXl4ObXXYbDZDAbTv+1S4bFlWOp0OfQoxdKZfQZw+jp7T7khH0R9I0zSxxjp0gmmatVpNfEnTNMdxTp06hQAaAAAAALYTOqABAAAAtkqlEpOTEnEnuiAI0um0OF0bm2OuW3KZw2bdouM5FLmKhRV8YZIk0bhuKA6OVagWNrLU5lDz3OfPlW8qs7gJ8dgWjtCDdtkx/xQddfy6ErYo5KiFI+HV0GMK1l966aVuVggAAAAAsFkQQO8N2IcQAABgL7JtW2pDPC0IAsdxqCch+YIJE80dd8BbUwadnFnHjmDHvpqwmyLPavl3sri4KI70tlOobCiAZow1h5rLn18+fPhwaIiYFuw4jniEfxXUwhG9mvijbGLQ382IdHIAzUuu6VKapvEWjs1aJAAAAABARwigAQAAALZQs9nseE6r1SqVSoZhyLJMw6q0Nd+mLyYhDmbdJZ7dXDb2Ovwgz0x936cmCnoplUotLCzwkxP0VnvXt05Rc6j5uc99jmqg+UGKjxN+Msuykr+l5C4U0s10c2gjwXZvDO2jGHrVNM3QGzVNkyQJWxECAAAAwHZCAA0AAACwhRqNRsdzJEm6dOnS9ddfXyqVKHlM6IBul11udclGgoRbt3uJYl8KRlVVHRkZ0TStWq3qut4xnK0t1zayWjLGxorF4smTJ6MrjH75/EjsxwkVOie3cIiF0dGXxAH5djm1eI6iKOIQdOh8sS5cbOF48sknE1YIAAAAALC5EEADAAAAbKFuOiVM05yamvJ9f2BgYGRkhBLMdcwjd7/lYJeXWvfJtAae24pLose8y0KW5YGBAdM033rrrSAIBgcHO95u1pztfm3tPMoeZYzdfffdoRYOGmGOtnDQA9/3O7Y8J4TU0Z+mXSsLfzXhRjy+b3cCtXDQRXgALcsyWjgAAAAAYDshgN4b0AENAACwR3VTwcEYa7Va4+PjqVRqeHh4//79lmV1M2wbktywwbZmSjrhprG3k1Z36qNp7mKxmE6ny+Xy8vJyN+lzrVazLGsjC2aMPcoe/SD7IGOsWCzquh5t4Qj92UBsxO5499gWjvX9VaCbjSiTe8NTqRR759A0WjgAAAAAYJshgAYAAADYQtVqteM5pVKJMTY1NVUul1Op1MjIyIEDB2q1Gh9f3TbruF1sAJ28I5/nea7rKopy6NChdDrtuu7S0pLjOKOjox1vt7Cw0Bjq3GoSa4yNPcoevcgufpF9kY4Ui8WjR4+G5p0ZY9EjXLs/DIhPxSlpnvxG39jx7wHdtEWH/iWJtnCELkWR9KlTp5IvCwAAAACwWRBA7w2lUunSpUs7vQoAAABYm2Kx2M0EtGma+/btkyTp9ddft22bMuiRkRHbtjVNE0dcu9mccDsz63bjz2LTcSge1TTNsixVVQ8dOkQH5+bmGGN9fX2GYXS8Y622tgJoCp2fYk8FLKDoeYyNiSc8+OCDsizzShAKhaMtHPyE2BaOUJTMn278txB7nNuhoWZ+R/F8auGgx4qi8L0N5+bm0MIBAAAAANujbWccAAAAAKzJ9PR0KpW6fPlys9ksl8uMsVdeeeXKK6988803edjazpVXXjk9PV2v11977bVrr702lUoNDg6qqtpqtVRVlWXZdd2OFc/dNGyEIuzo1boskqbTku/oeZ4YjNKOeYuLi5qm8S9kfn7etu1Wq1UsFjsunjFmWVaz2CHTH2Njv81++4Psg9SzkaxYLOZyOcuyTNOkIxSaU/rfbg2h5uVoAO37fqgcI7Y+JblTha3+EOI50e9c0zTHccQ5a/FxKpVaWVnhB1VVNQzDsqxz584dO3Ys4dYAAAAAAJsCATQAAADAGvCU+ZVXXsnn89PT00tLS6lU6sKFC4ZhaJpG0SQN82az2WPHjo2Pj3e8rGmahw8ffuWVV2zbpgya8tCVlZVarSbLsqZpnucltzx3TDNj3xI6IklSNy0TCQfF69AArziHK8sypc+e5y0tLVmWRWvuWAAdBMH8/DxjLLaCY02hs4haOH74wx+GAmhxApo+C/962226KKKOkY537yaAbveLxN5dPJn/BKFLpVIpy7LOnj3bcXkAAAAAABuHAHpvGB0dff7553d6FQAAAO8Vi4uLMzMzi4uLtVotnU7Pz8/X63V6ShW6qqpqmjY1NaWqKgWX119/vaIoqqoqikJ5Mb/a8PDw+fPn9+3bl3zT3t7eQqHgeZ6YQWuaxksnZFkWY9Ct1nGeupsKY/pO+BHf9+l78DxvdnaWLqIoyhVXXJF8I9d1Pc8L7c247tA55Bd/8Rd//OMfi7djqy0csUPQ1MLBPxdPpbfod+kYQMuyrCgKLwkJZdCU/lNtCJWNUDJOzScAAAAAAFsNATQAAADAzz311FMvvvgiY0zX9WjymMvlcrkcf0opM/2zXVcDDZ/29/e/+eabHQPodDp94403njlzRlEU27bPnz9/zTXXmKY5PDw8NzdXr9cZY5IkLS8v9/f3M8Z83w8NRCfPR5Muc9JuTksef6bImAk78qmqmslkGGO2bS8sLDChL4JPH4euT10W/Iht24yxTzY/Sblzx0/RpRtvvFHXddu2dV0Xj4daODzP46FztIUjunjf9/n0MT+4jpC6m7cYhtFoxO/NKEkSb+HgAbSmaXNzc6dOnTp58uRa1wMAAAAAsCYIoAEAAAB+bnx8nBLSWLIsU7GGmDhTwkhTzzRYSg/4U8ZYX19fo9G4fPlyNIMOZYumaY6Ojs7MzARBYFnWhQsX9u/f39fXNzY2VqlUKpVKo9HwPG9xcXFgYEDX9SAIPM/jCW83WxRuotgmClmWfd+nbg1+nKJniu+bzWalUhGvEJqSZnHRM2OM6rAZY39c+eOjB45u4gcpFou33HLLD3/4Qx5AR1s4QqLbDIrhMj1wXTeUaIckj063+ynFO8aeHJ2YjpaBZDKZSqXy/e9/HwE0AAAAAGw1BNB7Q6lUmpqa2ulVAAAAvMtdccUVFy5coHCZEmTKmil65pkynUApc/IFaWKXMTY2NvbGG2+USqWOa9i/f78sy/R/9x3HmZubq9VquVyur6+vUCg4jjM1NdVoNBYWFgqFgmEYVPpB09DdbELYjS5HpMXzZVmmuudqtbq8vEzHKXfOZrMUHHue12w2G40Gfy894N0RrE30zFbbPDp+4et25MiRUAuHJEnUwiGm0mINtDgQHSv6c0RD6lihl3is3+40KnoWWzhCeAsHr4GmbxItHAAAAACwDRBAAwAAAPzcyZMnm83m4uIiTTpTgEjzxbZtR+dheb5M6ATeVswYsyyLNtmbnp5utVpnzpw5duxYx2WUSqVcLnf+/Hnf95vNpqZpS0tLruv29fVpmjY2NuY4zvz8fKVSSafTuVyOwlmKoW3b5vv+bek0NGWp4qC367rlcpk+uKqq+Xw+m83SS77vt1otz/M8z4uNZdlqZwUv5RCDWnpsGMbi4uLg4OCBAwc2/eN86EMf+sY3vhHbwtFuijnawkHfiZgL88Jl0ZrmnUlsAB16r9jCER2CNk2TysRDLRxnz549enQzx8kBAAAAAEIQQAMAAAD8X5lM5u23325XpxsSzZrFV+lpq9XizdHNZrPLDLqnp+fo0aPnz5+3LIu2wqvVapZl5fP5TCajadq+ffscxymXyzQfzRjj2S6NwfIMmqOh13VPSVPKyf8ZCkxp8Jly50KhwI/TEDFP6h3H4UO4fCWpVIqi2+SB4rfffpu+GfH6m6VYLN5+++3PPPNMKG4O/dVBnHqO/SZDX0tsAB21KRsYJo+H81cpgGarLRyPP/74V7/61Q3eGgAAAAAgAQLovQEVHAAAADsrlDVTy4Rt2zTg3Gq1LMtqtVrDw8MjIyOmaY6NjTWbzeHh4aWlpX/5l39pNpuUMFqW1WUGbRjGddddt7CwMD093dvbyxjzPG95ebnRaBiGkU6nDcMYGhpyHIeqLUJ5KI3fhpJieppKpdrdlEfYjUaDqpl1XW83sUsnW5ZVLpdTqVR/fz8feaZLua7LPzhjzHEcPuDMezYMwxgcHOz4bdTrddpGb2hoqOPJ63PTTTc999xz/KnYwhG7yaTv+67rdt/CsZGImaf2CeeILRzRk9HCAQAAAAA7BQE0AAAAwM9NTEy8+OKLlJzSxPHy8rIkSbZt88zONM18Pn/ddddRBXOhUMjn84yxm2++Ofaak5OTL7/88unTp/mRNWXQAwMDjLFqtZpKpRRFoVi50WhQQNzT05NOpzVNS6VSnuf5vu95nuM4FJuyd9YW00dotVq6rpumGb0dXZlSdX5QWaXrOv2Tv+S6rmVZnueFuq15ITWPxfmmfHQCL5TIZDL9/f0dvwfHcd566y16vBX9G+Tw4cOqqvLODf69iQE0fZ98mjjUwhHbLkJD0LF7FYbOTE6oKVxOzqDFFo4o3sJB/ybQrzk7O4sWDgAAAADYUgigAQAAAH6uUChMT09TI8Tw8DBlxIZh0CBzu4g52YEDB6677rpz584tLS3xg2vKoEulkmmafGc/nlR6nre0tFSr1TKZjGmaNLAcBAGFyzQJ6zgOjUjT9DFNv9brdUqT6YKe59Xr9VDuzFFxM2Os2WyKSXQqlfJ9n7eLMMZ4gzOfjBaf8vSZrca4+XyesvuOZmZm6EF/f//o6Gg3b1mHYrGoaVqz2Qy1cFiWlU6n+VPf93kAnbzNIOm4V2G7N8YSg+zoq2ILR+wQND2gunDGWDqdtm0bLRwAAAAAsKUQQG+5t99++7XXXtu/f/+1117b7pxyuXzmzJlMJnPixInYE1DBAQAAsA0KhcLXvva12JfGxsbWfdm77777Bz/4gRhAM8Ysy3rjjTdGRkYymYx4PDZY7O3t5U3KoaSSxpZpoJVKGDjGGCXF/Ey+TWK1Ws3n861Wi3JnOt80TTGj5Ffg/wyhK1PRh5g1M8Zoy0F6LMuyruu+7/PTZFnu6+ujVJemtun60Wppxtjbb7/dbDbp8RVXXPGBD3wg6bvegGKxeOTIkaefflosEmGrNdbiELT4UqiFI5ojr7t0O6TLFg5VVWlQmpYhns9bOMQjkiShhQMAAAAAthQC6K31xBNP/NVf/dWdd975P//zP/fff/8f/dEfRc95+umnH3nkkTvvvHNyctIwjMcffzx5DxkAAADYWw4cOPD+97//jTfeEIdnGWOu666srARBEMqg2xFTRTHlDILAcRzaXE7cgVCWZYpN6aY8U+bvMgzDMAxxirmjUKN0o9HwfZ8PX9Nx27ZpGbQAnlPTDoSKouRyOVqYbduNRoNPHJfLZV3XqfCaiOnz8PDwRz/60e6Xug4PPfTQc889Z9u2YRisTQtHSKiFI4q3cIhH1tfC0TGAZoxpmib+SSD0Fmrh4Fm2oiiaps3OznY5jw8AAAAAsA4IoLeQ53mPPvrov/7rv1511VXlcvmee+65//77Q/NTnuc98sgjX//612+77TbG2K/8yq+cOnXqvvvu25kVAwAAwNa4/fbbn3vuudnZWfEg34ive5RRikklhcuu61IKzE+jQVdeWMxroPlbuvmDt9h3HMpGfd9vNpsUNLuuGwQB3Z2CZl3XDcMQb0EBbiqVEvPuxcVFsY2adnrkAfTCwgJPnxlj11577VZXFReLxVwuR9s8MiERFls46Fdr18IRGxCHAuh1C6X/sffiNxIzaL4wGnmmn5V+O8MwbNt+8sknEUADAAAAwBbBpO0W+uEPf1goFK666irGWF9f3wc+8IFnnnkmdM7TTz9dKpUofWaMfe9732uXPqOFAwAAYO86cODAnXfeGTooTg2vFX8jjxdd1+XtCsGq0BHaHpDmji3LktujrRcty6Kx5Wj6XK/XeckGY8zzPN4Qks/nxTYPIstyoVAITVv39fWJn0JVVRoG9zyvXC7X63V+Zm9v79aVb3DFYvGmm26iohIR39SRRFs4+NPYXLhjSB3bPRJ6labaQxl09F1UwxJ7EbZah0KXouOapkmSdO7cuXZ3BwAAAADYIATQW6hSqVx33XX8aTabvXDhQuicpaWl/fv3//mf//nRo0ePHz/+T//0T9u7RgAAANgOhULh9ttv53kraTQa6XQ6FNRKAjERHhgY6O/vpw0S2WqIGSqDpnyZsmY6SA3L/Bwq66ANCW3brtVqsaulhJqqhHn3tHgjMRqWJElVVU3TTNNUVZVXTodQ20PooGEYpmlKkkStEQMDA/l8vtlszs/P27YtjoffdNNNWz3+TO69997Ytg0xgA7NrfPNG2NDZIqkxV8hekL0iEh8KTq3Hj2Nrz/0Xnoa2mJRbOFot0IAAAAAgI1AAL2FPM8T/58EWZaj/zPbN9544/vf//7hw4fPnj377W9/+x/+4R+iU9IEE9AAAAB72oEDB/bv3y8e8TxvZmamVquFRo9jk0dVVbPZ7NDQUKlUojFhsR+DrVZD1Ov1VCqlaRofg+Xzua7rhlJd3/drtZp4JAiCVqsVGgF2HIf2OeSPJUnSNE3TtEwmk06nDcOgudp1fC2UQRuGoaqqoijVarVarYbOufHGG3/v935vHRdfhxtvvFHXdV79waN8njJHJYyx8+8kFEDzvx9EdyzsWAOd8BIRWzii5/ACFv4vj2EYkiSdOnUq4b4AAAAAAOuGAHqT/cVf/MXx48ePHz/+C7/wC4ZhiP/Phu/70T1qrrjiigMHDnzyk59kjF177bX33nvvf/7nf27rigEAAGBbFAqFz3/+86VSSTxo2/bs7Oz4+HhoyjiBqqr9/f379u3r6elh70w/aWZ5eXnZNM1MJpPNZrPZLA1NU8qsKEpohJYya3qVDz6LJ/BY03EcyrIpdNZ1PTRLu0Ge583Pz4ulz7Sq4eFh+i+l7VEsFo8cORINoMUWDnHGnK22cPC0NzaPjq3diF1AcitLclkHCe02GX2VfjhFUehS1MLx0ksvJV8WAAAAAGB9sAnhJvvN3/zNe+65h622Or788sv8paWlpV/+5V8Ond/f3y8+7WY7IAAAANijhoaGvvSlL33ta1/72c9+Jh5fWVl58803i8ViqKMjitJJ27YNw8jn89lslpqaW60WneD7/ttvv03/gZGw2SBlu3Q1qunwfV+SJD7I3E3QmSz69larRZv7Ra2srKysrIQOBkHQ09PzB3/wBwcOHNjIStbq+PHj//3f/x097jgOb7fwfV8MeW3bjhZ3iN8AtXBs1laEHavDxSHuKNp4kC9PbOHAVoQAAAAAsOkQd26yQ4cO3XnnnXfeeedtt9126623Msaefvppxtjrr7/+3HPP3XHHHXTa2bNnp6enGWMf+tCHyuXyU089xRgrl8s/+tGPPvrRj8ZeGRUcAAAA7wJDQ0Of//znDx8+HDpu2/bS0tLk5GS7XuZarUYzyJ7nLSwsTE9Pu66rKIppmoVCYXBwMJ/P07Dz4uJix2VQAwONylJfB3/Km0CSryDm1LHEk4MgaDQai4uL0dN8319aWoqmz4wx0zT/5E/+ZJvTZ8bYPffcI8tydCadl5lEI+BQzVpskwaNlndM9juGy93MKyS0cPAriL8UtXBgK0IAAAAA2AoIoLeQLMtf+cpX/uzP/uy3f/u3H3zwwb/+678eGBigl77+9a8/++yzjDFN0/7u7/7uS1/60m/8xm+cPHnyk5/85IkTJxhjv/Vbv7WTSwcAAIAtMzQ09Mgjj4QyaJqQdV13bm5ucnIyOr5aqVTogSRJdObs7Cx/lZLofD7f399PUe8GF5mQLPPUsmNITXsY0oB2o9EIver7vmVZlUqFpnGjyezv//7vb3/6zBgrFou33HILz8R5Ikz7N8a+JQgCHk+3Q/tDim9pd2bHFg7eFd7uHPpzQsKr1MLBk2hq4UANNAAAAABsBVRwbK0TJ05Q0Bzyz//8z/zx+973PpqADnnhhRduu+22LVwcAAAA7JBCofDII498+ctfnpiY4Ad5RYPrupcvX87lcn19fbSBhG3bpmnSaZIk0ZxyOp2OXjmdTu/fv/+111678847Oy5jgyUb7VAa6/t+dPtl4vt+q9Wi3g+q/uCRK1/S/ffff/To0a1YXjduvvnmn/70p/RYHGd2XZeqNqgGWvwCLcuK7vYREtqhet26aeFQVdXzvHZnxrZwzM3NoYUDAAAAADYdJqD3jFKpdOnSpZ1eBQAAAGyOQqHwp3/6p+Ifm0PTtbVabWpqamFhwXEcXdcHBgZ4npjNZkdGRvL5fOyV9+/fLw5Qd9mSsXG01SHNO1MAHTohlUpZllWv1+v1OvVR0NRwaCV9fX2f+9znPvzhD2/u8tbk8OHDiqJEWzjE3yhauxH7WNQukQ/pGC7zbyzhR+Sd1MktHPwcGoJGCwcAAAAAbDoE0LvUbbfd9vzzz+/0KgAAAGALDQ4OfuYzn/n4xz9OT6mFQzzBdd1arba0tFQul2u1mqIoqqoqitIueib9/f2maZ47d85xnC2acWarcTPxPI/GmWNzZ6Kqqq7rtm3zE2JPvvPOOx977LFDhw5t0bK7dNNNN0mSxHN8ngi7rsurNqI10GILR2yILE6FJ6TMyb8ar+BI/ghiC0f0ZGrhEP8OQftDIoAGAAAAgE2HAHqXOnHixHe/+92dXgUAAABsrUKh8IlPfOLv//7vBwcHWdyELM0U0z+r1Sol0e2aiNnqvPPAwIDjOFNTU5Zl2bZN5cU8Ju44YBsVGzcHq8Rz2r09VEnM03Z6uyRJfX19f/iHf/jggw+udW1b5N577+UT0OI3Fv3yeYZrWRY/uL4haJ4IR98emlsXH7QLo1VVTSjspsSZV4LQXwjOnj175syZhBUCAAAAAKwVAuhdqlQqhY6Mjo5OTU3tyGIAAABgSw0ODj722GMf//jHY6drxUnhUBLtum5sq8b+/ftp/JlCYYqMKYa2bZtaMmzbpmyan5DAtu1Q3BxFgXJsGBptq/A8T7za1Vdf/dhjj1199dXr/xI323333ccYi7ZwiL9R6NvopjpD/CpC54e+uuS+lFCXdOxp1MLRrq+DriBeBy0cAAAAALAVEEDvUqVSqVQqvfDCCzu9EAAAANgOg4ODn/jEJ7785S/39/dTLsnTSQqdQ+fTwUqlsri4WK/XbdsW+x/S6XRfXx8Fx+3uSJURCaUZHCXLyafRcHRsQj0xMfajH/0if0onuK5LD6666qpHH330s5/9bPIatt/Q0FA6nY5+gWJNSug7EVs4Eiago99kbMS8jkF19s4kWmzhiN4o2sKRSqVkWT579uw67gsAAAAA0E6HrbphB1ENNN+bqFQqYQIaAADg3e3KK6/8yle+8swzzzzzzDPnz58PgoDCQUqKVTX8X25BELiu22w2efQpy7KqqpqmXXHFFbVaLaEpmMfcruvyDetiT6Mzfd9PaHsItVdz1Wrhf//v36XHd931AzF97uvre+ihh6666qr238dOKhaLN99887PPPpvNZhlj/Leg6J/6K/hBzrIs+plo/Fx8lT/2fZ/mjoMgCA0yd49+i45F0qqq8r0rxZfoqWEYYsKuKIqmaXNzc+tbEgAAAABALExA714nTpzABDQAAMB70F133fWFL3zhK1/5yl133cXD39ghaDEapsJf3/dt267X661Wq5tYmbWZyRXvwh+3S5nb9UpXq4Unnvg1evzssx9+5pkPU/SZz+cfeuihRx99dNemz+RTn/oUnyIXP2D0t+B4pXXCZTuOnIuXShCabl7TOXxEOnQOBdCnTp3qZoUAAAAAAN3ABPTuhZFnAACA97KBgYHf/d3ffeCBB5555pl///d/F4egQ00XNMWsqqqiKKE02fM8XdejUWboiOu6uq5H1xCt1PA8L5ppxgbTlD5PTh7kR5599sOMsT//c//kyZOJH323GBkZoRaO0JfDPy9VbItTzDSKTtG/OAEtRtL0G8myHJ2SDkl+tRv0bwU1bodekiSJWjjEPD2VStXr9VOnTu2V3wgAAAAAdj9MQO9eoRpo5NEAAADvQQMDAw888MD/+l//6/7776egMHbcmPo3JElSFEXMQ2m7v9DJvKyZX4ci7OjdxTNF4jmx4WY0fSbPPvvh557bM8lmsVh83/veF62B9n3fcRx6HP3s0fOjITINrW9weZQgd7xOtLlFvIJhGGKziqIouq7Pzs5ucG0AAAAAABwCaAAAAIDdjmLov/zLv3zwwQdPnDgRPUGcelYUheo46CmPSvmZoelpEi3i8H3/7tOnD05O8iOFSuWDTz9NiTa9K7+0lCuXQ4upVgvf+tano+kzeewx9sUvdvGZd4d7771XnHfmx5vNJj2I9mmIRxK2Iuzm7h1bOLqpkKaJ9XY5taIoFGTzI9TCga0IAQAAAGCzoIJjVwvtQwgAAADvZQMDAwMDAydOnHjooYfK5fLzzz//+uuvv/HGG0xo4aAzaRSaMmUxxGxX1sxWp3p510ShUrn///yfsYmJSqHwnY9+dGxy8uDkJIXRx8+doxPozP/vyJHvfPSj/DrVauHv/u7/Tf4gjz3GGNsbMfSxY8cURaEWDvGra1eHzVZbOMTfIvYcauHYeMkGEzYVjJUwAc0YoxYO8eNQC8e3vvWto0ePbnBhAAAAAAAMAfQud+LEiS984Quf/exnd3ohAAAAsLv09fV95CMf+chHPlIulymGrlQqly5d4ifwsVbf96m4OdqeEUIp9sDKCkXPdLBQqfw/3/qWeBqPnsnFAwcKhUJvb+/BgwcPHjwoSQf7+38eMSfYKxl0sVi89dZbf/rTn/b19YnHKa/XNC1aA80YsywrOfZljHme13F+ObkkmqozEv6owGma5jhOu9MMwxBroKmFY25uLvmaAAAAAABdQgC9q5VKJfExOqABAAAgpK+v78SJE9TLsbTq4sWLS0tLb775JlVCUwDdsfbhF3/0o0Nvvy12bnTjnnvu6f3jPxaPczdSAAAAIABJREFUPPwwY+zdk0EfP378Jz/5CT0W4+Bms8k3Gwy9RSzXbndZ/nPERszdHCH0+9Kr7W5HAXS7QWkqkpZlmS9J07TZ2dlz584dOXKk3foBAAAAALqEAHpX4/sQooUDAAAAOurt7e3t7WWM3XLLLXSER9KVSmVpaYkfpAeV1VnmpaWl3mr14FtvHXzrrTXf9IEHQkfGxt5VGfTJkyf/8R//kbdw8CCY11b4vk89y1yohSMWb+EIHY8NmhNqOsSX+ONQ0MzvEptBy7KcSqXEEnBd1+v1+qlTpxBAAwAAAMDGIYDe7cQaaBqCFseiAQAAABLwSLorf/In7EMfYqvlG90aG4s99vDD7Omn2enTHd79zW8ytrsz6GKxePz48bNnz4ZqoHkLR+y7eAtHuw4Nas8I1UCvow+aijhCsbJ4nSAIqOjZtm26VzSD1jRNvI6mabqunzt3bq2LAQAAAACI6rxxNuysEydOvPDCCzu9CgAAAHgPGBtjTz21iRf7539mH/xgh9MmJtg3v7mrA2jG2K233mrbNj0W09tms0lH1tfCIW79R/lv7GkdK56TY2u6MkXM7c5XVVU8gTGmadrMzMzZs2eTbw0AAAAA0BEC6N0O1c8AAACwfSg27l5iwPyuyaCPHTumKArPoDlKkGmWmR+kGJdaONpdkFc2dyzmJskZdMfNDKPnxGbQVAZNT3VdlyTp1KlT3SwPAAAAACABAujdjgo3aAgaYTQAAABsuYcf/nmFczfi+jdCr78LMuhisUgVFuydWTC1cLA2AbFlWbEvieFvlwF0soTpaU6W5VBRdehdfAKa/klh9EsvvbTx5QEAAADAexwC6D0Apc8AAACwrR59tHNmTA4c6HjKmjLo3YlqoHnhhvgSHYxFZ8Z2LnOe53XT+9yxhaObIWjDMKL34keohYMfVxQllUqhhQMAAAAANg4B9B5A+xDu9CoAAADgPaP7Io5OE9Di9Tpm0BcvdnXPHfGpT33K87zoEDS1cMTWQPu+L7Y8k1AETC0cHfNl1imD7nIIut176UFoCDqVSkmShAAaAAAAADYIAfQecOLEie9+97sMFRwAAACwbbrMoLsclO4ig+4ig91JIyMjvIVDxFs4qEwjlAK3a+EQRUPqdRDrmxPOUVU19iV6r6ZpPKSWJIke/+AHP9j48gAAAADgvQwB9B6ACg4AAADYAQ8/zB59dBOvl5BB7/L0mTFWLBZvv/32aADNGGu1WqxNyhyqeI7NiPkMdcLd24XL0qqEc0SGYSTcQlVVXdf5EUVRdF1HCwcAAAAAbBAC6D2gVCqVSiXahxAAAABg+zz8cIcZ5+4qOMTToxn07k+fycmTJ23btm07FBbTBHQs3/dd12WMBUHQLiCmFo52Vwh1a0jvJJ5JQ9DJMXTyoLQkSbqu8xMkScpkMmjhAAAAAIANQgC9N1ANdKlUunTp0k6vBQAAAN4zKDBulzI//PC6L8kz6L2SPjPGjh49yls4xAyaWjhia6DZagtHMs/zou/tptY59vx2CTVLbOEgoVephePJJ5/sfhkAAAAAACEIoPeGEydOYAIaAAAAdsDYGHvqqfiX7r573ZekDHoPpc+MsWKxeOutt26whSNWx70KSce9CqPviibR4oxzlKZpqVSKP6VSjtnZWQxBAwAAAMC6IYDeG7D9IAAAAOyY2A0Jx8bWNwHN390u1t7Njh8/HrtnoLgPYQi1cHTMjn3fp3OSB5+Tr8O3EIziSbSiKCyxMFrTNPEpWjgAAAAAYIMQQO8NtA/h1NQUYmgAAADYAQ8/zC5e/L9dHI8+yi5e3Mn17JCTJ08qihKtgaYWjnbvohaO5OyYwus1dW6sj6Io1LPR7l6apokvUWD90ksvbfXCAAAAAODdCgH0nkEZNAAAAMDOGBtjFy+yIGBBwL74xZ1ezc4oFovHjx+v1WosEii3Wq122wkmR8+U9sYOVne8VBAEiqJQ/G3btuM4/irP86hamvY/VBRF13XTNDVNM02TlhqbQWuaZhgGf0pvPHv2LIagAQAAAGB9EEDvGbfddhsmoAEAAAB21q233hobFruuy9rXQLdr4eARcLvwOipYJUmSYRiKoqRSKVVVXdd1HKfVatE/bdt2Xde2bQqmPc+zbbvZbPq+r+t6f39/JpOhEzzPC91a13XxKVo4AAAAAGAjEEDvGdiHEAAAAGDHHTt2LLaFw/M8GkCOfVf0/KhuhqBpulmSJFVVfd9fXl6u1+vlcrnRaARBoOt6Pp/PZrP0T8MwDMPQNE2WZQrBXddtrvJ9P51OG4YRBAEtnnJqFqmBphaOc+fOdVweAAAAAECUutMLgG6hggMAAABgx914442jo6PT09OhMWHGmOM40YMkNpgONWBQY0ZsLQZ/uyRJlGVT3JxKpVgkL+ZnSpIUBAHfmTC6RSHdTpZluqCiKLIsy7Ks63qj0Wg2m3QatXDMzc3FfjQAAAAAgGSYgN4zSqUStXDs9EIAAAAA3tOOHz9u2zaLFG5YlhVt0qBAmUqZxfOjQXP0vWKbc7PZpB4PwzDS6XQmk4nNnUWyLCfvakjps6qqsiwrihIEAXVJ+74/ODjY39/PM+tMJjM7O4shaAAAAABYBwTQe8ltt92200sAAAAAeK/7yEc+Qi0coeO0GWC7qg3LsjpemRowqJSZAmvP86jcOZPJ6LpOiXByrEzonOjUcwiNPNPJtFchzU27rqvr+uDgoGmabLWF4/HHH+94XwAAAACAEATQe8nHPvaxnV4CAAAAwHtdsVhUFIXmnUMvJdRA+77Pz2+XILuu22g0aGPAVqtlWZbv+zTyHDqzY7LMUXacgBqlxac0Ga0oiqIoPT09fX192WwWLRwAAAAAsD4IoAEAAAAA1qBYLN56661UkRzbwhH7LtoGMOGyfN6ZtgTMZDK0SWC78zvOQfMTEtJqGn+muDn2CtT7kc1mr7jiilqthhYOAAAAAFgrBNB7SalUQgc0AAAAwI771Kc+5XlebAsHJbb0NJQRUzzdbptB2glQlmWKnmPvS+PJ4uN2xLuL74pekB7QDoSx5ziO02q1TNMslUr/9m//FnsOAAAAAEA7CKABAAAAANZmZGRE1/XYWufkFo7oQdp7kP5pGIbYhhESDZEThqDFJJp1UdkRKuIQL0L7EzabTUVRdF3/zne+k3wpAAAAAAARAug9BkPQAAAAADuuWCzefvvttm1HCzdarVb3LRw0EK2qqiRJqVSKCXm0eFo3I8wd0QaDCW+nrDl6AgXTQRA4jnP58uXz5/9/9u49Rq7yvv/4c65z3bXxGJtl7GATTAA7IrETG0iwTdRGVaGKSKoipa0KVVOpVaNeVLVVKzWkQVUjRVUr0qSRUEkjokKlkrSRmgYaIMFJa0KScm2xuRiwWXa9tne9u3M7Z875/fFln9/jc87Mzq73NrPv1x/WmTNnznlm/A/5+JvP838PPfRQjw8FAAAACKABAACABfvoRz8quwUmwuIoitLVHFqj0TBfuq4rma/v+4kr5baZ0XOngDst8dlER0f6gnQRh96TUD/61KlT//d///foo4/2uAYAAACscwTQ/YcJaAAAgFV3/fXX+76fmTUHQTBv17Pv+/l8PgiCRLyrjOi5x5X0UsSRGT0nwmU1N++cvqHnefo4juOxsbEf/OAH3/jGN3pcIQAAANYzAug+U61WV3sJAAAAUFu2bPngBz9Yq9XSbzUajU410Eopz/M2bNggg9LpwWc118uhj5dqwUopiZu7R9tSxJEYkU7k1HEcj4+PP//881//+teXcHkAAAAYSATQAAAAwGLs3bs3XcGhOrdwRFG0bdu2XC53/vz5OI7TGwMuOm7uPgSdOJMu2UhfkJ6YTmxRGEXRq6++euzYsRdeeGFxawYAAMA6QQANAAAALMZHP/pRx3EytyLMDKAvv/zyOI7PnTuXuR+glpie7p5Kp5Pi9AXpk4najfRHEnGzfCRRFaKUGhsb+9rXvtZleQAAAAABdJ+pVqt0QAMAAKwFW7Zs2bt37/T0dPqtIAgSOXKz2czn81NTU1EUhWGY/ohOdXvZdTAdOvfeGa0u3NswM7zWGbTskSjkWC/G87xardZqtY4cOdL7owEAALDeEEADAABgAO3cqU6cWPan7Nu3L7OFIwiCZrOpX87Ozr7nPe85d+5crVazbVu2Iux0z8y3emnnyKzOUJ2HoHW/s8qKofUZfT7RHy0D0TMzM9///vfnXRsAAADWLQLoPlOtVk+ePLnaqwAAAFjTLEudOKFuuWXZM+jrr7++3W5nFm7okzMzM1u2bJmZmZmdnY2iyLKsOI6DIEhcLxGzvNv9oT0OO3ev5lBzCXKnqFqGoBMhteu65vIcx2k2m6Ojow899FAvSwIAAMA6RAANAACAgaJD1BXIoEdGRnzfr9VqmTXQcRy3Wq1SqbRhw4bp6WlJnyXMjaIo0dGhjPy30xC0fLxLQj1v43OCtGokcmeznUOKOOI4jqKo3W7rP+UC13Xb7fbZs2effvrpV155RU6+/fbbDzzwwCOPPPLII48888wznR4NAACAdSK5uwgAAADQvxIBrGTQjz+uduxYlsdt2bLlxhtvzCxBDoKg3W7X6/V3v/vd4+PjMvJsZsFBEORyOTmWcFm/lXgpJHqed/w5M6HuElun42lpCAnDUFeFyIHwPK9er0dRpOej4zg+ffr0Qw89dMcddxw5cuTZZ5997bXXHMdxHMe27X379k1MTIyOjt50000f+MAH9u7d2339AAAAGDDz/1/8sKbce++9SqlPf/rTq70QAACANadTNrtjxzJm0M8888xv/uZvViqVQqGQeMu27d27dwdBMD09LVmt67r5fF5f4DiO53kqNfLs+76ZC6fbmc29AdPS/4Wv4+PM64MgqNVqkjK32+0uH5TjMAzr9Xqr1QqCQOpELMvavn274zhxHJ84caJUKg0PD8swtSzVtu1GozExMXHgwIFf+ZVf2bJlS5f1AwAAYJAwAd1ntm3bdvTo0dVeBQAAwJrTZTJ4WeegpYWj2Wzm83kzKY6iaOPGjUEQzM7O6pOJcWMp4kjPIJtJcXrkuZeS6MQ1mdPTck0cx7ZtFwqFKIrCMJSGjTAM9Qcty5JUWqLnMAzjOM7lcuVy2bZtz/M8z9O3eumlly677LJSqWRZVqJjxHGc4eHho0ePHjt27O///u+7fwUAAAAMDDqgAQAA0Pfm3ZZv+fqgt2zZsn///nq9bma+7XbbsqzLLrtMJovNVmXzsxLppu+pbyUxbhRFQRA0m816vd5oNIIgkH6PdIu0/lQvGxVKKi03sSzLtm3f9wuFgpRWDw0NFQoF3/dd19VV0Z7nDQ0Nbd68+ZJLLimXy8ViUSa45d1mszk8PLxp06ZcLuf7vvzpuq5t2+12O45j3/d935+env7iF7847/IAAAAwGJiA7jPVavXUqVOrvQoAAIC15bXX1M6d81yzfHPQP/dzP3fkyJFms6lbOCzL2rx5c7PZTDRaZBYut9tt27Z16NxoNOQyM1+WLgvbtiUpbrfb+s7WHB0TZ+5VmD4jnRsSVcs9E0v1PE8W5rpu+m7mfSQoP3ny5NVXX21+U0mfpTb63LlzsqthGIYvvvjivL8qAAAABgMT0AAAAOh7O3ao116b/7JlmoO+/vrrfd9vtVr6TC6XGx4eNs+I9GCyzpplx8Jz585FcyRrdl1XRokdx5EZZJ1i60lnGWQODLJbYJc5aL3BoL6VGY5LC0er1dJz1jrXTtwnjmPHcXzff/311y+//HKZcS4Wi6VSqVQq5XI5GZF2HKdQKDiOIxXY4+Pjb7/9do8/LwAAAPoaATQAAAAGwSpm0Fu2bNm7d2+z2dRVyJdeemkQBPKuGdomthaUdotGozEzM3P+/PlGo5HL5RzHkc0Jfd/3PM/cb1DeMrNgOZDYt1AolMvlUqlUKBQkfdbtGSo1s5wukrZt27btKIqazaZUfGR+WTOGtm27WCwODw+32+1NmzZt27Ytn8/LV8i8eT6fL5VKsqozZ84s4CcGAABA36KCo89QwQEAANCJZNCr0sWxb9++H/3oR9JoMTIy4jhOuqDZnFyW42az2Wg05FNRFLmuqzpsIajmOjHks86c7qvSxR0yYa1Ln83763XKSfO2+jLd1CFndPbt+758kdHR0SuuuEJ/x3hO4rvLVyiXy7Va7cUXX9y9e3dvvy4AAAD6GAE0AAAABsdqZdA/+7M/+3d/93e1Wm1kZMT3/SAI9JiwjmLb7XatVpPt+CQFloZlHUxLe4Yy4lqp4FBKua4rfcrmQxPD0Z3ekpc6hpZyD7P9WV+mk2XzpRRPm/RHwjDUg9K6/1p/MDbITeRbS2xNDTQAAMA6QQANAACAgbIqGfTIyMjevXtfeOGF2dnZWq0Wx3G5XG61WuVyWS6Q3LbZbEoUK7GyRMw659X0R/T95VhKpfX5MAz1BfKpxEfkoRI9610BO30FiaR1w4aZO2der7uhX3vtNRl/TjA/Kxm0xOsyZH327NkuvycAAAAGBgF0n6GCAwAAYF47dqj771d33TXPZZJB99IcrZSSzuKzZ8+eOXNGwlPLsl555RXLsiYnJ6emppRS119/vTkdPDw8LH3HugpDKSWb8onM1Fil9irsspdggh5PNoPszMuUERAndiDstIwEs6DDHH/OfIpsq6jf0t0dAAAAGHgE0AAAABhAd96plOopg965MyODPn369KOPPrphw4aXX35ZEmezsELHu3p+WSnl+/7w8LAeec7c6K/3KLkXmUvKvCYx2tzlsh4frXtFxsbGNm7cqG+SGJrWv0C73fY8TyagZQB8bGys928KAACA/kUADQAAgMG0iAx6dHT00Ucf/cY3vjEyMiJzwZ7n2bZdKBTMXfXSI8NKqVwuZ+bRaqnjZnVhwps5tmwONasOWXNibYtbpIwz27YdhmG1WpWbpPddlPNSe22OfssmjWNjY1u3bl3E0wEAANBHCKD7j7RwVKvV1V4IAADAWtdjBj06OvozP/Ofw8Pf2L59u2VZV155pTRm6B5kfaW5uZ/krZJK6z39LMvSZ9RFZ9CZlRqJAo30Irvf8GLWo8l3dxynWCzmcjl9Xu86qIwZcKmuNtNw3/eVUuPj4wTQAAAAA48AGgAAAIOsSwZdLk9cffUPd+782s6dOy3LUuoqOW/uDajpCFhCYT2DbL50HCeOY703oE6le5dInM1B5syp5x7vudCPdCfps+d5o6OjmzdvTjxLP07XXgdBEIahvNSfXdolAQAAYM0igO4/TEADAAAsSCKDLpcnrrrqB+9//7/6vu/7vuddoTPTRPQscarsmCf5aWaYa+4xmO597sIszXAcR7YrVBeRNevbLu6DPYqiSP8amdsPKuOXlPINaeGQ5g01N0g+Njb23ve+d1mXCgAAgFVHAA0AAIDBpzPo973vX9///n91Xdf3i5KQSuyrD9Tc6K6EpI7jeJ7XKVaWmNjs5ZAzURTJrRJD0DpZlrhZLbBAo5PlTpxN8o1ct+P/jkiH+LZt5/P5er2u9yFUSvm+zz6EAAAA6wEBNAAAANaFjRu/eeed/2rbdqFQ1MPFnue5riuNEHqKWeuetOoQOSERB8s2hnqGegm+SdZTVoyMPyulTp06tX379sSSdIifOC+D5Dp9Vkp1+WEBAAAwSPjPPgAAAAy4iYmJz3/+82fPni0WizoytiyrVCqVy2V9WXrM2ezEMN/tFD3rd9vtthzncrl8Pn/xX0Evwzy5oLqPpeK6riyj0Wjok52i58QHZe9B/ZHx8fHlWycAAADWCALo/iMd0Ku9CgAAgP7w0EMPPfLII57nlUol3bmcy+XK5bLEynoqOdGV4Xme53lRFMVx3G63dQQ8b9JqVmrkcrlFbEWoOiTOmdd0shzxtPwgSqkzZ85UKhXV2w+i6Q5o6YOmggMAAGA9IIAGAADAwPrc5z538uTJcrmsU2bbtsvlsud5OjONoijRjOG6rh5blnRVOjpEHMeSonYhN+y0QV8mszS590/1csNOuiTU5g8i97Ft23XdTZs2nT9/vlarvfXWW9dff32P0bOUYiulWq1WLpeT0WnLsk6fPt3jdwEAAED/IoDuP9Vq9eTJk6u9CgAAgDXt9OnTX/nKV958881SqSRnbNvO5XLFYjFxZWLwOZ/PS72GHmTWf9q2LaGt/CnD0Zl5tDQ+69g60eCRePRSJc6ZqXH6O5pZfOLddBDvOI60iORyOTmZy+Vef/31Sy65ZPPmzc1ms91ut1qt7gvTlR1hGOoAWinVpcYEAAAAA4MAGgAAAIPmf//3f//yL/+yWCzqne4KhYIZPSeSXyni8DxPYtb0VoQqlVOrC/NTHUPHc6RdWp9Mf1x0SYHNZchxujBkCXc1VEq5ruu6biJxTigWi9PT05s2bSoWi/KTSkVJq9XqkkdHUSS5s0xSh2FIBzQAAMA6QQANAACAgfIv//Iv//Zv/yb7DcrY8oYNG9LTwWYK7HlesVhMTyKnU+PMWWaZlTajYdu2C4WCmUrLW3LNkqTGS1Xx7LquZOUbN25M3zPzKRMTE7fccot+aVmWzErrypFEHm1ZVq1W09cXCoXp6Wk1l84DAABgsBFA959t27YdPXp0tVcBAACw5kxMTHzlK185duyY3m8wl8tt3LixS7Is1/i+r0eMExekX3ZqzJDt+PTMtUw9Z5ZgLIn0DXuMpHXinM/nddW1eU/zPuaQuD6zcePGLuuRDQYLhYLk0ZZlBUEwNjamL5A5a7lybGxs69atvSwbAAAAfYoAGgAAAINgfHz8vvvuO378uKTPUvVQLpcT9RdmIux5njQ16zKNLuFyp+fati3PSpyXHLbdbl/Ut1qITpG067qFQkF2VkwkzuZliftknlRKVSqVQqGQeY15peM45XK5XC67rvvWW285jiO1G/Ku9HswAQ0AALAeEED3pVOnTq32EgAAANaQ0dHR++6775VXXpHmDQmFS6VSouxCv3RdV3YIlO6I7jfPTJ875c6a9DXLRoUL/j4XR0aMC4XCxSfO6cW/8MIL1Wq1yzWS++sp6TiOG42G1G5IO7aMitu2HYbhxXxNAAAA9AUC6P6j/4sfAAAA4itf+cobb7xRLpclTZYdBSViTrRq2Lbt+74+7pIga2YALclpLpeTfucu4bKErTL5m7jPkkfSkqfn83kpvpi3yrn3xDlxslwuT0xMvPvd705f4zjO0NCQjDyrC3/2er0umbj8FJJBy6eo4AAAABh4BNAAAADob3/2Z382OjpaLpd1rCx7AOoLZBhZomezgsP3/XlvrtNV+bg+KTeM47jdbncKlPVzE10Ti65vNrmuOzw8rJSS3Dl9/+5VzpmXdTkpqfGGDRu2bNmSXsnQ0JA58qw/Yt5T7z0oGH8GAABYJwigAQAA0Mf+8A//8PTp0zr91OmzWb4hdc8yEK3P9JI+S0GHXJneh1DGeCWGjqIoXfccRZEOoBNV1AmJtzLzaM/zhoaGlFLFYnEJizV6v6xcLnued/Lkyeuuu05Obty4cWhoyNx3URnRsz6o1+tqrhhEcudarUYADQAAsE4QQPefarVKBzQAAIBS6vd///fHx8cT6bPsK6iMzo18Pp8oevY8L5H5pjcqdF13w4YNSqkwDLunpbrUOIois5dDBp/l3QVtuCeL8TxPNg+UYo30ZUtVrNHjZaVS6ejRo9u2bZOR50suuSSxknT0LHdoNBpymQxBB0EgkTQAAADWAwJoAAAA9KUHHnhgfHy8WCzKBK6kz5Zlyd6DOlD2fV+nzxKM5nI5s4jDvKcebfY8b8OGDZZlRVHkeZ6M7qbbnBOfNQeizSRaVx53Jw8qFouFQqFYLC5flXOnk12aOnK5nLRL7927N5/Py69hfsFOGbRJSrfPnz+vOvyGAAAAGDwE0AAAAOg/zzzzzLe//W3XdaUfQ88+53I5c9g5kT4rpRzHSUxDa+Yuhb7vDw0NSVSq5iJpiaHTVRvmHfRTpB5at3BYlpX+oExqDw8PS969VHUZy3FSxsyvuOKKK6+8Us5IHC+zzPV6XfLoer3eqYJDzrTb7SAI5KVt22NjY6lfEQAAAAOFALr/UMEBAADWufHx8c997nOlUsn3fdd1JeGVA91HrJTyPE+PQut5W2lPTg/nygXSU6yUGhoa0jmpMiajfd/fuXPnmTNn9E3MJwoJuPP5/Pbt21988cWJiQk1l03HcSxZs1JKJp3Ta7iYOeVliqGlBkTNJeZC/1D6TxEEQRiGQRDIQavVkn0aF1RCAgAAgIFBAA0AAIA+c99995VKJaWU7/sSOksYKm3Lco3sH6gurL/I5XKZN5RrJLBWSg0NDeXzeZnbTTRFvOtd7xoZGSkUCqdPn+60vFwu9653vWvr1q1KqYmJCQmglVLlcvnw4cNKqVarZf4psa+8bDab5klzhWrpdhRc6EkZfz5+/Pi1117b6Vtrst+jztbPnz9vjn7L35cMktPCAQAAsB4QQAMAAKCf3HPPPceOHZNh5Hw+b24nKHUcai7lVBemz9LRkbibWbshZxzHGR4eVkqlE9LNmzdfe+21k5OTQ0NDYRieO3cucbcNGzbs2rVLhqxFuVzWx3Ecm5PC85IwWl2YTeuE2rzAfEstw4i0LHtsbEwC9AXRNSYiiiLHcaS+w7IsKjgAAAAGHgF0X5IWjmq1utoLAQAAWFEvvPDCSy+9pJSK47hcLuvUWOjdCPV5M0E2c2HzXT1ALS655BI5SFRGbN68+eabb56YmJBPDQ8PNxoN3W78rne9a8uWLelHFIvFxX1TZcxry0GP4XVmKp2IrSVc1m91j6Fl/Fl1nh/vnS4tkUd3KuMGAADAICGABgAAQH8YHx+/5557JCwuFouJPDSdPstLOUiHp4naDTlTLBYlRJasVisWizfffHOr1dLF0K7rbtmy5Y033ti+ffvWrVs7hbNSFSKmp6dnZmbMmehX6zlfAAAgAElEQVTlkIite5ROq5VSjUaj1WrpfR0nJycXsZ6pqanEGf2DAwAAYD0ggO5LTEADAIB16Itf/KKkzK7rpieLXdeVXg59Ro8/6z5o863MQWk9/mzWFiul9u3bp5Sq1Wrmxfl8/kMf+lD3NZdKpVKpNDs7q5SK43h2dna5A+jFkbRa/mw2mxMTE+fPn5+enh4aGpItE5VSl19++cU/KIoisyCFCg4AAICBRwANAACAPvDd7373+PHjrutKlXNivNdxHNd1Pc8zT8qkbSKVFuZJHShv3rxZX2BOQN98883yVqPR0Bc7jnPppZf2svJisTg7OyuFHjMzM7I54VojofP09LRZ2RzHsf6dn3zyyZtuumkRd9Y3NCs+KN8AAABYPwigAQAAsNaNjo5++ctfLhQKUpohqajOgi3LkvQ50e0gFyTS5ziO4zguFApxHJvX53I5fVtJn+XjH/7whyV91lUSlmU5jmOm1d2VSqXTp0/LsYxCrxHNZvPMmTNm6GxmxHLs+75t21EURVG0JNG53Fb+qcDcIhIAAACDigC6L0kFx2qvAgAAYIX87d/+raTDMjmbz+cTwWWxWEykz/IyUb4hQareKjCOY7N8Qx9HUSTH11xzjQ6agyCQkwtKn9VcDbRMQK9640Sr1ZqYmFBKvfXWWyorcU4cSwF0u92+4oorFvdEnW5blqVvK2PsSqnx8fHF3RYAAAD9ggAaAAAAa9pzzz338ssvFwoFnSYnqjYKhUJ69lno8ec4jqXW2fd9HUnrAPqSSy6RVmIhOw1u3rz5mmuukTP1el1/XPdE90iaOuRBMzMzC/rsktCh8+joqDLC5XnTZ6XU8PBwo9FQSr344osf+MAHLn4xEsSrVMs2AAAABhUBNAAAANa0r3/967lcTqfPQ0NDZvmG4ziZhcJm+iyDz0opx3F0eC03ieM4n8/LkLIWRdHmzZs//OEP6zO1Wk3aPxaaPiulSqWSZVk6eF0ZrVbrzJkzSqnR0dEFJc6J41wuJ4UkV199tQxNK6Xq9br5LP3SPC/H9Xr95MmT5qS53LZer8uDEv9yAAAAgMFDAN2XqtXqyZMnV3sVAAAAy250dPSVV14plUo6qdQJsm3bEkDLn61WS5JomX2WwDqO4yiKJOuUSDrR3RHHsed55slWq1UsFs30udFotNvtxaXP5oOUUrOzszMzM+VyedH36aLVas3MzEizs95E8WLS5+HhYf3yrbfempmZMS9IXJ9+qeZ+XjU3bC5BfK1Wa7fbiVQaAAAAg4oAGgAAAGvX17/+9UKhICmzUiqfz8ux5NG2bUsMLWeiKJIM2rZt3/f14LN8VuqM9Z31u9PT05KT5vN5z/N839+zZ4+5hnq9fjHpc6lUqlQqenx4dnZ2CQPoVqvVarWmp6fPnj0rofPFJM6JY+ndtm37yJEjEkabPc49htFmC0oYhtPT0/oa27alGwQAAAADjAAaAAAAa9dTTz01NDSkX3qeJ4mzvNTFzZIgN5vNdrvtOE4ul5MZWzWXPjuOIxfHcSxj0fqe7XY7CIIoiprNpud527ZtM/cYbLfblmVt3Lhxqb7RzMzM1q1bL+YOEjrPzMkMkS8+fVZK6QnoRqMhfwvmZT2G0WZhd7PZlANp2VZzfzsAAAAYYATQfWnbtm1Hjx5d7VUAAAAsrwceeEDamSXrtG3bLGvW6bNUbTiOI0PQtm3rAFTnm7lcLh09a0EQyHB0EATHjx8/fvx4qVTauXPnli1bhoeHLz59TkxAL+IOOnSenZ01h4iXL33WB47j5PP5zHqN9MfTL3UAHYah3niw3W7rGfYO3xgAAAADggAaAAAAa9SPfvQjCSjNRgihWziEFAq7rttqtXTpsyYD0ZmPkIS63W7L6LQ+Pzs7+/zzz0dRVCqVPvaxjy36KzSbzbfffvull14KgkCi2LGxsd4/3mq1zp07J5POcmb5Euf0DWUC2rbtF198cf/+/ZkfUT2PQsv4s/wjgZlEd/ruAAAAGAwE0H2pWq2eOnVqtVcBAACwjB555JGpqSkdCusODf1SH0sAqgugzRlnCabNLo5MURTpIWhTu92emZn51re+9ZGPfMQcvu7FqVOnJiYmms3m6dOn4ziW0gnP83SU3IkOnWVWet5sd5nSZ2Uk/oVCIfMj6Zfp8xK76/FnCaBlUF3OZ34cAAAAA4MAGgAAAGvRo48+qhNhy7Icx9FlDrL3oH5LDqIocl3X8zzJOvW+hbr6WXXNoNvttqSi+ppWqyW59uzs7GOPPdZjBt1sNicmJvSswOnTp9PFx2kSOs/Ozs7Ozq7MjPO8N9cF0EePHt2wYYPKypp7DKM9zzOLR/TUM/0bAAAA6wEBNAAAANail1566dJLL5XjxLyzOQqt82JJP13XlQBaX2NeIAPRmTF0FEWtVkuP+uo9DIVk0Hv27Nm5c2enBTebTZl61o87d+5cs9mU9mo5GQTB5OTkzMxMuVxutVqTk5Ozs7PmTPTKJM69PEjGn998882HH374Qx/60LxZc5dRaNu2zdBZj6izAyEAAMB6QADdl6jgAAAAg+0LX/iCnneW3QXVXJlDoigjMUUrs9I64jQnmoU5Ci1htE5OdUgqJcXmW2quFXp2dnbPnj3mDWXkWdo2zEecP3++VqulY9kwDL///e/Ld8nn8+YOh6s475w+Hh4efvPNNx988EE5Nr9Cj2F0EARBEMhYt/mu2ftMBzQAAMDAI4AGAADAmvPcc8/5vq/mAmU5KWlyZm+DmTJ7nqez4MyLZRRaZ9Pyp7Rt1Ot1maFOXCzXSAatlJIMOtG2oa+Xt86fP69P2rZt5r8vv/yyGdrm83n5M5/PX3LJJUqpXC4nwfRqpc9KqTfffPO73/2uUmpoaCjzsswzrVarVqu1Wq2pqSldOVKv1/VvaFmWhM7yV0AHNAAAwMAjgAYAAMDa8sgjj4yPj2/dulUZ887SCGGWbwhdqSEJssTKlmUlCp0T9K6AZs20ZVlBEGRmrOZ9nn/++ZmZmY0bN5oRszKiWNl4MHETs3oiiiLzho1GQ//59ttv6/M6mM7lctLCLBPTK5A+K6WOHDkiB3r8udPgs/SKKKXS31qYibMydomkAxoAAGA9IIAGAADA2vKf//mfSinHcXT5htD7CprMC3RS7HmeOeNsXhBFURRFEp7KS7PTI4qiRqPhuq6Ev9LCkQhewzB89tlnd+3aZe5JqK8JwzAzh9XFIOZIdRdxHNfrdaWU/JkOpnO5XD6f18G07/tyXi02cU4cNxoNWaT+uUxSYF2r1TJrRkw6bs68FRPQAAAAA48Aui/RAQ0AAAaY9G+Y5RtKKd/3E+3PaTrclLRXZ9OJ3Nkk8ai+s6TDzWYzCALP8yTS1Z+KokiPSEuvcalUMu+ZmT4nHmoGst2v7ERPTE9NTY2NjenzMiRuTkxLKp3L5S4miZYJaBkYl10Ta7Va7wtORMytVkt/0NycEAAAAIOKABoAAABryKOPPqqUcl03ETdLJXSaeZmZh0qlRrvdnjfiTI8kS12GjqELhYJSKgxDnaXOzs5KzXQcx3oOOo7jc+fOJR6nl2Sm4ZkXXDxZkvw5Pj6uz0swncvlcrmcpMlybP6kifRZMm4xPT396quvmmcWveYgCORfApTRnQIAAIDBRgDdr2QIulqtrvZCAAAAltIDDzwQx3GhUJD6Czk57+yzMINR27b1Jnjzfqrdbptl0JJHy9x0s9kMw7BYLKZ328vlcjILLHPQExMTevNDlUppE33HS5g7z6vZbOpMuVMwLTsNSiqdy+X0F2k0GkEQyNiyzKRLcJxZh5JJ/hbiOA7DMIoiHdCzCSEAAMA6QQANAACANUTKjj3PM09KV0O6Ojk9RWs2b5gRdneSQes+aH1P+Xij0Wg2mxs3btTXh2HYbDYltJ2dnY3juNVqdUmfTZlfZJl0//rmxLRuDpHx5Hq9Ln8Fk5OTxWJR383Mi+XHt21burY7/SOBNJ9I+qy6NpAAAABgIBFAAwAAYK34n//5H5XabFC2IgzDUOLU7tGtGUDrixM5bCJfNo9nZ2dd15XRYJ1fh2EYBEGhUJDzQsfNYRi+8sorvu8Xi0XHcTIz3ziOXdfVOx/28lMs2uLurytHJGJ2XVc2coyiSO9tmH6QXCAv5VeVvywzj2632zJAnSb7KwIAAGCwEUD3Kyo4AADA4JGCCHOWVmZs1Vyuas4OZ5YI6/jVfCszs04HtZZl+b7faDTCMHRdVzZClOFopdTk5OTWrVvlyjAMp6engyA4e/bs9PR0FEW+7wdBIHUWiVngxINkArq336NXi76h5M7NZjMxmJwoDOl9DYlKjXa7Xa/Xzd9fV3AEQVCv1xfxIAAAAPQXAuiV9uabb7700kvbt29/z3ve0+maEydOvPzyy9Vq9dprr13JtQEAAKyusbExdWEArY91QioZtJ63TdzhIrNdx3GkAbnVaskOhJ7nyaPb7fbk5KQUcUjM+vrrr+uHSmZdq9UajUY+n5faCnMxPdZYL8iS586ajowX15ghrdPS/txut6Wmw7xhu92Wd9mHEAAAYOARQK+ob33rW3/1V3910003/fjHP/7Yxz72u7/7u+lr7r///vvuu++mm2567rnnPvCBD9xzzz0rv04AAIBVMT4+bga1Uuagh6Al5O1exJE5Aa3PmIltZjuHUsp13SiKgiCQZmc9EK2UktBWijharZZlWVJPoaeklVJRFEkMncvldHty5goX52I+LrnzgoovZmdnF3R/vWOhZlmWhM46g47jWApM2u22/LAAAAAYYPwH38ppt9uf+cxn/vmf//mqq646e/bsRz7ykY997GM7duwwr4mi6Atf+MI3v/nNXbt2nT9//sYbb/zlX/7lzDloqeBYoaUDAACsiGeffVYSSYmhE/0MOnvtkjKrDjXQ+jizDzpxUqaedaYchmG73ZYlSRGHdBzX63XdjywZq75Pu91OTEObRSKLcDHDzu12OwzDBeXOve/fqDrkzulr1Nxmkro+W//CAAAAGGAE0Cvn+9///saNG6+66iql1KZNmw4ePHjkyJFEAK2UiuNY/pdMoVCwbbv7f8oDAAAMkrfffrtQKMhxYitCdWEdhKTMXcacO41I6wu6TENblpXL5er1uq6clpINiaGnp6flvGyv5/u+rCed2CamoW3blt6JHl38sLP8uYiPS1w+b6Ysmxb2WNMhlzUaDX19q9XKHBIHAADAICGAXjmTk5PXXHONflkul48dO5a4xrbtz3zmM7/927/9Mz/zMz/84Q/vuOOO66+/fmWXCQAAsGp0/4au3TBz5DAMpf5CdMpnoyjqXuzQabzXjKEtyyoUCrVaTTpAdGYdBMGZM2eUUq7rShhdqVQkfdZNHen1zM7Onj9/3vM8c4h73haRRZDEWXLhhX7WfK4sTya4048IgqDdbi9ifrleryfSajqgAQAABh4B9MqRDVj0S9u2M6dFnn766WKxeOmll27cuPGVV16p1WqZgyHVavXkyZPLuFwAAICVpfs3VGrLvsyijHSG20ua2Wq1JicnlVKzs7Oe5xWLRRlh1v/FZc5Q5/P5RqOhn67rLOI4lv+zmlRPyPUSQMt/4ElEK0PTEtS2Wq1KpZIoFTG/y/w/UGeLzp07Pde2bVm8+ZPKzoELGuJOkB/TLCohgAYAABh4BNDL65577nn44YeVUqVS6Y/+6I/MOZEoiuR/7Zgee+yxn/70p9/5znccx/nkJz951113/cM//MPv/M7vrOiiAQAAVsPY2Jia6wVutVo6jNYZpf7Hezlj23Zm13Mcx+Z5M3GWLfUsy5Kb5/N5x3EmJibCMGw0Gr7ve57neV6pVPI8z3VdeSmrSowOzMzMDA8Py21zuZxk03L/dKorbRjpt5Ykd9Y371GPD9XdHb1UPPdC//iyAAqgAQAA1gkC6OX1yU9+8iMf+YhSSnZsf/755/Vb586d+/mf//nE9efOnbv66qv1yM8VV1zx5ptvrthqAQAAVtFbb72lR4+jKIqiKDEHrZRqt9uu60othrpw5NlscB4bG7NtWyfOwvO8DRs2uK5bLBbN/4eZjC1LBt1sNqempqampvRbSinHcRJzA/JcadXQuWqiIUTLDIgvvmdjQZsKLuiJ8u1kmFrie6nb7jS+3QuZp5bfQTJoSbSZgAYAABh4BNDL68orr7zyyivlWP6D+3vf+96hQ4eOHz/+wx/+8HOf+5y89cwzz2zZsmVkZOS66677i7/4i1dfffXKK688f/78008/fdddd2Xeedu2bUePHl2ZbwEAALAC3nrrLTmQALrVaukNCc3zOrLMLFxuNBqnT5+W8FTml4eHhxOJc4LjOFIbXS6Xy+VypVLRYfTMzIxSKgiCOI4lXNYDvI7j1Go1WUaj0SgUCpljyIn0+WLGfqVhY0G58+JibtkHW/4KZLJblm0OnveeR8svZu6FaLZwEEADAAAMPALolWPb9he+8IU/+IM/uOqqq1544YXPf/7zmzdvlrf+5m/+5tZbb/3FX/zFa6+99k//9E9/6Zd+affu3S+88MInPvGJT3ziE0qpX/3VX/30pz+9f//+Vf0GAAAAy+jZZ5+VA0k2Jfd0HEfvRuh5XhiGjuNkRs9hGJ49e7bVapVKpfSYcxfpIDUdRs/Ozs7MzBSLRX2xZVm5XK7ZbBaLRcnKgyBIJOaJ9DkMQ/m4HvSed20y7KyU6j13vshaD6WUZVmZRc/yXcxvZM1xHKdLJN1oNNLJOxUcAAAA6wQB9Io6cODAD37wg/T5+++/Xx/fcccdd9xxR+KCarV69OhRM4CuVqunTp1apnUCAACsvEQiKWOzOkTWoXOr1UrHnefOnTt//vyGDRu2bdu20OfKrTrVKEsYXSqVxsbGZHdo27b1EHS73W40GjIpnPhgunljdna2VCr1sqSFbip48aFzgvRjSPbd5eZxHJuFznpEWrpT5C9IJqkTH7QsiwAaAABgnSCA7g8f//jH77333tVeBQAAwDIaHR3duHGjOResh6A9z9MZsdQHy/6Baq5zQykln5XrF/poz/PMjog0y7IKhUIYhrVaLZfLSRpuWVY+n5cmaNmpT1+f2fuc3oA6YUG585KHzloYhvJ1uv8mnZakKzskem42m3qSXa9Z/nVh+b4CAAAA1g4C6P7AvDMAABhso6OjciABdBRFMj/bbDbL5bJurtD74wVB4Pv+xMREo9HI5/P5fF6lhqZ7J6XGqmuqWygU6vW6NHJ4nieV0J7nOY4j1cx6pDczfVZKTU9Pb9q0KX1ecudOnzKtTGJ7/vx5qbduNpuZ2yp2IltHSoCuM3TZe1BeNhqNRqMh5+v1ut6KEAAAAAOMALo/SAB96tSparVqnlndVQEAACyVkZGRzGbkdrtt9iZrzWbz7NmzSqmhoSHXdfWnMsuLu5AP6hYOc3+8BNd1ZfBZd0rkcjlpgh4dHS2VShIfd8mRZ2dnpS3a87xisahz5y4hrITa6SV16a/oMj3d5VP6QXEcB0Ggp8g9z+v0EZEZOnei02c9Wz0yMtL9IwAAAOh3BNB9Y//+/WYADQAAMGBGRkZ0QKnpZFmPPyulpHnZtm3Zb9C8PgzDXlo40hsAuq4rQXCnUWjLslzXDcNQtkMMgiCKokKhUCgUcrnc7Oys9Hh0mWKWBo+pqSk1l9t2X+QKkK8Zx3EURfKnmttfsdOOgkopmWhut9u9hM6aWejR+6cAAADQ7zr+ZyXWmv379x89enS1VwEAALBczEFmIS8TU8CSPruuu2HDhkT6LJd1H4K2LCudPsdxnMhb09dYliUlznIH13WjKJqZmYnjeOPGjbVaLY7jmZmZ1do2sEexIYqidrsdBEEQBFKUoa+Rb2H+vFEU1ev1er1+7ty5qamp2dnZRqPRy5fVv6T+1wXzU0xAAwAADDwC6L5x4MCBp556arVXAQAAsFwuu+wyM/ZNR8BKqTiOG42G7/tDQ0OZV3YKoK05nZ4uLRzpj5hnfN/X2w9KBm1ZVq1W831fttRrt9vSqpGZL5t9yisTQMcpctLMnTNXoi+u1Wo6dDYbnBfKHH+m9xkAAGBdoYKjbyRKn+mABgAAA6ZTQKxroGUIt1gsdt8ZTwJW3cLRJXROkA6N9Kp0RGvbtrRw6Hcdx5ESZ9d1p6enh4eHbduWegrXdWViOk36LnpfWI+6h9oy8iyP7uVWMng+PT3daDRkqfK3IH9NXQo6Mpnjz6s1/Q0AAIBVwQR036hWq9VqlSFoAAAwqLZv316r1VqtVrPZbDQaZkypN8crl8uJ9Dkd44ZhGATBvCPPaZ0u1veR9mfzYr17YRzH9XrdXHAQBPJ10jdckgQ2c7o587J5550zmTsWyv3b7bb0PgdBILG77D0o9R2d7mxZlvkjJFo7qOAAAAAYeATQfcasgWYIGgAADJJLL71Up5Ptdrter+tMM45j6bXQ+W8Xi97fr/tgr8TQuoVDzWXQ8rJQKJg1ynrZEkPLeT2U3SUv7qKXuNm8eHG5s3kHKYme94IwDOWfDUS6VFrmynWEbd7k8ssvX+jCAAAA0F+o4OgnH//4xx9++OHVXgUAAMByMcdjZabY933pfZags1AozJtB62BUB769kE6MzBYOTRLqRAuHnptuNpuJ/RLNL6K3WJR8fN7R7MVNSc+bGi9Il1t1ao5WSrXnyOBzEAT6ryy9aeHevXuXZKkAAABYswig+8n+/fvvvfde/VImoKvV6iouCQAAYKlceumlUunguq7eLq/Vak1PT3ueZ1nW7OxsPp83A+hOMW4URc1ms1gsLnQN8+bCtm17nqcbjc1qDgmmJXU181mpp4iiqNVq5fP5LtHtoi1t7qwlWji6XKbj5larJQe2betxctmwUaUC6FtvvZUKDgAAgIFHAN1n6NwAAACDSrJICaD1SV270Wq1oihqNBrDw8Pz3kr2AFzEGnSnc5cLdNasz0gMHQTBzMxMOsKW6LnRaEh7tdx8SWqgJdpe8txZkw7rRI4vj5PCax03m8zoWX9EdmuUlxKXx3F82223LdPKAQAAsHYQQPeTarW6f//+p556av/+/au9FgAAgCUmkbGMCesIWEJby7Ik8azX67rSocu0stRcLLSFQ27YSwuH53nmMK/jOJ7nRVGUflyj0dDj0mJJhp3lz4u5z7yazeb09LTrujLdLH9m7qmopaNnEcexzIabcfnevXvp3wAAAFgPCKD7zP79+48ePUoADQAABs+ll16az+ebzWYYhjrJlQBaxp+VUlEUhWHYSw20UmpxLRy2bVuW1SUm1oUS5pk4jovFohlAh2Gotx/Ud150aiyJs0TPi7vDQh83PT2tlAqC4PTp0/Ne3z16Tm/PqJT61Kc+tSRLBQAAwBrXcZtvrE0HDhx46qmn5Fg6oFd3PQAAAEslDEMZc9bDxZ7nSfuznFdKRVE0Ozs77630mHAvz7XmyPUy46yLNdJkAtrMoCV7HR4elpNRFM3MzMzMzKRT14UG0DIyHARBEATtdntl0ucwDKenp7sPO2uyK6OZPsdxHARBo9Go1WoysZ7+1n/+53/O+DMAAMA6wQR0nyF0BgAAg2pkZGTfvn0//elPde9wYvxZNJvNIAh83+9+N92P3KWFo1PErFs4MkehdVOH2cLheV4+n5eu50TnhpY5CJxpmeadZcFBEMixPtDnzWJr+Sswo/kEc+q5y6Rz2pe//GXSZwAAgPWDALrPVKvVarUqNdDVavXkyZOrvSIAAIAlc9lll6m5ng2lVGL8WbRarTAMuwfQlmVJEtpqtQqFQvrd7sswL0jHrzIinWjhsG271WpNTU11ufm8afLF5M5miCzJsjLC5cRvOK84jmu1ms6gzfVYliWZvkw6956qC9JnAACA9YYAGgAAAGvFrbfe+u1vf1spFYZhLpeTVDeRb0ZRVK/X5y13lsw08dl5o2d9meM4ers8+VQiFJYWDj0yLOPAsvNhOp4WU1NTjUZj48aN6aV2z53T4XLm2PLSMjNoIfPOUgmyiDLrkZERmjcAAADWIQLo/rN///6HH36YfQgBAMDgGRkZkRC20Wjkcrn0+LOQHLb7VoRxHMuteunrSHNdVwfQwhwElqw50cKRz+dt29ZNFLZtO45jRt5Scj0zM1Muly+55JI4jlutluS5ar5OjFURx3Gz2fR9PwxDy7I6VYvM6zd+4zf27dtH9AwAALA+EUD3nwMHDvzJn/zJaq8CAABg6Y2MjLzvfe/7yU9+IuPA6fFnITXQnQJonfnGcWxZ1rx9HSb5iOowK61HoWUW2PO8RqOhU2nf933fD4JAsu90DC2JdhiGk5OTZ8+e7XGXv9UVhqF8316i8JGREflTsubLL79cHwMAAGDdIoDuP3ofwm3bth09enS1lwMAALCUbrvttp/85CdKqVarlVlkoZQKw7DZbM7bwiFtGIvbxy/RwpF4S/50Xdd1XV24bFlWPp+v1+v6U2YMrffrU6ltFdcsGfput9txHDuOI38d+XxeguYrr7zyuuuuO3fu3L59+5RSBM0AAADIRADdf6rV6v79+5966qnVXggAAMDSM3NMGTFOXxNFUavVyhyCNieXJeSNomjevo5M6RYO8ykSztq2ras5bNuWFo5araYXYE5DS4Ardc8LXczK0CPMQin1H//xHydPntQ7OsZxvG/fvr/+679e5YUCAACgfxBA96X9+/cfPXr0wIEDMgoNAAAwMKS04Sc/+cn09HSXGecea6DlYHEBdPcdC6UGOpfLtVotnUHncrlcLjc1NSXNFebWgo7jyJJWvXkjkTJLUYbqMML8C7/wC//+7//+3HPP7d69e+/evYw5AwAAYKEIoPvSgQMH7r333gMHDqz2QgAAAJbepz71qd/6rd9SSklzRea8cC8tHBIB27bdbrfb7bZEwL0wSzY6dR9LQYdZrCEnPc9zHKfRaCSWLVfqvo7lpjNlOZCUWc819+6yyy779V//9WVZIrFM720AACAASURBVAAAANYHAui+pGugAQAABo8MQR8/fvzyyy/vNIYsw8WJ0eb0xTojDsOw9wBacxynUwAtz3Icx/d9PQRt23apVPJ9f3p6OnG97OO3tOUbIwbFpn8AAABYkwig+1K1WlVKnTp1ihgaAAAMHh1AK6UKhcK5c+fSBRpRFPXSwqED305tzgmJCNtxnE4j2OrCFg41t2Wf7/uFQiF9cRzHnbLsLtKlzOz4BwAAgP5CAN2vJIMGAAAYSLfddtvXvvY1pZTrurJ3X1qihSNzVlrXQM/bwtFp1NpxHNlIsNNHEvd0HKdYLMpYtHlll+pnnTJLrLzougwAAABgDSKA7leyD+FqrwIAAGBZjIyM7Nmzp/s10mjRfQha10ArpTID6O47Daq5Fg69zaBJ2qVt287lcs1mU+5mWZbneUNDQ2fOnFFz4fKtt96ay+WUUmfPni2VSmrtpcyWpXbsUK+9ttrrAAAAwMAhgO5Xsg8hFRwAAGBQ3XbbbQ899FC5XM7n8zMzM5ktHEqpeVs4JDi2LCsIAt/39fl5o2ehN0KU680YWt/B930JoJVSjuPk8/lCofDNb35zjYTL85LvceKE2rmTDBoAAABLzJ7/EqxJ7EMIAAAGm6459jwvsz1ZaqD16HGn++jPxnHcbretOV0enRh2lgFqYX7Qsix5KzFY7bpuoVCQCei1z/wlJIMGAAAAlhABdL+qVqvUQAMAgAE2MjJy8OBBpVQURfV6PfMa3cLR5T5mmtzjVoQJiRJqM7+WA2nhMK/3ff+xxx5bxLNWWDqHJ4MGAADA0iKA7mP79+9XSjEHDQAABtXtt99eqVR83w/DMDNllunm3gPozEnqeelJ58RJZQxHm+Uetm37vv/CCy8s4lkrqdMU+HJk0Dt3KstSt9yyxLcFAADA2kcA3ccOHDiw2ksAAABYRpVK5fd+7/eUUrZtd2rhUErp/uVOdAYdRdHihqDTAbS6cBQ60cLhed7k5OTzzz+/iGetjO4N2EueQe/Y8c5tAQAAsN4QQPcxaeFgAhoAAAywSqVy6623lkols4VDx75SA929hcOyLDN0XtwQdKKFQ5MtClVWC0exWFyzAfRXvzr/NUubQT/+uIpjdjgEAABYjwig+xg10AAAYD3YtWtXHMf1er1LC0f3IWgZlDavn1d6H8LMIWjVoYXDsizHcdZsDfSdd6rPfGb+y06cUHfdtcSPpoUDAABgvSGABgAAwJpWqVTK5XIYhpnZcavVUp1roGVW2kyTe2/hsAwqVbKh2badvkBqoCcnJ5977rlenrXy7r67pwz6q19dsgz6lluUZdHCAQAAsO4QQAMAAGBNq1Qq733ve6MoyhxzjuZ0aeGI49gcgu6+aWEnnVo4JH2WjQrNFg7HcUql0lreinCFM+hDh5SiBhoAAGD9IYDub3RAAwCA9eD2228vFoutViszO+5lK0Jz6nneCWhzd0HzZKetCPV5M4D2PM9xnDVbAy1WMoO++24Vx+rCahMAAAAMPgJoAAAArHWVSuXyyy9vNpuZLRyNRkNlzTWbIbI5Ad2phcMs3MjUqYXDHILWH9ctHJ3utkasfBfHEu5tCAAAgLWPALq/VavVkydPrvYqAAAAllelUtmzZ08Yhp1aOOTP7i0c5svElZm5c5wa1nVdNzOe1hPQjuOY1ziOc/78+TU+BK1WMIO+++53aqCfeOKi7gMAAIA+QgANAACAPrBnz55SqZTZwhFFkUxGd2nhSNRAywT0vCPPCXrGOfER82WhUNDHruv6vv/ggw/2eP9VtDIZ9OHDSikVx+8cAAAAYD0ggAYAAEAfuOGGG4aGhoIgyGzhkFTazKa7x8qJPLp3eitC8/5mDbTUdOhSDsdx1n4Lh1iBDPrwYTqgAQAA1h0C6P62bds2NiEEAADrQaVSueGGGzq1cEgq3b2FQ/c+Szrc5couzH0IzVFos/pZQmpJpV3XPXfu3Npv4RAr1sVhWbRwAAAArBcE0AAAAOgPe/bsKRQKmSmzHmeWeDpz/Dmx8WDmPoTzMoed9Rl1YTBttnA4jlMoFB577LFFPGtVLHcG/cQTSv5yCKABAADWCXe1F4CLUq1WmYAGAADrxK5du4aGhqanp4Mg8DzPfEtqoF3X7X0fwiiK2u22NGZ0+Ug6y3Zdt9VqmWcSrdD6npZlua7ruu6xY8e6frO15e67lVLqs5+d57KvflUppe6/f2E337FDKUURBwAAwDrCBDQAAAD6Q6VSKZfL9Xo9s4VDoufuLRxRFJlJcZdNC7tITEDrk/q8buFQSjmO4zhOH7VwiN7noCWt7t2OHaTPAAAA6wsBNAAAAPpDpVLZs2dPFEWZKbPenLBLrJyo3Yh7iEKtFDNr7sRs4bAsq1gs9lcArXrOoD/72QVn0Eopy1KWtZgPAgAAoO8QQAMAAKBv3H777aVSKQzDLjXQ3SegEy8X1wStB5xNZpuHeez7vuM4R44cWcSDVtcyZdAnTrxz8L3vLXxNAAAA6DcE0P2NDmgAALCuVCqVkZGRIAjSY85SA626tnCkR54X18KR2Rxt27bu9zBbOOTk5ORk3w1Bq+XJoKWFI47V449fxMoAAADQJwigAQAA0DekhaPVamWmzPpMo9HI/Hgcx4kh6C4tHImtBRNvpVs4dEeHvNQtHLZtO47j+34/BtBqmbs4AAAAMPAIoAEAANBPDh061KmFQ9dAd2nhSHRupFs4Ejlyp4Q6s4VDPiV/Jho5HMfp0wBaLU8GLTXQt9xyEcsCAABAPyCA7m9UcAAAgPVm165dQ0NDmS0cOoDu1MJhWVZiAloZLRxdRp7THMdJX6zPyIi0Dqk9z3McZ3p6usebr0FLnkEfPqyU0QcNAACAQUUADQAAgH5SqVRuuOGGMAwzU2adQXdp4UifWVD0LCRiTnwq0Q1ttnDYtj09Pd2/Q9BqIRl0Lx5/XMWxeu21i1wUAAAA1joCaAAAAPSZPXv2lEollVW1oceZdRKdEMdxIoPusmlhdzLgbIbXZh5tWZaZR8vLBx98cBEPWjt6yaA7t2oDAABgPSKA7nu0cAAAgPVm165dUgO9oBaOTrXOlmUtLoA29yHUNzdPOo7jeZ4c53I5x3EmJycX8aA1pXsGvaD0+ZZblGWpnTsvflEAAABYuwigAQAA0GeuvvrqcrncbDbTKXMURTqDrtfrmR9P7DqoOu802P1daeEwX6oLh6CV0cIh52u1Wl+3cIhOGfRCZ58PHVKKGmgAAIBBRwDd95iABgAA69ChQ4ckaO4yvJwOmoW5D6Hkwotu4dADzvpuiRpo/dK2bcdxHMd57LHHFvGgtebOO5MZ9CKaN+6+W8UxlR0AAAADjgAaAAAA/efgwYOdWjj09oNmrGwOJmdONC8igM7cujBxxrZtHVJLAH3s2LGFPmgN2rHjggz6IkNkWjgAAAAGGAE0AAAA+k+lUqlUKkEQZLZw6OPMFo44js1rRLvd7jQxLawUpZRt22YLh0r1ciilCoWCXCybFk5PTw9AC4cyMuiLSZ/vvltZljpxQj3xxJItDAAAAGsKAXTfo4IDAACsQ5VKZe/evdLC0Wq1zLfMGmjJlNNzypnn9acWJNHCoS7ch1AZLRxy4Pv+YATQSqkdO9Tdd1/UHQ4fVkqpOH7nAAAAAIOHABoAAAB96dChQ6VSSWW1Z+gouVO5c3oCWnXujO4uETenz9i27bquhN3SwnHkyJFFPGggHT5MBzQAAMCAI4AGAABAX9q1a5fUQLfb7UTKbM4yd2rhyByLTmTQZttGJ+nOjfRHCoWCnM/lcmqAWjiWkGXRwgEAADCYCKD7XrVaPXny5GqvAgAAYKVJC4fky+kWDn2cOdccx3HmeZ1cz5s7mxItHBJJmx/XLRxycpBaOC7eE08o+akIoAEAAAaSu9oLAAAAABZp79693/3ud1WqhUNqoGXTP2nhSDc1ZwrDMJ/PL3QZ6RYOCZoty4rjWM21cIRh6DiOrOrYsWMLfcqg2rFDKUURBwAAwMBiAhoAAAD96oYbbigWi2EYpruezZe1Wi392cwJaHMDw96lWzj0Sz0HLS0cam4aenJycqFPGVQ7dpA+AwAADDIC6L63bdu2U6dOrfYqAAAAVkGlUrnxxhsla060cJg5cmbW3GnLwU7n464pqe/7ZudG+li3cMiGhNRAJ1iWsix1992rvQ4AAAAsNQJoAAAA9LE9e/ZI9Jxu4TCPE++qzoHyIiagldG5oV+aM9HyUso3dB798MMPL+JBA+nEiXcO/vEfV3MZAAAAWA4E0H2vWq0yAQ0AANatPXv2lEqlIAgSKXOiTCOzhcMMqc2TnYagu7AsS2ac9e6F6T0MpYXDtm3HcSzLooVD27FDHT6s4li99tpqLwUAAABLjQAaAAAAfWzTpk2VSkWi5EQLh5lHpzNly7IyT6rFDkHLgLO+T6IVWifUSqlcLqeUmpycpIVDe/zx1V4BAAAAlgcBNAAAAPpYpVLZt29fs9lUqRYOM4/ObOHInIBW8wXQVged9iHUHMfxPE/Nxdy5XO7IkSPdv926IjXQt9yy2usAAADAkiKA7ntUcAAAgHXu9ttvL5VKKpUyJ/LldAtHogZal2Z0aeFIF2uYb3UfglYXtnAopY4dO9bpbuvQ4cNKKfXEE6u7CgAAACwxAmgAAAD0t02bNkkNtEq1cJizzGamLDlyHMedhqDT49Kq876Fmi7ZEJlD0OYBLRymxx9Xcazm+40BAADQZwigAQAA0N8qlcrevXslek4Ex1LNITJbODpNOmee7zL+LGzbNkPndABt27a0cMistOu6BNAAAAAYbATQAAAA6Ht79uyRcDmRMifanOv1urowR9YT0Ilw2Wzh0C3P8y7D3GlQfzBxjbRwyHnHcaiBNt1yi7IstXPnaq8DAAAAS4cAuu/RAQ0AAHDw4EHdwpGYeu7UwiG6tGoEQdBj7mwyp54za6AlodY10PV6nSFo7dd+TSmlTpxY5WUAAABgCRFAAwAAoO9VKpVDhw5J1pzo2UhsS2jG00qpOI7jOM5MmTNbOHqpgU6Ezomb6xYO+dNxHAJo7c47qYEGAAAYNATQg4AhaAAAgB5bOBIBtOqcKSemp3tntnBIGJ3IoKWFQy5zHOfYsWOLeMpgo4UDAABgYBBAAwAAYBDs2bOnVCrJcaKFw7ws8VJ13odQpYape5QOoNWFGbTjONLOIVe+/vrr4+Pji3jQQLr7bmVZ6sQJ9cQTq70UAAAALAUCaAAAAAyCTZs26RroRO1Goga60WiYH0xH0ubFi1iJTpbVhfsQ6gPbtl3X1TsW0sJhuvPOdw4OH1ZKqZ07SaIBAAD6GwH0IKCCAwAAoFKp3HjjjfV6XaVaOBKDzOka6E73jKJo0Rm0jp7N2Wd9nMvllFKu6yqlHMc5cuTIIp4ykHbs+P810DIKfdddZNAAAAB9jAAaAAAAA+L222/PbOFIVDknRp7jOO6UMluWlW7hmHcfQjWXLMsdMvcklB0I9VszMzPz3nO90bk9GTQAAEBfI4AGAADAgOjSwmFedvEtHNZ8bNvW4bJZCa0/Li0cuqxjcnKSFg7tiSfUhbs2kkEDAAD0MQLoQUAFBwAAgFKqUqns3btX5p3NFo5EDbRKtXB0SpnVRbRwmDXQmRdIC4fv+3Lxww8/vIinDKRbbsk4SQYNAADQpwigAQAAMDgOHTqkc2fpgxaJJo10C0eXeybS6h7pFg5lVG1olmVJC4fOqaemphbxlMHTIa5XigwaAACgPxFAAwAAYHDs3r27UChIvmxOLodhaE4iJ1o44jju0sJhxtN6a8F5me3P6QBaKeU4jud50sWhlJqenqaFY+fOeS4ggwYAAOg7BNCDoFqtnjx5crVXAQAAsPoqlcrhw4clek60cCSuNOeaLctKDEGbKbO0cJjRcy/7ECpjujkzgFZzLRwSQDuOc+TIkV5uO8Aef1zt2DHPNWTQAAAA/YUAGgAAAANl9+7dunxDH5hhtAiCwDyTKIlOuMgWjk5z07qFQ949duzYIp4ySHbsIIMGAAAYNATQAAAAGCh79uwplUpynGjhSFxpBtCJno3ElT2OPCfoFg45SN/Wtm3P8/T5mZkZWjjIoAEAAAYMAfQg2LZt26lTp1Z7FQAAAGvCrl27SqWShMvm4HN6ilnekvw3juMuKXMURd1HpDvRLRydmqNzuZxt2zIE7TgOQ9BqgRn0iRMrsCIAAAAsHgE0AAAABs2NN96o82KzhSPRBJ1o4ZAAulNSfJEtHHoUOnGBtHDIn4oWjjm9Z9C33EIGDQAAsKYRQA+CarXKBDQAAIB2++23+74vx2YLh3kszAA6/a4pMR/dYymH2cKhz5gXSAuHDEpblnX8+HFaOMSOHer++8mgAQAA+h4BNAAAAAbNpk2bMls4Go1G4kozgE7MRyektzHskbQ86yRapTJo3cKhlPJ9f3x8fBFPGUiHDzMHDQAA0PcIoAEAADBoKpXKvn37Mls4EleaLRxxHHfq39AXz/toK0VPN+sAWl2YQUv/hpR1WJb1X//1X/M+Zf3oseWZDBoAAGDNIoAeBFRwAAAAJBw8eFDnxbpbI3MvQTOAXlALRzprzsyvdfRsBtDKyKDNFg6l1MzMTA/fb734tV9754A5aAAAgD5FAA0AAIABtHv37lKpJMdme0Z6irnHFg7LsqIoMrci7LEGWhnTzel7ykEul9PHZ86coQZau/NOFccqjuniAAAA6FcE0AAAABhAlUrlwIEDOlzWLRyZE9DpWelO5r0gU2YLh5Dc2fM8XQPtuu7DDz+8iKcMth07yKABAAD6EgE0AAAABtPevXtbrZYcmy0c6SvNFo7MW+nx5Ha73W63O7VtdNKphUOTFg4ZlFZGXA6l1Fe/qixLWZY6cYIMGgAAoP8QQA8COqABAADSDh48mM/n5Vi3cGTWQDcaDTmYtwZaLXYIWsLlzABasuxcLie7ESqlzp49SwuHdvjw/z9gDhoAAKDvEEADAABgMFUqlfe9733pFo50DbRZEj2vdH7dC93CkfmuZVlmC4fjOEeOHFnEUwbSjh3v1EDrl48/Pv+nyKABAADWCALoAcEQNAAAQNp73vMenRfryWUzQdaJsA6g0x0didS43W4vIoOWFg7LsiRiTnMcx2zhePXVVxf6iIFnWeqJJ5RSascO9dpr819PBg0AALAWEEADAABgYB08eLBQKMix2cKRvlK3cPQSLl9MC0eX/uhcLqfj6ampKVo4tBMnlPxmn/3sO2fIoAEAAPoFAfSAYAIaAAAgbdOmTXqmWClVq9VUhxpoHU8n9iHMDIvn3bQwk4TLUgOdeVtp4dAXHzt2rPebD7YdO95pgjbLN8igAQAA+gIBNAAAAAZWpVI5cOCAzov15HJm47OctCwrc0TalBlhz0u3cHS6wLZtcwj6v//7vxf6iAH2+OMqnfaTQQMAAKx9BNAAAAAYZAcPHtTbD+ox58z4WLdw9NKwsbgWDt/3JYZWHYagc7mcHtmmhSPNstRdd11wZkEZNAAAAFYeATQAAAAG2e7du0ulkn6pWzjSV6ZLortMK6dnqK0eJCag0/f3PM/zPDmmhSNBEmTZh9DUYwbdyzUAAABYcgTQA4IOaAAAgEyZLRydOjQya6AzRVGkh6C77CuYIBm0WUud+GCiheP48eO93HbVTRlGR0enpqaW4ymHDqk4zs6R582gF1LWDQAAgKXkzn8JAAAA0M/27dv35JNPymRxFEWNRiOfzzebTTMIFs1ms1QqxXEcRZFOgTNZlhWGYfdrMnmel6jvsCzLjLwlgJZrZmZmFnr/FTA6Ovr444+XSqVTp041m81cLifrb7fbs7OzcRzPzMwUCoXLLrtsw4YNw8PDSqnt27c3m829e/dezHPvvrvbu5JB79yZ8RbpMwAAwCoigO4bTz755M0339zp3Wq1evLkyZVcDwAAQL84ePDgl770Jf2y2Wzm8/nMCeh2ux0EgWTE84bLYRhK9trj+LOQFo5E6Gy+lBaOIAjiOD5z5syxY8euvvrq3u+/TEZHR7/3ve+dPXv2+PHj7373u23bnpmZcV3XDPE9z8vn83EcVyoV6TOZmJgYGxuL4/jFF1+M4/jHP/7xpk2b9u/fv3379sUt48QJtXNnx3nnzAya9BkAAGB1EUD3hy996Uv/9E//9OSTT672QgAAAPrPpk2b3v/+9//4xz+WIWizhUMXLmutVsvzvMySaE0SZ2nhSI9Rd6eboBNFH/qMbdu+70tXtVLqG9/4xh//8R8v6BFL68EHH3zppZe2bt2qlHIc57rrrlvE3Lf8VvV6/Y033nj99deHh4c3bdr0wQ9+cKFJtOxAeOKEeuIJdfhwxgWJDJr0GQAAYNURQK91k5OTn//857/zne+Ym+cAAABgQW688cajR48mWjgyr9QtHL3cNgiChQbQSinP81qtVjrj1hl0oVCYnp5ut9txHE9OTi70/ktCRp6ffvrpq666auvWrbZtO45j28ktZHr8oWzbljuEYaiT6DfeeGN4ePiaa6656aabelzVZz6jHv9/7N15bFznfTf656yzz5Az3EeihlqtzZalmLKcKKLiOE7sNA0cNIbzItc28BYXFxdF8RZdcN8WtQQEbVO06GK0aYHm2rpNagSBEyex4xhyLKq2Y0teZMuSrJ0jkeK+DWc5c/b7x896cjwzHA4p7vp+EAiHZ86c88wof9Bf//x9js1wTSrFjh1jBw8ifQYAAABYFrAJ4XL3j//4j/F4/K/+6q9mvBKbEAIAAABMZ/v27YFAgP+o6zpjTNO08iuphcN13Vqi1ZI25xpRFFvlAkVR+AWZTObixYtzeMqteOGFF773ve9NTk5u2rRJkiRVVRVFKU+f2c0NGLnqtxVFUVEUupvP51MUJZfLvfXWW//wD//w/PPP17KwilPPFS9D+gwAAACwTCCAXu7+8i//8k/+5E+8/7xU0Zo1axZnPQAAAAArUSKR8P73ZLyFo+LFhmFUedUbs1KPR41TwN47TBdA081FUQwGg/zkm2++Oav734qXXnrp8ccfv3btWjKZpOhZluXaS65nTKLps8uyTCm8qqrBYFCSpI8//vjP//zPz507N+MjDh5kgsAEgXV317goAAAAAFhKCKCXu4qTJgAAAAAwK/F4fNeuXaZp0o/UwkEb5ZVfTPPR1WuguYp3mJF3xrkEpbeBQICqohljizYB/eGHH3700Ud79+4NBoMUPc/5VkIZ76uiKMqyTN+AIAiqqsZisWAw+PLLL7/22msDAwNV7vzUU58cIIAGAAAAWBEQbi473/nOd3bv3r179+79+/fX/q5kMokKDgAAAIAqHn30URptJpQyW5ZVfiW1cFSs1yif7Z1zC0eVSWFBEBRF4a+Oj4+fOXNmDk+ZldOnTx89erS+vl5RlFuJnqdTHknTKDR9TEmSgsGgYRjHjh37r//6r4mJienuQ/UarssOHZr3NQIAAADA/MMmhMvOt771rS984QuMsYX4vR8AAADgtpVIJGKxGE+cKTg2TbNi15lpmqqq1nJbauGg7Q1rRxGzbdt848ESkiSFw+FMJkNB7cWLF3fs2DGrR8zKhx9++Oqrr4bDYUEQFue/wOO5syiKtm07jiOKot/vF0Vxamrq+9///kMPPbRt27bqN0mnWSq1CIsFAAAAgLnDBPSys379+vvuu+++++7r7Oxc6rUAAAAArB7xeHzv3r3eFo5CoVCxZ0MQhGKx6LpujdPNs2rh4PO/POCebg7a5/Px43feeaf2R8zW5cuXX3nlFVVVaS57kSvgBEGQZZkmvmmXwmAwqGnaiy++ON3c97PPogYaAAAAYMVAAL0i/fSnPy0p3EAFBwAAAMCMPv/5z3s7N0zTnK4Gms6XxNPTJcW2bbuuW14xURF/Fw3/VrlzIBDgLckL18IxOjr6wx/+UBAEn89HGwMuxFNmJEmSoii0AEVR/H6/pmkvvPBCxU/d1fXJwRNPLOISAQAAAGBOEECvDAcOHHj99df5j319fT/5yU+WcD0AAAAAK9GOHTu8hRumaZqmWbEGmjFWLBZrnIB2HGcOTdDeIeiKRFHkq5Uk6dKlS7N9RC26u7tVVeV7Hk4Xsi8013UpfebT0IIgFAqFF1544f333y+5OJX6pAYaAAAAAJY/BNAr0t69e0+ePLnUqwAAAABYYaiFw3uGMuiKF5um6W1nrp7M0paGFRUKhbGxsQsXLvT29o6NjY2NjRVumpqaqn5/v9/PX02n01UWMGfnzp1jjFGH9VKlz0QURQrBJUlSVZVaofP5/A9+8IMq70ILBwAAAMAyh23uVqTywg1UcAAAAADUYteuXW+88QbfM9CyrIo10Iwxx3EMw6BiihlvW7KRYKFQ0DRtdHRU0zS/359IJNauXWvb9vj4OGNseHhY0zTGmKZpjuOoqurz+Zqbm30+X8l9QqHQ6OgoHdN759cLL7wgy7IkSaZpyrK8tAE0Y0wURfrrcBzH5/PRaLksy88///w3vvEN75XpNOvoYIyxrq7fNnIAAAAAwDKEAHpFSiaTyWTy5MmT2KgQAAAAYFa2b9/O02fGmGmauq6bpuk9yem6HolE2EyjwVQWcePGjWKxyBhzXTcQCCQSiU2bNvFrRFG0bdtbAOKVy+WuXbuWyWSampoaGxu97/L7/XTb8fHxixcvbt68eXYfuKpXXnll7dq1giDYtk3Tx+4SFVvQc2kfQsqdFUWxbZu6TU6fPt3R0bF7925+fSrFurpYdzc7dmxJ1gsAAAAAtUIFxwqGkWcAAACA2UokEqFQyHumSg10lZe4YrE4PDx85coVxlgymbzzzjvvuuuuzZs3JxKJkiurTFIHg8GOjg4KrC9fvnz58uVMJkMvhcNhftnPf/7z6ouZlY8//jgajVL5siiKPAKex0fMAX1LtBhVVWlTxMnJyePHj5dceewYaqABAAAAVgAE0CtVZ2fniRMnSdTJRgAAIABJREFUvGfQwgEAAAAwI6qB9vY+W5Y1XYOzbdtVyp2LxeLk5KQkSevXr7/33nsrhs5e1bf4k2XZ7/c3Nzdv3ry5vb09m82eOXPm+vXr3qFpb2f0rRsZGaH1yLIsy/Ic9lFcCIIgOI7juq7ruoIg+P1+27b9fn9vb+/IyEil69nBg4u/TAAAAACoFQLolQr7EAIAAADMzde//nWe6rquSy0c012saVrF1DiTyQwODkajUZ/PZ9t2jc0V0w1B0857/Ee/39/e3n7nnXfGYrH+/n6+FeHY2NilS5dqeVCNiykUCoZhqKrKGOMBtHDTfD2oFvQFuq5L/RsUQNOx4ziWZY2NjT3//PMl76LoeWF2ZwQAAACA+YEAeqXCPoQAAAAAc5NIJHw+n/eMaZremeiSl0pGg4vF4rVr1yKRSHt7O2NMEATLsmoMoKsEu6IoejNoEo1Go9Fof38/P/Pmm2/W8qBavP7667ZtFwqFQqFAOa9pmt4VCh7lbxcqmfNiKG6mr5G3cJim6bquJEnUDX3u3LmSdx04wFyX9fTM+bEAAAAAsOAQQK9UyWSys7MTQ9AAAAAAsxWPx3ft2uU4Dj9jWZZhGBUvLmnhGBoa0jRt7dq19CNFrnSrOQ9B8zfSJHLJ+UAgUFdXNzk5SSevXr1ay1NmdPHiRU3TGGOCIGSzWZoyNgyDPlF5lFxj1jy3DJoifu97Xde1LIv/HQmCoKrq4ODg6dOnvW88dGgOTwMAAACARYUAegUrr4EGAAAAgFo88MAD3iDYNM1CoTDdxfl8njFWLBYHBwcbGxtjsRh/iTJTmt5l02fQ3mi1SnorSZJ3CJruKctyLBbz+XzZbJbNawtHb28vbbFoGAbl74Ig2LZNE8dzHmee1TS0IAj822OeL6ckfeZ3O3PmTKWbsI6OuS0WAAAAABYcAugVDDXQAAAAAHOzadOmkhYOXdcpjS1nGMbk5GShUGhqaip5iQejvKajljnoKgkvD6B5/CqKoqIo9fX1hmFQBn3x4sUZHzEjTdOam5snJibox0wmQ8+iJFoURXrurTyiegbNvwHvKDopFover1EURdu2qRj67NmzJRfTEHQ6zbq7b2WxAAAAALBQEECvYCWlz+iABgAAAKhRPB7v7Oz0ntF1vTwJJblcrre31+/3l4fL5QE0qy2Dnq7pQpbl8psoiqIoSktLC2XQ8/LfwDmOEw6Hx8fH8/k8tS3ncjna+o/qsCVJUlU1Go3yLRDnYLppaH6mvD57amrKsizvfLrjONQW4rru6Ohoya26upjrMtdlXV1zXiYAAAAALCAE0CtYMplkjGEIGgAAAGAOtm3b5t140HGcXC5XfpllWVNTU42Nja7rGoZRkpbyINV13Vll0DxgLQlnaSvCkiicUmmfz9fQ0GAYRjqdvpUWjkwmc/78+fPnz9Marl+/XiwWdV2fmpoaGxvLZrP5fF4QBL4Mv99/izE0+3SFNI1Xy7Jc3iitaRr9pdACaI/EyclJiqSpqLrkzkuVOz/55NI8FwAAAGDFkZd6AXBLKIPmx319fUu4GAAAAIAV5POf//z3v/99b6Dp3WyQKxQK/DcuyqBVVa04v0ztyfxH13Vn7KCgieOS86qq6rrufS9VdjDGgsFgIpEYGxs7c+bMpk2byu9JTRoUMV+7dq2xsdEwjHXr1k1NTWUyGfqTrhwaGorFYo2NjWNjY6Ojow0NDYIgaJrmuq6u667rhkIhVVUpLJYkKRAI+Hw+XdcNw5huVHw6sizLskwhMn1FPM3nQbzrusViMZvN0hdCxdCZTMYwDBpOd103n89XzMEPHvykf+PYscXIo71/q888s+CPAwAAAFjpEECvbLQPYcl/QAoAAAAAM4rH4/v27Xv99dd5UlwoFCzL8hYfj42NNTQ00DHfb5Bn0OUBdMkj6M7T1T1TtXHFtwSDQdu2LcviM9qRSMQwjGKxqKqq3+8/e/bs1q1bM5kMXdDb28sYu379uvc+hUJhbGyM0urGxkY6z+eOm5ubR0ZGduzY0d3dPTY2FgwGA4EApcB+v592ZSwUCpIkbdq0acOGDaIoBgIBurOmaYVCQdO08fFxxhg/4I/w+/3yTYFAgHJnSsDpDpRx86UyxorFIk2g049U+uw4jmEY9O1RKF+xp/uppz4JoLu7FzyA9v5NPvssW7fukxJqAAAAAJgOAuiVbe/evU8//fRSrwIAAABgRWppaTFNkyfOjuMUCoVYLEY/Dg0NJRIJXsrMlcxBe8+XDEHPyJtBe6eh+R6APp+Pkmh6NRgMjo+P79y5kzH20ksvMc8UtiAIPp9PkiR6ryAIkUiEMUbV1bz7gl+vqqplWdFotLGxcXJycnBwUJKkUCikKEqxWKSsmTFm23Zvb+/OnTspRKbvKhAI0CRyMpmkG0qS5LpuJpPhW5LQQ2VZFkWRPlcoFNJ1PZfLeZtPCDVQ0wenng3HcUzT9DZEm6Y53UR5KsVqqN2eB+XPP3yYMYYMGgAAAKAaBNArm3fjwTVr1szLjjQAAAAAt4n9+/e/8MIL3jxU0zQKoDOZTCKR4DlsCZ5Bl5w3TbOk3JnyU29yWh5bVyzi8F5MoTZF4S0tLYwxipL5+YqpN4XFlBTzFNhbcBGPx996661169ZNTEzouj4wMBAOh+vq6igWb2xs9Pl8jLF8Pp9Opzs6OmgkWZIkSZL8fj81ltBxOBxmjDU2NobD4QsXLgiCoCiK3+/33UQr6enpuXjxIpU7e780XgwiiiKlz4wxy7LoEfQlUABdcQI6lfrt8cINQU/Xp4IMGgAAAKA6BNArWzKZTCaTJ0+eRAsHAAAAwGxRxFwSQNMBb5wgJa3HrutSl0X5BZZleaeSaSSZX1aSPtOMML2dYmi6jyAIjuM4jmPbNs+a+fZ9sxqy5g8t763O5XI+ny+fzycSidHRUcMw8vk8Y6yurk7TtMHBQUVRJEny+XzvvvtuXV2d9ybFYlEQhK1bt5YspqWlpb6+njFGoTPRdX10dPTq1at0wcjIiCzL9GELhcLw8DBjzLZtivUNw6C56UKh4P0INBNdHvqT7m528CBjjD311IIE0FXbvFdwBp1Of9Jekkot2XaOAAAAsOohgF7xeA20dxoaAAAAAGYUj8f37t179OhRfoa6j7PZbMXZZz6qLIpiMBiksJjPOIuiSGkyRcbeLunp8PppHuPyGNo0TarUuPWPWd5cIQgCjS03NzdfvXp1//79L774ouu6lmXRMHI8HuezxlQG/dxzz6VSKZ7/0sWWZe3atavk5uXR840bN/jkdTgczmazfFPEko0fqXPDNE1N07LZLMXukiTpuk7LCIVCFT8jH4JeiBS4lnuuxAyap/akq4sdO7Z0qwEAAIDVCwH0iocaaAAAAIA5++xnP/vGG28Ui0X60XXdwcFBURSnpqb6+/ubm5tpnjcajdK8MA3nyrKsaRoVK1NIyhhTVZXqKaarKvYq79zgZ+ieVaLn6fo6KqqYPtMjYrEYlTJfunTps5/97Ntvv00XTE5OOo4TiUQohack3TTNdDpdV1fX2NgoCAJ1aHz44YdXrlx58MEHqYLDa2pq6vz58xMTE7Is03Qzndd1fXh4uL+/3/tZaJGWZdm2bZpmPp+nJJqeomna8PCwdyC63ILWQFOsTBFzFSsug/amz4yx7m725JPsmWeWaDUAAACweiGAXvEw+AwAAAAwZ5s2bfL5fBSDBoNBxlg0Gq2rqzMMY2pqSlEUx3Gam5tjsRjVZVy+fDkQCPAiZn4fSnWpSYOf8V5DF9Cxt455DqoH3CW35RfncrlwOMyXQR0j1Hl95syZzs7OnTt3njt3jjFm23Ymk8nlcrIsx+Pxuro6Gnw2TXNycpIxlkgkeOVILpd75ZVXNmzYwEehT548+fHHH2ezWcaYLMvUK80Y03X9xo0bo6OjtEjvt0eT4IZhaJpGLSh8ulzTtIGBAf6hBgYGZvx+nn2WPfHEjFfNzurLoJ98ssLJ7u4FLNEGAACA2xYC6BWPAmhk0AAAAAC1u3r16iuvvKIoyqVLl3bv3u2NialAgw4YY8Visb+//6OPPrrzzjsTicTGjRtZpZC3JFzmB47jCB50z+lKmW8RDU3TroOKoqiqappmJBLp7+83DCMcDsfjcV3XFUVRFMV1XV3XGxsbDcMYHBx8//33P/OZz2zduvXMmTPsZhOIZVnDw8MTExOxWKyuro7i9fHx8aGhIVVVZVmm4WhFUTKZTCaTURSFj1ETwzByudzExMTY2JhpmpIklXw/xLKsbDZLDdTeVycnJ8fHx2v8+Ok06+hgjLGurvkPoNmqy6Cp+rkEVUIjgAYAAID5Jcx58gKWj29/+9t/8Ad/kEwmv/3tb7/22mtLvRwAAACA5WtiYuL9998/fvx4OBymrFkURUVReEbsvZj/qOv6+Ph4oVDYsmUL5bBXr15tamoKhUIlM87lcTM3v794U00HRcCqqnrbmfk1uq5TYj46Ojo6Orp582ZVVXt7e3nzcj6fP3fu3KVLlwYHB4PB4LZt2xhjZ86c4TUd7GYYrapqKBTiWxEKghAIBPj3Y9u2YRi0QaKqqoqiUB02vTQ2Nsa/Wx7x083z+TwVbpim6boubXvoOI6u62NjY8VikVo4vJtAnjhxYrrv5OBB1t29gF0cjLFDh2bOoBljTz213DPo6f7FB5qgAQAAYN5hAno1oH0IH3nkkaVeCAAAAMCydvny5X//9393XTcajfINA6fb688bIquqGolEzp8//5vf/Gb37t2BQGDTpk2O41AldEnQXNEtps8UN6uqSlkwj5srLpsfG4ZBBw0NDQ0NDdFoNBwOx2KxTCZDMTRlyrFYTJKk0dHRs2fPbtu2bceOHWfPni0ZVab9CfP5fCgUCgQCfr9f0zTKoG3bphJtatIoFovFYpGashVFoblm3vXMm51zuVw2m6WvzrZtiphN03QcJ5/P86aOWX1Li5Ccro456GefnfaldHrRVgEAAAC3i5l/V4blb+/evSdPnlzqVQAAAAAsa+fPn//bv/1by7JUVRUEQdd1QRB8Ph/zDNhSmizLsizLkiSVJMt33HHH7t27T506pWkaXea67qVLl6o/lyaIZ7VUyprD4TD1ZrS0tDQ2Nsbj8XA4HIlEfD5f+bB2RYIg5HI53k9tmiZjzOfzNTU17dixY+PGjdFotL29ff369aIoxuNx13XPnj2by+W2b9/OPF3VfP2WZU1OTg4MDPT29vb39/f29o6NjVExdPmVU1NTN27cyOVylmXR2Dh/NZvNUkk0naFI2rbtXC43NDRE6fOcCULp9nrz69Ah9tRTM192+PDyDaCroBYOAAAAgHmECejVgGqgsRshAAAAQBV//dd/HQwGbdumOWLTNEOhEI9xaZaZjqvkxcFg8O6776Ye5D179oii2NjY6DhOLpfz1kRwtUTPfLqZMebz+eigljeWZNDlb6FINxKJMMYcxykWi/wtfr/f7/c3NTUNDw87jqMoys9+9jOfzyeKYjqdDgaDn/vc506dOkWjzSVPEQTBsizLsorFYiaToSyebhiJRERRNAyDv5GHy1S7IYpiNpulKJzuZhhGPp/nbRu3iKLnhR7jpY7plTsHffx4tVcPH0YNNAAAAMwnBNCrQTKZTCaTGIIGAAAAmM6//uu/0oFlWd7CB0p7vXsDsuk3BqSkNRwOt7a2Xr16dXh4uLW1lTEmSVI4HJ6amip/S/mteFEyDVlPV6YxY7hc/S38epqAZjcjYDrmrwqCsG7durVr1/7nf/7nZz7zmY8++ohmpfP5/KlTpx544IGjR48WCgV2M3emQWb+LPcmy7JyuVwulxsZGaFXKVVnjNG8OX3tlmVpmlaS1PMwel4cOMC6u1lPzzzesoJUamVn0NVnnNHCAQAAAPMLAfTqQePPNAq91GsBAAAAWF7eeuutyclJWZZ9Pp/jOBSPWpZFr0qSREFqxbyY2qKprINramo6ffp0JBIJh8Ou64qiGA6Hc7lcydspYpYkqUrcPOdwORAIlFxWckbXdZpEtiyLUmBe3MwYk2U5GAxS+H7fffcxxoaGhmge2bKsfD7/5ptvNjU1+f3+8+fP05dTslTe0cHP0BQzFUPTGU3TvKPNFe8wjw4dWqS0d0Vn0NUjZmrhwBA0AAAAzBcE0KtEZ2fnT37yE0TPAAAAABUNDg6Komiaps/ns22bAmjHcQzD4KGtbdt8Z0JJkgRBUBRlug0GI5HInXfeeezYsYMHD4ZCIcYY1VAkEgnpJlVVSxJhv99fcp/qF5S8Wp44V5fL5Y4ePZrL5RRFYYwJgjAyMrJu3TpBEILBIH1Ysm7dutOnT+/cufPdd98NhUK6ruu6Pjk5OTk5uW/fvm3btr3yyis0Cs1VzI6989Hek1Uaq0ty7YpJt3edvb29a9eurf7BBYGlUpiDrqzKDoQcAmgAAACYRwigV4lHHnnkpz/96VKvAgAAAGA5eumllzRNo1w1Go26rus4DiXLmqZRRTIlpPX19YqiUPpJNcdVbhuJRD772c++9tprX/va1+iM3+/fvHnzjPHoogmHww888EBPTw//ILSHYXkOHovF9u/f/8Mf/nDPnj0ffPAB35vRcZxXX301FovF4/E1a9ZcuHCBv4VnxDxfrtiCXfFkyR2qXFASRhcKhRkDaMp5F2eMdyVm0LU0bFQviQYAAACYlcoDHbASYR9CAAAAgIree+890zQNw6CRZzqgZNO2bdd1qR+DtshrbW1ta2tra2trb29fv359e3t7e3t7a2trY2NjY2NjJBKJRCK04R5jLBKJfO5zn/vggw82b97MGBME4eLFi2NjY0v9iX8rHA5v2bKFipgZY6ZplqfPZN26de3t7YZhrF27lvqs6fuhbQPT6fTly5f37duXSCQowS+/gzeSLjl5K1UbJe/t7e2tfn1XF3Nd5rqLNMNLGfRTT8185eHDyyKAvnZt5mu6u9EEDQAAAPNGOrQcfgmCWxaNRk+ePHny5MlHHnkERRwAAAAAXn/2Z3/GGLNtmyqYbds2TZMPPkuSFAgEeE7a0NAgeFAwrSiKz+fz+XyhUCgUCkWj0Wg02tLSsmbNmk2bNrmue+3atYceeigWixUKhb6+vpaWFmq9WA4kSaqrq5MkiSqqm5qaprty3bp1b731liRJoVBocHCwUCg4jhMMBqnDmjE2Pj7e0tLS0NCgaVrJ5oG0RaH3RzrgJ0v2P+TKW6FLguySCzZv3rxnz54qnzeVqvLigqirY6kUq6ubeXCYLljadov/9b/Y5OTMl33960vwTQIAAMCqhAno1aOzs3OplwAAAACw7AwMDFCCSePPdNK2bX6s6zoFzYwxfrIiVVVVVW1ubt6wYcNdd921devW9evXr1mzhio4rl69unbt2vvuu2/fvn2api3sp5olVVVbW1tbW1tn/IAPPvigIAiRSGTLli20YaOu67wtWtO0S5cu9fX1JRKJXbt2BYNB/t5579+oqLm5OZvN1nKlIDBBYN3dc3jIXKygOegaR5tnLBUBAAAAqBEC6NVj7969jDFUcAAAAAB4ebe/KxQKNLfrOE4+n6dXbdvWdZ0xRhl0Pp/3TkD7fL54PN7S0rJhw4atW7du3bq1paUlHA6XPOX+++//0Y9+RMfBYDCRSCzOp5uV1tbWHTt2VMygHcfRNM2yrO3bt+/bt0+SJJ/PRxk0fWM+n4/vx6hp2o0bNy5dusRjaO/YMnFv8p659Y/Q2NhIf3HV8dx50QJotkIy6Fp2ICSo4AAAAID5ggB69UDzBgAAAEB1tm3zY2qFpuNCoUAHoiiaphkKhZqbm9evX3/nnXfecccda9eubW5uLg+dvZqbm7/5zW8+/fTTC7f4eaGq6qVLl0pO0pgz36hw+/bta9euVVWVMmhFUXRdd11XURRZlnmyTGUjFy9eTCQSd911Vzwe996zevVzLWF0xWv8fr/33yhMJ5X6pAZ6kXPe5Z9B1767IO3iCAAAAHDrEECvHslkEi0cAAAAACVc16XRZsaYbdvFYpEnm8VikQ6oZaK+vr6trS0Wi23YsGHGxLnczp07m5qazpw5M4+Ln3dnz57NZDLeMyXps+u60Wj0wQcfrK+vZ4zxOWi6QJZlv99fHkNfvnw5HA7ffffdtBljFTXOQVdMmRsbGxsaGvggdhXe8uJFTlEpg66l5XlJMuhZfRsIoAEAAGBeIIBeVTo7O/v6+pZ6FQAAAADLl7eAgm+jZ5qmLMt1dXWBQEDX9ampqbnd/ODBg8eOHZuHVS6Ys2fPen9ddBynUCh402d2M4P+vd/7Pdqz0efztbW1hcNhukwQBEVRAoEA32XRdV0q5fjoo48GBgba29vvuuuuNWvW3Mr4c7lQKNTV1fX666/X+C8GursXuwaaS6XYM8/UlEEfObLYGfSsijWOHFmoZQAAAMBtBQE0AAAAAKxmra2tfAKaMUbbA9LmeDQQTcfXr193HIey0TlvqtHU1HTHHXecPXt2Hta9MHp7e/kxpc88DvaWZlAG/ZWvfIUucxwnFAqFQiEeVVeMoR3HyWazPT0958+fLxaLmzZtoiSaN2LPuXlj27ZtX/3qV48fPz4yMrJly5ZaPikfgl6SFLXGDDqdXtTlzSqLT6VYKoUmaAAAAJgH8lIvAAAAAABgYcmyzAefbdt2HIdH0nwIWtf1iYmJ+vp6QRAMw9B13efzzeFZu3bt+sEPfrB9+3Z+ZnR01LIs6lCmuJb/ydPbxfGb3/yGMUYVHLZtUxZPStJnOrlt27br16+/8cYbjDFJkqLRqCAImqbxEgyKoUVR1HWdf5OMsUKhYBjGxMREIBCwbbu1tZV2K+nr6xsZGal9wcFgcN26de3t7Zqm0R6PHR0d+/btq+W9VAO9hCiDfvLJGWLfnp5FWg+rbfw5lWKPP866umqa4AYAAACoBQLoVWXNmjUnTpxY6lUAAAAALC/eCWjbticnJ2nHPFEUbdt2XZcah3t7e+vq6qjXeHR0dG47PDc2Nj7wwAMvv/zyl770JXpuLBa7cuUKv8A74UupNPNE0oyxUCjkui7VXyiKQgfzgkazp6ambty4EYvFstms67rZbHZqaoqOc7kcP6AeEtu2qZaEGp+j0ShjTNd1x3HoqzNNk2afJUkSBIFO0htFUdQ0Tdf1bDbLGAsEAolEYteuXXw9hUJB07RcLuf9TmzbbmhooOtDodDY2Nibb77Je6sfffRRWsOsHDq0NDv+zZhBL3JEXssOhMeOfapBGwAAAODWIYAGAAAAgNtLoVCgkFcQBOrfoOOpqalMJhOLxRzHGRoaampq4qO+3gh7Rjt27Hj55Zf37NlDJRV+v7+hoWF0dLQkeqYDCnC9zdQTExPll1EMLctySTDN/5wxpz579izvtv6Xf/kXv98vSZIoiiUfraQBQ5KkeDw+ODjIdwWsq6vL5XIjIyP01fF3OY5D09B0zPFrNE3r6+vr6+vjtwoEAsFgMBwO878FfmWhUBgfH6cfC4UCHXR0dKxZs6b6x/RKp1lHB2NsKYd5q2TQiz+gXUsFB9JnAAAAmHcIoFeVZDI558pCAAAAgNXK2w7BGNN1fXx8PB6Pu65r2zadpAx6eHg4Fovx45JU13VdHteWZNMUntKxJElf//rX//u//3v//v2GYeRyOeZJVyvG0NVfcl1X13VaeT6fn+4yVVVpdJovm/brU1U1n8/z9mfXdX0+n2VZ3kJnml+WJKk8apckqb6+nsfixWKRMVZXV6dpGi/xoPlox3FEUfTeh854Y2ivQqGQy+XoVZ5KG4ZhmqYgCH6/n93cNLKjo4Mx1tPTMzw8XPFWFaVSrKuLdXezpd0YsmIGvST1ICh0BgAAgCWBABoAAAAAVjlZLv2l17btiYmJRCJB9dCU2LquS1UPwWBwurlgXjFR/hJjzDTNTCaTzWZN0/zwww/379/PGLMs6+jRo83Nzd7p3dqj51ouY56Qmkfew8PD+Xx+ZGSEQltJkurq6ig3p+4R73spjKaknhJkegsF08FgUNd1asywbVsQBFmWg8Gg3+8vFos8hqbaDe+q6Jt3HKfk3wHwKenyj0ALo3IPWZbj8XgoFOqZa1Py0kbPXEkGvSTp87PPLsFDAQAAABgCaAAAAAC43VDuaRjG5OSk3++vq6uj89R9fP369e3bt1MYWrJJ4IzRM7VG0PlNmzadO3du69atH3744eDgoGmaFEDPe/TsjZuHh4enmxF2HGdycjIWi1HzxnRfDvPk0fSnIAiiKKqqmslkeGxNc82iKAaDQVEUKbinTLn85jQfXfJjSfps23axWBQEgY9CO45TX1/f399fZam1O3hwucxBL5NMHAAAAGDRIIBeVVDBAQAAAFCuZAKadz7Ytp3P5ycnJ+vq6ngeOjk5SU3Quq5ThUWNI88lL9XV1b333nvxePz06dOMsbGxsdHR0UQiUfE+tUfP+XyeMTY8PJzL5arEzRU5jpPJZKj9eVbvMgzDtu1QKCRJkmEYFExLkkQH9BItrDyAdhzHLZv49QbNRJKkYDBIexvyk7P6dNM5eJB1dy+LauNUainT51p2IAQAAABYCAigAQAAAGCVW7t27eTkJP+R8lDbtmnAeWpqyufz+Xw+erVYLF6+fHnPnj21tG14R55LRKNRVVV/9KMf1dfX05nx8XEKoGuPninVHRoamkPcXIJvulgsFkVRrD4ETSzL8n4JoijKskyzz5ZlGYYhCAJVQguCQBl0yRA0TTqXfC5BEKb7Yit+k7fo8cdZdzeba4fH6lHLDoQAAAAACwEBNAAAAACsciXDtiVs29Z13TRNapOQJEnX9UuXLm3cuNG2bUmSahx5Jt4z69atO3XqFA+g+/r6Nm7cWPFKVhY3Dw0Nzcv8b/na6POGQqEql9m2zbco9FIURdd1auSQZVnTtEKhQC95M2geQFN+XfJJRVHkN1+IxLnEE0+wJ55Y6IesAKkUNiEDwPfSAAAgAElEQVQEAACApYEAGgAAAABWudbWVurBINS2YVkWH8W1LEuW5UKhQBm067ojIyOxWCwej/MsdcaRZ9d1aRy4WCzquk7HiqJIkkS1EpqmjY+Px+Nxejt1N/Pp5qGhoQX+Gn778TVNqxhAU/uztwSjBG0/aFmW4zj5fN40Tb/fT+8yTZMyaB5Jl4+Qs0//y4Dq8f38EgSWSt3Wc9DHjrF0mqXTrLubHT+OgWgAAABYPAigVxV0QAMAAACU4zPIXMkOeBRAO45TKBQmJib8fr8sy729va2trbFYjI88F4tFSpkJY4yCZtd1aRe+cuFweGJiIhaLUbTa19d37dq1oaGhkZGRhfmsM6OVlyhp26iIB/fFYpGnzIwxQRAURZFl2bZtx3GCwSBNSZd8ycTbznFLH2M2Dh1ijH2SvXZ1Ldpjl51UiqVSn3wDVf+rAAAAAID5hAAaAAAAAFa5+vp6n8+n6zo/U7LZnbeDOJ/P02zy6OjoyMiIqqq6ruu6Xr3HYzp+v//ChQt79+6lm1+7dm1wcJBeohvy7fgomRVumtsnnRHtKMh/LG/boNTYtm3qGKFOZ0qWve8q73Gm4WjGGIXR9B3y6/k1JWeqm6+Q+okn2OHDbBETbwAAAAD4LQTQqw0NQSeTyaVeCAAAAMBy0dra6vf7vQE0Y8xbQ0w5rCRJdIbSVcuyJiYmVFX1vsubGtcSE/v9/mg0ms1mI5GI67qSJPEonNJVnrGWFF9Ml0rXsnlgFXxyOZ/PC4JgmiY9l74NCp1nRCPP3iDby7IsKrOu+MbFHHzmUimkzwAAAABLBgE0AAAAAKxyyWRSURTvmfKZXNM0JUmihFSSJMdxynfPY2WpMft0Olwxko5Go1S4EYlEbNuORCIlUXhFfMPA8pfmPDptWRaP3WmHw5I8vfZ0WxAEVVXLM2hN0zRNY1Wz5tmeny/03Rw7dlu3cAAAAAAsPgTQAAAAALDKJRKJksyXCiWoSoLOeFs4eMUEP65y8/KcWvBgjPn9/nQ67ff7GWORSIR6Km7FnEenve3PlmVVjJu9bxdFsUquzTckpB8dx8nlclVmqEtuUss09DxG0nzPvSNHEECzdLry+VRqMVcBAAAAtwsE0KsNKjgAAAAASrS2tpac8XZA8zDacRxvSMoz6Nk2MvNOD8aYYRiO49D8dTabLRQKiUQiGAx6N/GbX97RacdxTNOkPy3LUlWVx9+KolQcr/a+nV8wXSpNpSWWZRmGkc1mS27FI2b6s8YC6AWq6ejqQgsHAAAAwNJAAA0AAAAAq9+BAwdefPFF/iOFzpqm+Xw+KtzQNC2fzycSCR7R8gB6xpvzrJkf8G4KimuDwWA+nw8Gg5ZljY6OhsPhBQqgHcehWW9KnEtetSyL91zPynSpNG1RaFnWjB9nDtsqLklbNAAAAADMOwTQAAAAALD6lc/n0l55xWJRVdVgMEgnx8bGmpqa+NSzKIolMag3aybT7cVH0TMdy7JMATRjzDTN4eHhWy/iYDfnuC3Loi0TyxPnEq7rGoZRsq3i3B7KZ6vppCRJrge/mI8z1xJAe9+4EOlzdzc7eJAxxp56ih06NO+3BwAAAIDKEECvNlTBsdSrAAAAAFhe9u3bd/z4cf4jVWTYti1Jkm3b3j7lbDZbX1/Pf9R1XRCE6llzCW/0TGRZzuVykUiEYmJN0xKJxGyHkXmzB003zxg3V7wD/9SzGkmmuJkxVmX7RF4VXZ5Elzxrxk0Iyw/mBS84PnIEATQAAADA4kEADQAAAACrX8XklBclUybLGHNdN5vNSpIky7JhGKZp8qbjWpRHz160B6BpmjwFnu5KHrzySo25Jc4VmaZZcfvBErWEzhWVJNElzdpLKJVCDTQAAADAEkAADQAAAACr3z333BOLxTKZDP1I5cUUjNKAszcOzmaziqLwFLWW+1ePntnNTf8kSSoWi97813t/WhXFvvOYOJdwXXe6DJqeTrUeM96Hb97Ibq6c35+/JAhCednIrcw11xKd1+LQIQxBAwAAACwSBNCrTTKZ7OvrW+pVAAAAACwv9fX1Pp/Pe4YCaNu2RVHkG+uxm3O7lmUpilLLnaeLnilmpdplOrAsiwo9GGO6riuKwhPninGzd1W1HE/3kuu6NMXsOI7f72eM+f1+v99PYW5J6FxLrMxPTofGxmfbc70Iuw6m06yjgzHGUikE0AAAAACLBAE0AAAAAKx+uq6X5KEUd1qWpapqeaJKeTG9he9JWMLbNcFPUmhLea43U3Ych2afaV++TCYzNDREL/GkuCRNvkW88Zl/OkEQcrkcYyyXyymKIsuyZVk8Vi6vbJ5tdYYgCKIo1p478y0Kazx/61Ip1tXFurtZOr0QtwcAAACAChBAAwAAAMDq19raun79+v7+fn6GYmXKfCmrlSSpJEqerqmZR8/8yhl7MyRJymazoVCI3lj7loazRZ/FsqwqGa7jOIVCofZ7liTRFRNqVVVVVZ3lYmewEDH0sWPzfksAAAAAqAYB9GqzZs2aEydOLPUqAAAAAJad5uZm7498f7xisej3+71ZM89VHccpKR2m6Jmy6fIx5yokSfJuxzdfXcaEQmfGGOXgM7Isa1bTzSVBsHdcmjEmCAI1XOu6PmPzxiL0bNTo4EGE0QAAAACLAQE0AAAAANwWQqFQyRnKoIvFImOMxp8dx6HZYWqTEEXRsixJkiiupXjXMIwZS5Ar8ma+8xJAl5ds1GLOextWzI4lSaLgnndnU612jQ3a1W++QA4eZN3dLJVatAcuno4OduzYzB8NDSQAAACwmBBArzbJZPLGjRtLvQoAAACAZaerq+tnP/tZJpPhZ/iAc7FYNAwjEAhQDKqqqndUeWpqalbtzOVxMJ2xbXu2rcoVUe5c47Bz+UpoMbX0LFe/gHYa9CbpfN9F3l5SHkPXEjQvXAc0efxx1t3NenoW7glLg/7PRZPdc4vXV2UoDwAAAEsOATQAAAAA3Bbi8XhJ/stTTopldV1XFIXST767oK7rcwtDXQ/+FKr7YLOfgKbQmYLdOSyGq/722j8p1W5Uv2a2Q9Ala6i4mFufHJ+cnHzkEfH++zNnz04xxrZv336LN1wm+P+10+lbyqABAAAA5h0CaAAAAAC4LdA+hO+//z4/QxGn4zj8wDRNRVH4j7NtqygPnb0cx5mamsrn89FoVFEUURRnrM6YW8nGdPgn9d5/breixZfEwTy4pw0JaRS69nvO19Tz5OQkY2xgYMA0zampKUEQpqamMpnM1NQU/civjEaj0Wh07dq18/LcJVQyWI8MGgAAAJYVBNCrDSo4AAAAAKbT1dXlDaAZY6Zp8hSVgmPTNGVZnlX6TG+sJU0WBMG27ampKb/fXyVvpYnsuZVsVHm6d/x5upS8RnQrCnN5XzYd+/1+vp1jxWVUPF9jVO19+/vvvz8wMDA5OSkIgmma2Ww2k8mYpqnreigUCofD3jfyZJwOaIW2bb/++uvf+ta3ann0slWx1gUZNAAAACwfCKABAAAA4HZR3rdAsSxFqHTGcZxsNuvz+WS52q/KMw47UyTN25+Zp5LCsqzx8fGShHTOJRvezgrvYqp0WdQyfD2rBdDdVFUNBALlC6hiVnXPkUjk3XffvXbtmizLAwMDoijKshwIBPhQcywWq/gI+tP7t8xls9n+/v62trYa17DcVCkVRwYNAAAAywQCaAAAAAC4XbS1tUUikWw2W3KeIlQaf6bBZ8uyVFX1+XzTbbLHbg7tuq5Lb+Gb7033dAqg6RE8jJ6uZKMkSq4xWV4ctP2gt8uCvquSyxZieaZpmqZp2zZv9C7/wilrZoyJoljLro/vvfdeW1vbwMDA0NDQrl275n3NC2fGD4cMGgAAAJYDBNAAAAAAcLuIx+M7dux46623yl9yXdcwDP4jbRhoGAZFq/ZNjDHbtmfbbswYE0XRtm3LsiiWlSTJMAzTNJckWb7F8Wfv8ipGzzW+t/r58jNtbW3Nzc20eJ4sF4vFYDDIC0D4vzAoj54rnhEEYXR09I/+6I9c15Vl+eTJk1/96ldXykB0Tw/r6Kj0Quq3h2nGDj7JnnnmUxl0evp7Vnmp7N4AAAAANZnFf/IGK8WWLVsuXLiw1KsAAAAAWI4GBga+/vWvL/5zRVG8xdrlZUWSpEAgoKpqyXlvyFtxGLy8WZu+Ex7N85Pl4+Rf+9rXmpqa+OA5XU+t07f0YRjTNI3vqbhly5YvfOELt3jDRZNOl2XQKcZ6ZnpbN2MHK53vYuzYDG/tQQYNAAAAs1RaggarQGdn58mTJ5d6FQAAAADLUWtr62OPPbYkj1626TOVKVfvvOZXBoPBWCxWX19fffD5Fj9sxeoMKsqQJEmWZV7SPYdp9HLerpX+/v5bvNtiSqVYz4xxMwAAAMCSQgXHKtTZ2XnixInOzs6lXggAAADAcvToo4++9NJLU1NTS72QxdPa2vrwww9v3Lixubn58OHDX/ziFwVBOHPmzMcff2wYBhVSu64riiJVVHubr+nYdd1gMOi9Z/X9Ayu+NNvrveg/8guFQjRLzhhTFEWWZaqELt9dsGSp1R8hCIKqqlSuks1mL1y4sGXLlurrWT4og67cxbHCdbPuNEszxlKeqWs6TmEOGwAAYOVAAL0K7d279+mnn17qVQAAAAAsU62trX/6p3/6F3/xF4v2RJ6ZLhCaSg4Gg21tba2trdFolDFGx+T5559Pp9OnTp0SRbG9vf38+fORSGRiYqK5uXlgYIDXWYii6PP5VFWVZdkb6TqOU3HKWBTF8r0Ta9n3r0QtaXUkEunv77/jjjskSaIdI6nBubwGhCtZScUYWpIkxpiiKLZtm6ZJF3z44Yd9sY4mv9jsF5v8K+C/GV2tGfST7Mn0TK3U5dm092AdW1dy5gn2xLytDwAAAGqDAHoVSiaTN27cWOpVAAAAACxfe/bseeCBB44ePbo4jxNFsbz7uHY0etzW1hYMBltbW2OxWGtrazAYbG9v52e8109OTn7wwQeZTEbX9ZdffjmbzVqWRUEtxa+JRCKfz+fz+YMHD/7sZz8zTZNyWEp1Hcfh1xNKqCsmy+Vz0PTjbCegZ5TNZvv7+1OpFO00SLdSVVWSJFVVp6am+M35Oqmjgyo76APSMT9wXZcOZFkeHR0dHx9nN/eHvPp3//zr5JbhlvbhlvYmv3h/i7qjXtlZt3z/6Wl2GXR6urvM02oWkTehnjGtZowdZocfZ48fYocWbEUAAABQavn+CgVzRgH0jRs3ksnkUq8FAAAAYDmKx+N//Md/PDk5+c477yz0s7zpc8XaCsqXW1tbQ6GQN1+OxWIbN25kjK1du7bGZ01MTDz77LO2bcuyLAhCOp2mYg3KWGlkOBqNhkIhwzCy2ezw8LAsy5qmUarLbmbEtAGgKIoU5vJ9/8oz6OpFHDWqeIeSZ0UikWw2WygUGGMUOvOI3DTNQCAQDAYpZaYPWz0BFwRBlmVVVfmZYDA4Pj5Od2CMfe2X/2/zxx/T8XBL+68ffOyfHnyMpVL3t6iPdQRu8fMukE8y6LLdBY+VBcvdjD1Z6Q5djD1TdnKVzVWnWfowO8wYQwYNAACwaBBAr06dnZ0IoAEAAACqqKur+853vvPjH//4P/7jPxboETzNpONkMrl27dpwOLxly5ZQKBQOh1taWmKxWDQaLRlhnptXX321u7s7Ho/Tc0VRpOiZMTY+Ph4Kheiy+vp6RVEMw3BdN51Of+UrX3nppZc0TWM3g2ZCAbR3iz/KamvJoGcVSU9X2eG9ye/+7u+eP3+eMVYoFOLxOA/E6RrDMFRV5R/Qe9uSlXiz+JLFK4ri/fsauuMOHkA3DV5/7Mh3Hzvy3eGW9uce/7P/+bv/4w+3hpbnNPQnGXTJyZonm8uvTN/ykmaFRpjTLM3/t0APOsKOIIAGAABYNMvx1ya4ddiHEAAAAGBGdXV1v//7v9/e3v43f/M3NFp7iyRJ8vv9giBomkZDuLZtO46jKMru3bv/+Z//+dYfMZ3f/OY3L730UlNTE80pK4ri9/vpJdd1A4GAJEmU2AYCAUEQGhoaVFUdHh7WNO3hhx/+5S9/qWmabds8hKXouaS92jsEPYfB5+neMt15etbXvva1tra21157jTHm8/l4Wwh/l+u6lmVVTJz5ailf9hZbl1R2KIoSCAQoiGeMDW3dyn7605L1NA1e/8Pv/t+//uCNf3r8z+6/d/OyHYVe5kry5Wvs2kLHzdOtATsZAgAALA4E0KsT9iEEAAAAqNGDDz545513/t3f/d0bb7xRy/XBYJC6MlpbWxljdEClFi+++OLQ0BBjrK6uzrbt1tbWtra2ZDLZ2tr6la98ZUE/xZEjR2RZphxWURSfz8duRqtUr9Hf39/W1kYDvwMDA4lEgho53n777S9+8YsPPfTQyy+/XCwW+RZ/FQNotpBFHN67McYcxxEE4eDBg21tbceOHctms4yxhoYGQRAkSaIBbb5zoG3blmXx0Wa+GF7xXPIRWNmItCAITU1N2WyWmqBzjY3TLe/+V57b+eGbv37wsf/5f/4/f3V3ZEXsUrjISgaZGWPH2XHGWDfrXsplAQAAwBJBAL06YR9CAAAAgNq1trb+/d//fSaTOX/+/HvvvffOO+/EYrF8Pu9tZG5ra2ttba1el/Hwww8v5rK57u7ufD4fjUZ1XZdl2efz0SwzD6AjkQgNZTPGRFFsamqSJCkejw8MDOTz+V//+tf33nvvQw899Morr1iWRWPCjuN4Gzm4WnYjnHMYTbUhtm3rus4YO3jw4JYtW37xi1/Qb7YNDQ2BQICeRRm0IAiGYdB7qfma30dRFG/FM/t01lzxWFGUSCTCGBsfH883NAxt3cpbOEpQKQdj7H/fxhn0chhknrMn2BMYfwYAAFg0CKBXp2QymUwmT548iRYOAAAAgBrFYrG9e/fu3bt3qRcyaz/60Y9os0HXdRVFoQPbtlVV5WFxLBbjBRSCIExOTm7btq2/v18QhHw+//bbb997771f/vKXX3vtNWojoWSWb5/oNV0GPaMqwTRFz4wxnj5HIpFIJPKLX/xiYGCA3kiz5/wj0LA2v4Ou64FAgOadvZ90xtzZe6yqajweDwQCN27c8NZAV3R7ZtBPsie72bNLvYpbkmKpp9hTS70KAACA2wgC6NUMNdAAAAAAt4OrV6+Gw2HLsmzbNgwjGAwyxiiE5QUUlmUNDQ01NzcLghAMBjVNa2xsbGtrGxwcZIzxDHrHjh0XLlzo7++nO0uSVFdXx8us+e5/FZcx5yIO6qdmN9PnSCSyZcuWZDL54osvei+LxWL19fWf//znefydz+ffeOONXC5HT7/33nvp/GyXYdt2sVg0TTOdTguCEAgE1q1bN3bnneU10CV4Bv0f++ZhG8mFlk5/8ufx43O/yYqu0Uix1OPscWw/CAAAsMgQQK9anZ2dJ0+eXOpVAAAAAMDC+uUvf5nP56mPIhQKaZoWDAaDwaAsy47j2LZNY9HhcLi3t7e5uZneFYlE2tra9u3b99ObGWs+nz9x4kRHR8dDDz108eLFixcvDg4O2rady+UikQjF2VQMbds2Pa7iemoMf71v5+mzqqo7d+685557Ll68yNNnfsNIJJJKpWRZVlWVzgQCgQceeODKlSunT5+2LIufr5HjOJQ7U4+HIAg7d+7k2zAWIhF2+PCMN3nsyHeHW9r/qe7xP9wamtXTF19Hx1KvYClQ6NzFurpY11KvBQAA4DaFAHrVeuSRR34608gGAAAAAKx0NMJsGIZpmjQEnclkotEou9mV4bquYRiyLK9Zs4bHvqqqWpa1efPmVCrV19dH5wuFwunTp9PpdEdHx8MPP3zx4sVLly6NjIyYpqkoCvMUX9BGhX6/n7YrpHvSAS/o4H/SgWEYhmFQMzUPeTnbtil6zuVyx48fv3DhAn+Jbtva2hoIBFKpFBWD8LrnUCi0YcMGxtjp06dzuVw4HJ7xG3McR9f1YrFIn8L7Ek+3JyYmTo2P39fc7B8amvGGjx357v/+3f/x0aS1sw7/eLUsIHQGAABYVvAb0mqGfQgBAAAAVr2BgQF2M1Q1TdNxHEEQNE3z+/2CIDQ1NbGb1RaGYezYsWPDhg25XC6fz1+5ckUUxd/5nd/5t3/7N7qDYRhUCX3mzJmenh6KoS9dutTT05PP5ymxpYJmIgiC3+/3LkbXdU3TfD4f7RbolclkbNvmpdKUSkuSFI1GN2/evH79ekEQXn/99cuXL9u27X0jZcT19fX8jXSBN4O+8847Q6FQPp+vEkDz3JkH5RWvoYOenh7XdbWWlloC6KbB648d/r+e++t/33l3ZMaLoTraG7CLda1j6/iPT7Ina3nj4+xxxhgaNgAAAJYbBNCrVjKZpBYO1EADAAAArGKnTp2ig2KxqGlaNBpVFEXXdUVRqFuZKqHj8fju3bslSQqFQrSVX0tLy8mTJ9evX799+/YzZ85QDQXHY+hUKvWlL30pl8sNDAwMDg5ms1mauaYnMsYog3YcJ5fLUb6saZqu66FQiOamGWMTExPeWDkSiWzevLmtra2trY0xdvny5V/96ldU5cw+HQ3TsaIoDQ0NjLG6ujo6b9s237eQbNiw4eLFi7xjhDiOY1kWVW14c+fp/qT1v//++5OTk4yx4qfvVsX9rzz36wcf+6jjKzUOQfM65q6uGp+wUFIs3cW617F0FzvelWaMHVv4J6bozxRLUcpMc8rTTSunWbrKrVIsdYAdeII9QbcFAACAZQgB9GrW2dmJfQgBAAAAbhM0wkwNGJZl0c6BhUJh48aNiUTC5/MxxsbHx/n1fr+fCjEeffTR4eHh3t7e8nvmcrmPPvro7NmzoVCoqalpzZo1HR0dlBRTHp3P58fHxyVJymazJYvJZrM0Ck3j2OvXrw+Hwzx0zuVyV69ePXv27NDQEO1wWOWjNTY2iqK4a9cuURT5laZpqqrKS0V+/OMfU65NT6dCEgqUa9+T0DTNnp4eSp8ZY1pLS41vZIzd/8pzz3V1eYegKWXu7v7k4No1lk5/8j9uTrs2zo8USz/FDj/Bnv3tqXRq/m6e8kbM/Mc5xMQplupiXd7ND9GwAQAAsLIggF7N9u7d+/TTTy/1KgAAAABgMdAMci6Xq6+vp8lfWZbvueee5uZmXnYcj8cdx6HBYUEQUqlULperq6vr6OgoFosjIyO0zSCfLOZpbz6f7+np6enpOXnyJIXRjY2N+/fvZ4yVRM9e2WxWFEWaSs7n8/l8fmhoaHR09PTp097LSgLikglon88Xi8UYY5/5zGdkWaYV0l6IlEEzxn784x/39fXdcccdY2NjkiTR6HftXx0fgrZtu6enh5+ZvOuu2m+y88M3nys6Bw8yxlh3d+3vWxo9rCNVPlmcTrPu7hqnsvkg8wF2gN2MmNn0g8y34gA7kGZphM4AAAArFALo1SyZTKIGGgAAAOD2kc/nTdMsFAqBQEDX9fb29mQyyRjjoa3jOMPDwy0tLRSw+ny+0dFRv9//jW984+c///nbb7+dz+f53cr36ONP4WG067pU6MEYowP+YzAYpLLp1157zfv2kopn9unEuWQU2nXd9evXU8q8fv16dnMjREmSZFmm0emjR4/29fUxxkzTPHPmDN2N3qKqKtWAqKqqqqrrunSGjllZ9l0sFr07HM5K0+D1prf/+4XJr4x9sEz/Ict12c15cZZmqQoBNGPs8OHqAfQz7JmuOQ0y34pD7BCanQEAAFauZfq7EcwL+ucN1EADAAAA3CYsyzJNs1gs+v1+0zT37NlD53loa9u2YRgfffTRzp07GWONjY22bUciEU3TNm7c6PP5fvnLX/JktnotBscza294TXcoz69rOeN9KRqNRqNRx3G++c1vlj/36tWrp06dol6RcDjsTcypjYRvmVjeK80Y80bSjDFFUVzXpantaDTKGCvU3AFNHvv/vnv8/+j6zQcrYCvCI+zxLk+pxW95+0Eq6WJdqflfDgAAAKxmCKBXOcqgAQAAAOB2QAF0Pp+vq6tzHOfEiRMPPvggbUJIJElqb29/7rnnKIAWBKG1tZUxFg6Hv/zlL3/ve9+755573n33XVEUvXPK1Ctd/jg6P12CXGMJRvX+Df7bLI0/M8aGhoaGhoZ4iQcP1gOBAH0DNL9cMXEuOaZ4OpvNjo6OTk1NUZdIQ0ODz+fL5/PBYDDa3Kw1NweGhmr5IIyx5sHeQEtNqT0nCEtTA51OdVXe2282LRwAAAAAtRBnvgRWMtqHcKlXAQAAAACLhHbe03VdEITR0dHXX3+9UCiUXPOlL33J++O5c+cYY5FI5Itf/KKqqmvWrKlx9rm6igH0jBPQ3h8jkQhNIu/cubO3t/ett976wQ9+cPTo0ZIKaWqs9vv9FW9S8VjX9b6+vo8//vjkyZMffvjhjRs3SpqsLcuampoaGBgYDYdr+rQrxLFjzHWZ67JjPalpU+YjRxZ1TQAAALDaIYBe5fbu3Xvy5MmlXgUAAAAALBJN07x/FgqF8gw6kUi8//77/MfGxkY66OjoCIfDyWRy3bp1tTyLSjYqDkfPmTcvTiaTtDFgsVg8derUlStXqlxP+xOapjld+lwsFil0PnHixAcffFAeOhNd1/m7rl27Zplm7YtvGrwenOUE9CL7VOZ84EDli5b/FooAAACwoiCAXuWwDyEAAADA6kbzv1yxWKTQ1rZt0zQZY7QnYcm7aI8+wgPo+vr6+++/33Gcjo6OVCrFL6ixTKMW1SegvcfxeDwQCJimSS3V1F5tWZb3YrpeUZRwOFzxzjTpfO7cubfffptC56mpqVrWaZpmX1+fpmkTdXWz+oDLP4P+rSeeqHyeWjgAAAAA5gkC6FUumUwmk0kMQQMAAACsVlR5zBmGwRijANowjEKh0N7eXv6u5ubmixcv8h9HRkbooKOjo6OjozyDnk71bLqW5LpiAB0Oh9etW0c/0hw04TF0ybv4j1SdwUPnU6dO9XoNyekAACAASURBVPX11Rg6Ewruh4aGaIp8Ihqt/b0rTAotHAAAALAYsAnh6kc10J2dnUu9EAAAAABYcKZpapqmqir1UTDGtmzZUlKU4bpuXV3d2NiY943nzp3btm0bDUE/99xzjLGOjg7GWDqdnjFHrrIVYXXTFUDT1ogkkUiUXGPbtuM4giBQ+K6qqqIo9OrExMTly5cZY6IoSpIkCELJhPiMLMui9JkWM9sJ6OGW9sJg6RMpyU+lWCrFqN2Ejul/Cy09/UupAwcqDzt3d6dnei8AAABAjRBAr3579+59+umnl3oVAAAAALAgksnk9evXvWeoxZjy02w2GwwGGWM8g3YchyaI16xZc+HChaampvr6et7CwRhbv359fX39yMiIqqqUQV+7dq38uXNInMuHnSvudrhp06ZwOMwYEwQhkUj4fL7ya+iNjuOIoigIAt+BkJJ3dnMGnE4KN1WPpOmNxWLRW5k9EYvN9mM+9RRjixsxV3dw+pdSTzzRc/hwhRfS6Se7u7unm48GAAAAmA0E0KsfaqABAAAAVjFvLTIxTbNQKNCk8MjIyK9+9as9e/Y0NjYKgmBZluM4lLTKsnzjxg3DMIaHh0OhEIXOoVDo1KlTiUSit7eX9uhLJBK6rvOOjnIUbc95CLrkVi0tLZQ+k0gkUn4NfUbGmKZp9In6+/vZp/cPLHkLT6UZYxTE04g0KyvRdhwnl8v5/f6SbpNaDLe0N/nFQ4dm+74lk06luru6uioNQT9+5AgCaAAAAJgXCKBXPwqgb9y4kUwml3otAAAAADDP7r777nfeecd7hlqMqYjDsqx0Ol0oFNatWxcMBoPBYCQSiUQiFMjec8896XTaMAxd1/v7+y9evEiBr9/v37Vr1wcffFAsFm3brqurkyRpZGSEzxTPaLoguPq7QqGQt3xDEISGhgbTNC3Loqlk6mWmPyve0DTNUChUy9oqjkiLoug4juM4hUJBURSfzzc5mwnoj+767M66FfZPWN0HDlQMoCueBAAAAJiDFfbrEcxNZ2cnAmgAAACAVam8xcKyLMuyisWiqqqMscnJyaampitXruRyOcqa2c3J4ra2tp6env379zPGLly4MDY2duPGjfr6+vr6er/ff9ddd504cYIeEQgE4vF4oVDI5/MLtHhRFDds2GAYBuXClmWFQqFLly6Vv2u6INu5qfbeZ75bI2PMNM1isei6rt/vFwTBNE3btsO6XvvHObPrczvqldqvXw6OPPHEoUotHKl0ugstHAAAADAfZrcjB6xQtA/hUq8CAAAAAObf3XffXXKGImYqqaAgdWJiwjRNURR9Pl8gEGCMZbPZbDZ74cIFavBIp9MTExOiKOq6PjQ0dP78+StXrmiatmXLFqrsEAQhEAiEw+GGhgZqruB4HOzd57D8VTbTBHQikchkMvl8vlgsFotFSZJin54+dm+a7g6UXE93AWXNmqblcrmJiYmJiYmhoaHR0dGJiYl8Pp/NZvnGg/wOjuNcMs0qay7x6wcfu79Frf365YBaOCq+9PiRI4u7FgAAAFidMAF9W8A+hAAAAACrVcV9/Bhjpmnm8/m6ujrXdYeGhtasWUPnFUWRJEnXddM0qSf61Vdf5X3HPp+PxoHz+Xw+n1dV1e/309SzLMuUVtfX12uaRg3Rt8KbFDc2Nvp8Pu+Zurq6kut5wF0xYrZt2/tV0FwzneQzzhXxUuzy87lcrrxiezrLJ33umeX1qQMH2DQtHOW3Ss1lRQAAAHBbQwB9W8A+hAAAAACrVUtLS8kZ27Ypqy0Wi5Zlua7rOE4mk4lG///27jVIzvI8E/A7PT0HMbIkYwk8/iwYZNnisHZAibtLogxCENsLTpQSZxIvUKkUFRJWZZI4xlVBGBMbbIJJxuvyVkjAIWu8JBH2grNrai0Q5pCZBWPFyFsCHAvElJKwSMPoNIfunv3xoqbpOc/0TM90X9cPVR++/vodJT9Gtx/uZ0mcIG5oaIgtE3FW+vDhw8PDw0uWLEmlUosWLerv7y9GvQMDA62trYVCIZfLDQ0NtbS0HDlypLGxcdGiRcU2j1LjrCIc+XrxlSVLlrS0tJS+deKJJ5a9UvYtI+9ZLHTu7e2dZGo8VvQc3+rt7Y2PX29rWzGJ4pEffuLK8+dB/0bHND5zzTVhjBaO8PjjQQsHADAzKjjqQpIkSZJ0d3dX+yAAAMy6XC4Xo9V8Pt/X1xdfPHLkSD6fL81bW1paFi9enEql2traBgcH+/r64nK/1tbW0rs1NDS0tLSk0+nW1tZ0Oh1z4RhGFzPiccLlCbW0tCxZsqTslXHS57KzxXA8djcXX5zwg3EseqxDDg0NFdPnSfrhJ64MGzbMkwnoKevoGDNltooQAJgxAXQdMQQNAFB72tvbRw5B9/f3xwdHjx6NBRq5XG7//v1ll6VSqeOOO665ubmxsbFQKBw9erS3tzedThcbOWJEm06nGxsbGxoampubFy9e3NDQEMeNJ5kUj9rdHGPilpaWFStWlL144oknjrxJ3C44MDBw5MiRQ4cO9fX1vfHGG2+88UZvb29fX9+RI0eGJlfWPH70HBX/9ibvgav/+MpTFk31U/PIueeO/roaaABgxgTQ9SKTyWzbtq3apwAAoPLa29vLXhkcHCwWIvf39w8NDRUKhb6+vn89Jqa3fX19Bw8eHBgYiJsJQwixrOONN94ou2EMmguFQqx+bm1tbW5ujlsNyzLoyQwgR6lUqjR9jk488cRCoTA0NHTkyJEjR4709fXFrDmuDTx06NDRo0djgXXZB4eGhmLRcyo1+r9xJhM9F281MDBQvPL1trbxr//zP/4vHz5z9YeXLeR6w7EmoGMLBwDADCzkX5KYis2bNz/00EPVPgUAAHMhn8/n8/nm5uZYylxcpjfWLr5CoZBKpRobG2NUncvlcrlccQ46HCu7iMUUDQ0NqVSqoaGhsbFxeHi4ubn5yJEjE04NlyW/sfojnqo4H51Op3t7e2OE3XDM5H/qXC6Xz+ebmsqLmMfpeh5VQ0NDvFU6nR55tzI/PfPsn276zXtOmyCknu82bAgbNoyeNauBBgBmxgR0HVHBAQBQk0ZWcIQQDh48GKszGhsb8/l8Meotu6w4F3z48OGBgYE4N51KpQ4dOlS8Pg4+FwqF4rBzcco4xtCLFi1617ve1dLSEl+fMDVubGyM9dMx6c7n87Fho7m5ORzLo+PBihfEaybMkXO53IEDB0b+dON/alTDw8NDQ0N9fX0DY2frPz3z7D//xve3LPT0OdLCAQDMDgF0vUiSJJPJ2EMIAFB7RlZwxDw3LhUs5rnFUo4obikshrOtra0DAwPhWOg8NDQ0NDSUz+f7+/tj+hxCaGlpaW5ujhcUU+Z481Qq1dra+q53vautrW2sqeHh4eFYJH3cccfFT5W+29TUNFZ7xmQi6Xw+f/DgwX/7t3+L0flMoud4jKGhof3794+zjbCYPi/s8o0iLRwAwOyoiV+VmJxMJtPV1ZXJZKp9EAAAKmnUCeh8Pn/48OFFixaVprfFhHecaeL4emNj44EDB3K5XLEeOr4Vx5yPHj0aSzlCCHG2unhBTJlTqVRpxBxfb2xsbHtnn3K8OD4u/aIJxfQ8tkWHkgLo2B/y+uuvT/5WpeINi63Z8cX3DgyMvPKBq//4h9fdVDvpcxg7gA5aOACAGamV35aYhGw229nZWe1TAABQYSMnoGOInM/n33zzzcWLF4djiW0sei4bPS4+bW5ujpl1fNrQ0HD06NE333yzsbGxubm5qakpvtXU1NTY2Bi3ERbrm2NhRYyDC4VCrG8uxtAxuS5bVxhKAujJpM/5fD7mwsUvGin+LPl8fsK7lX5kaGgoTlUXXyn7Kyr17+896fN3/Y8TTl31pdPaTmitrf+i9Jprwn33jfL6t74Vbrlljs8CANQMAXQdSZJEDTQAQO0ZdQI65sJxN+Bxxx0XXzl8+HAMfEcNWAuFwsDAQBxVjv3Rra2tg4OD+Xz+6NGjR48e7evri2F0bNs4ePBgf3//4OBgLpcrzlOXdWvEGDocS6hjAl52zsbGxpGtHWUDzmMlziN/hLF6PMouiyPhpZPOpUeKYX1ZmfW/v/ekH37iylobfC519dWjB9CxhcMQNAAwLbX4axNjSJIkhNDd3a2FAwCglrS3t5911lnPP/988ZXSYd6hoaHDhw/H8DeEUJb/Fi+LCXJzc3N/f39LS0sul4vZcTqdLi3ZKIbRjY2NuVzu6NGjZVUepXluac10LMcIxyLpxmNCCK2trWFyA87jKz3nqEYOO491WTGDTqVS//7ekx7fsPmHn7gydHSc/97me06ZQlXIAtPRMeZbAmgAYLoE0PUlZtAAANSYsiHo0hV8cdp3YGAg1jeXfXBkGXSxxzmfzx85cqSYXJfJ5XKFQqG5ubk0zy1t5BiryCJmu/EjMYmOw9Fl48bTEL9uZCAevy6WRE/1hoVCofOB/3P+e5u3vLupNqeeS3V0aOEAACqutjrLmEjcQ1jtUwAAUGFnnXVW6dNCoTA4OFgayA4PDw8MDJTGzaUh9XCJpqamgYGBXC536NChOIk86rrCePOGhoZ0Op1Op0tfzOfzMZ4e67Qxd25paWlqakqlUkNDQ8XAulTpqSb8GxhZbN3f33/48OFDhw4dPXp0Gulz0T3rll55yqLaT5+jq68e/fXYwgEAMHUC6PqSzWa7u7urfQoAACrsrLPOKktpc7lcrKQobWeOFc+xDaM04S27W8ygi09HXlDW8hwz6OHh4VwuN2qrclSaO8fB5/Hz5dILJgymS1s1Xn/99f379xej59jpkT9m5K3G+EsNIYSLLrponHdr0DgtHN/61twdAwCoIfXxP+NzjD2EAAD149ChQ0uXLm1oaIir+WLTxeDg4Mga6LL6i+Hh4cHBwebm5tJXiteM1doRv6XY11GcrY5P45R02YrCySid4y6b6S4OcRcKhbgyMRzbXjilryiKP+NkBq5r1qj9G8W37rvvrYS6o+OtB/feOxenAgAWMgF0veg5JthDCABQc+Iewp/85CfFV+I88uDgYDqdjgUUxdKMsdqWY0JdXADY0NDQ1NRUfCt+qpg+F6eSS6+PMXfpPUtj61CS7Y4TK4+8uPhi6VeXHT6Oe8cMetpGRs+f+tSnZnLDhWTPnnDttRP3bOzZ8/afIYStW8cbmgYAEEBX0N69e3fv3r1y5co1a9aMdc2ePXtefvnlJElOO+20ih8ghssxZX7ttddCCLFtI/4Z1w8mSZIkSVdXlwAaAKDGnHXWWc8//3wx8I1Z6sDAQGxkbm5ubmxsHBkQhxG5c1F/f38ul2tqaioOL4cQYn1H7LIo7cEopsPFaLi03WLk0PQ44pWxUmNKE9MDAwNDQ0OLFi2a5PVjaWtrO3z4cAhh7dq1a9euneHdFobHHw/nnTedD0qfAYCJNNT1f19WOQ8//PDtt9++fv365557btOmTVu2bBl5zb333nvPPfesX7/+pz/96a/8yq/cdtttU/2WkRFzT4nSiDk+zmazIYSyrLm7u7uzs/P++++f1g8KAMA8tW/fvksuuaQsgI6dGI2NjbFPo/i42MiRy+XG+RdBfKupqSnG0AcOHChWPFfq3xHF+o4wrYKO2XDzzTe3t7fXS/QcQrjvvnDttdP8rH9OAgATMQFdAfl8fuvWrQ8++ODq1av379+/cePGTZs2dbxzFqBQKNx5553f/e53P/jBD/b19a1bt+43f/M3R52DLgbKk4yYS59OhhpoAICa1N7efuaZZ+7cuTOEUCgUikl0Pp8v1kDHSeTYyBGN7IMu1dDQUJyPbmpqam5u7u/vn8khY8Q8TpPGfFB3iweLfRpTtWFDBU8BANQqAXQFPPHEE8uWLVu9enUI4fjjjz/nnHOefPLJjhH/Mdrw8HDspFu0aFEqlSr9vT/q7Oz8+te/npQI04qYxxcD6GKcDQBAzbjwwgtjC0fsryjuA8zlcul0Oj49cuRIDKOLn4pRdSqVig9ilXN83NjYGDPoQqHQ19fX39+/aNGiePMJlVZzlJZ1zHN1lz6HEK65JuzYMXH780j6NwCASRBAV0Bvb++pp55afLp48eIXX3yx7JpUKrV169brr7/+ggsuePrppy+//PJf+qVfKrvmhhtuuOGGG2b9uCFkMhkBNABA7Vm7dm1puByXBMY0eWhoKJVKxUrosk+Vdi6XvlhcMxhKmp1zudyoOwznvkkjblNMpVKxjbr4ehz0nvZt29vbK3G6BaWjI9x7bzjvvOmPQgMAjC018SVMJJ/Pl46QjPUr77PPPnvcccetWLFi2bJlP//5z48cOTKHZ3yHTCbT1dVVrW8HAGCWtLe3n3XWWWVRcqFQyOfzAwMDBw8enHB4eXh4OJfLDQ4ODgwMDA4O5nK5snHpwcHB2B8dtxHmcrmhoaF48dDQUFxOOBvpczFujpqammKvyPgd1lOVJMlHP/rRSt1tIenoCI89NuVPnXzyLBwFAKg1JqCn6bbbbtu2bVsIoa2t7bOf/Wzpr/KFQiHueCm1ffv2559//gc/+EFjY+NVV1117bXX/vVf//Xv//7vz+mhj8lms52dnVX5agAAZtXFF1/84x//eOTrxRKMYqtG6brCOEQ8Vjydy+VKnx49erTixx4pJs7xcZzwKJZHh5KJ7DLNzc0jm+5G1dbWdsIJJ8R55w9+8INLlixpb29fsWLFRz7ykUocfwGKc9BT2kaoggMAmAQB9DRdddVVGzduDCGk0+nh4eEXXnih+NaBAwcuvPDCsusPHDjwoQ99qLjj5eSTT967d++cnbaMPYQAALXqjDPOGOfdOOAcJ5rjBHFZf8Uktba2znAbYZli/XRx4HoycfNIxfS5ra0t/rlkyZK2trb29vYlS5bErS0xbo4q+CPUgmuuCXv2hC98odrnAABqigB6mlatWrVq1ar4OP5CvGPHjnPPPfell156+umnv/jFL8a3du7cGQcrTj/99FtvvfVf/uVfVq1a1dfX9+yzz147peGCioorDbu7uzOZTLXOAADAbGhvb7/55ptvvfXWca4pNjtPSTqdLo5Cx62GZZPRkxdHsONcczFuDiV7Cye8QzFfbm9vX7Ro0dKlS5cuXRqftrW1xQUtIubpmNJCQhPQAMAkCKArIJVK3XnnnTfeeOPq1at37dp1xx13LF++PL519913X3TRRZdccslpp532+c9//rLLLjvjjDN27dp18cUXX3zxxdU9NgAANemiiy567rnnvv/971f2tqVxcy6Xa21tnVIAXQydw7GIuWy94aja2tqKsXIcYV6yZEkcYQ4hvP/975/ez8KYprSQUAANAExCQwVXdrCAdHZ29vT03H777dU+CAAAlbdv377f/d3f3bdv36x+y4RFHDF0Hv8mpbPMsSgjxs2KMqrp8cfDeedNfJl/SwIAkyCArlPd3d2f+9zntm/fXu2DAAAwK/bt2/cbv/Ebs/oV6XQ6jFhRWCbmy+FYxBwHmWPWXOzKMMg8H91yy8Rl0P4tCQBMggqOOpUkSbWPAADALGpvb//Sl770l3/5l7/4xS9m6Sti9Lxs2bLe3t4TTjhh8eLFpUv/1qxZE58aZF6QbrklvPJKuO++MS/QvwEATI4Auk7ZQwgAUPPOP//8008//ZFHHrnnnnsqdc/29vb4oNjvcejQoXPOOSduPZEy15StW8Pjj49ZBi2ABgAmRwVH/ers7Awh3HDDDdU+CAAAs2vfvn1f/vKXu7q6JrwyNmbElLk4xdze3r506dIPfOADS5cuLd7wvvvuW758+QknnBC3AqrRqE179oRTThn9rWuuCffeO7enAQAWJAF0/eru7u7s7Lz//vurfRAAAObCvn37fvzjH7/66qv79u3bt29f7Md43/veF+PmmDWvXLmy2sdknrnvvnDttaO8/thjYcOGuT4MALAAqeCoX0mS9PT0VPsUAADMkfb29osuuqjap2ChueaasGdP+ULCjg7pMwAwSalqH4CqiXsIZdAAAMB4brklPPbY26XPW7eGWdtsCQDUHhPQdS0OQcckGgAAYHQbNgidAYDpMQFd1zKZzGR20QAAAAAATIMAuq5ls9nu7u5qnwIAAAAAqE0C6LpmDyEAAAAAMHsE0HUtSZIkSQxBAwAAAACzQQBd75IkUQMNAAAAAMwGAXS927x5swloAAAAAGA2CKDrnRpoAAAAAGCWCKDrnQAaAAAAAJglAmhCJpPRwgEAAAAAVJwAmpDJZOwhBAAAAAAqTgBNyGazJqABAAAAgIoTQKMGGgAAAACYFQJoQpIkSZIYggYAAAAAKksADQAAAADArBBAE4I9hAAAAADALBBAE0II2Wz2oYceqvYpAAAAAICaIoAmhBCSJKn2EQAAAACAWiOAJgR7CAEAAACAWSCA5i1qoAEAAACAyhJA85ZsNmsCGgAAAACoIAE0b0mSpKenp9qnAAAAAABqhwCat8Q9hDJoAAAAAKBSBNC8zRA0AAAAAFBBAmjeZg8hAAAAAFBBAmjeZg8hAAAAAFBBAmjepoIDAAAAAKggATRvS5IkSRJD0AAAAABARQigeYckSdRAAwAAAAAVIYDmHdRAAwAAAACVIoDmHTKZjBpoAAAAAKAiBNC8gz2EAAAAAEClCKApl8lktHAAAAAAADMngKZcJpOxhxAAAAAAmDkBNOXsIQQAAAAAKkIATTk10AAAAABARQigKZckSQjBEDQAAAAAMEMCaEYRM2gAAAAAgJkQQDMKewgBAAAAgJkTQDMKewgBAAAAgJkTQDMKewgBAAAAgJkTQDOKJEmSJDEEDQAAAADMhACa0amBBgAAAABmSADN6NRAAwAAAAAzJIBmdGqgAQAAAIAZEkAzuhhAy6ABAAAAgGkTQDOmTCYjgAYAAAAApk0AzZjsIQQAAAAAZkIAzZjsIQQAAAAAZkIAzZjsIQQAAAAAZqJheHi42mdg3nn8f4d7vhFCCM8+++wHPvCBd7/73X+7rdpnAgAAAAAWGhPQjOLUM8L1nwnXfyasOu3Rf/3X4fe+r9oHAgAAAAAWIBPQjGfjup+9sqfw833/odoHAQAAAAAWHhPQjOnOPw0Hez+48kM3VfsgAAAAAMCCJIBmdNv+e/jmX4T/+rdv7PvXF6t9FgAAAABgQRJAM4ond4Qt14UHHwlrf/m9mUymu7u72icCAAAAABYeHdCM4rJPhe2PhlQqhBDy+XwI4buPNn7svCqfCgAAAABYWATQTKC7u7uzs/P++++v9kEAAAAAgAVGBQcTSJKkp6en2qcAAAAAABYeATQTSJIkhKAGGgAAAACYKgE0E4sZNAAAAADAlAigmVgmk+nq6qr2KQAAAACABUYAzcSy2awKDgAAAABgqgTQTMweQgAAAABgGgTQTCxJkiRJDEEDAAAAAFOSrvYBmF++fMtbD2665R2vxxroTCYz1wcCAAAAABYsATTv8O1vhVf3hJM6wuL3dIYQekpInwEAAACAKRFAV9nevXt37969cuXKNWvWjHXN/v37f/KTn7S1tWWz2Zl/Y2xzjpnya6+9FkKI3Rrxz9d7tofwduNzNpuN/RshhE9/+tMz/3YAAAAAoH40DA8PV/sM9evhhx++/fbb169f/9xzz23atGnLli0jr9mxY8dNN920fv36V155paWl5W/+5m9SqYmbu4tjyzFiLh1kjmlyckwIIebaccD5w6e8NQH901+U33PNmjXbt2+PHwEAAAAAmJAJ6KrJ5/Nbt2598MEHV69evX///o0bN27atKmjo6Psmptuuunuu++O6fCnPvWpRx999JOf/GTpNd3d3V1dXTFcDscGmZMSoWSQeSbxcSaTKebXAAAAAAATEkBXzRNPPLFs2bLVq1eHEI4//vhzzjnnySefLAugd+zYkSRJsXz5kUceGetuMWIOxwaZZ4M9hAAAAADAlAigq6a3t/fUU08tPl28ePGLL75Yds2BAwdWrlx58803f+9732tsbPy93/u93/7t3y67JpPJzE0onM1mOzs75+CLAAAAAIDaMHGbMLMkn8+XtjmnUqlCoVB2zcsvv/yDH/zgjDPO2Llz5wMPPPDNb37zySefnNtjvi1J3l5OCAAAAAAwIQH0nLrtttvWrl27du3aj33sYy0tLfl8vvhWoVBIp8sH0k866aSTTz758ssvDyGsWbPmV3/1V//xH/9xTk9cIlZIx45pAAAAAIAJqeCYU1ddddXGjRtDCOl0enh4+IUXXii+deDAgQsvvLDs+ve85z2lT0snpqvFEDQAAAAAMEnVDzTryqpVq9avX79+/fpMJvPRj340hLBjx44QwksvvfT000+vW7cuXrZz5859+/aFEM4777z9+/c/9thjIYT9+/f/6Ec/+rVf+7XqHf+tPYRVPAAAAAAAsIAIoKsmlUrdeeedn//856+++uorr7zyjjvuWL58eXzr7rvvfuqpp0IITU1NX//612+99dYrrrji4x//+OWXX57NZqt45mw2q4IDAAAAAJikhuHh4WqfgXnkw6eEV/eEkzrCT38xyrs9PT0bN27cvXv3nJ8LAAAAAFh4TEAzBUmSZDIZQ9AAAAAAwGQIoJkaNdAAAAAAwCQJoJkaNdAAAAAAwCQJoJmaJEl6enqqfQoAAAAAYAEQQDM1SZKEEAxBAwAAAAATEkAzZTGDBgAAAAAYnwCaKbOHEAAAAACYDAE0U2YPIQAAAAAwGQJopsweQgAAAABgMgTQTFmSJEmSGIIGAAAAAMYngGY61EADAAAAABMSQDMdaqABAAAAgAkJoJkONdAAAAAAwIQE0EyHABoAAAAAmJAAmmnKZDJaOAAAAACAcQigmSZ7CAEAAACA8QmgmSZ7CAEAAACA8QmgmSY10AAAAADA+ATQTFOSJEmSGIIGAAAAAMYigAYAAAAAYFYIoJm+TCazbdu2ap8CAAAAAJinBNBMnz2EAAAAAMA4BNBMX5Ik1T4CVGiGrAAADNZJREFUAAAAADB/CaCZPnsIAQAAAIBxCKCZkUwm09XVVe1TAAAAAADzkQCaGVEDDQAAAACMRQDNjCRJ0tPTU+1TAAAAAADzkQCaGYl7CGXQAAAAAMBIAmhmyhA0AAAAADAqATQzZQ8hAAAAADAqATQzZQ8hAAAAADAqATQzpYIDAAAAABiVAJqZSpIkSRJD0AAAAABAGQE0FZAkiRpoAAAAAKCMAJoK2Lx5swloAAAAAKCMAJoKqI0a6Lv/6Zt/9fzfFp9e98iNP3t9dxXPAwAAAAALnQCaCpgnAfSe3lf39L76+J6n7vvJA3t6X53qxzuWnfSlH30tPv7nf9v1yIuPnr5iTaXPCAAAAAB1JF3tA1AjMplMd3d3JpOZ1W+JsfKe3r17el/d07s3hPDKm6+WPi26d1PnNWeeNKWb//qaT/7Ow595am/X2Suzf/38tz/9kcsqeHIAAAAAqEMCaCojk8l0dXXNPICefMQ80X2mcHGUakh9+iOX/bd//vt17//oAy/8w4+u/f5U7wAAAAAAlBJAUxnZbLazs3MyV1YqYi7qWLYyhNCx7KSOZStPXnpSCGFDx9nxxam65swrNty36ZOrz1/17o4PvecD07gDAAAAAFAkgKYySmug5yZiLv5ZQR858YxV7z75Dx+9+cZ111f2zgAAAABQhwTQTMeoEfM/nfp/T/nzsyobMXcsW9mxbGpVzjN0zZlX3viDP7nqwxfP5ZcCAAAAQE0SQDOmGC5PYYr5xPGal+dPxDy+5sbmS8/49SUt76r2QQAAAABgwRNAM4o9va82fGHtVD/VdDiVJElpxBzD5fkWMY9lb1/P9l/86ItP3PngpX9V7bMAAAAAQC0QQPMOf/Tbe3/2lQd+efl3Lhvt3ZFTzKURc3d39+c+97nt2783t0eumIMDhx7e/YNbNnx23fs/Wu2zAAAAAEAtEEDzDpuOe2DDkq+Go+FzzWe3rHu7ImMyU8xJkszJGWfL6SvW/P1l91b7FAAAAABQOwTQvEPLurND+GoI4XMtZy/d8NkpfTZJkiRJuru7M5nM7JwOAAAAAFhIUtU+APNL+v1vjTkffvA70/h4JpPp6uqq6IkAAAAAgIVKAM07pFeujM0budf29j/z1FQ/ns1mu7u7Z+FcAAAAAMDCI4Cm3NIb/yg+GJh6AJ0kSU9PT6VPBAAAAAAsSAJoyhVbOPqfeXqqn417CGXQAAAAAEAQQDNSsYVj4JmnptHCYQgaAAAAAIgE0Ixi8aVXxAfTaOGwhxAAAAAAiATQjCJOQIdptXDYQwgAAAAARAJoRlFs4cjvfXWqn1XBAQAAAABEAmhGF1s4cq/tnWoNdJIkSZIYggYAAAAABNCMrtjC8eZdX53qZ5MkUQMNAAAAAAigGd1MWjjUQAMAAAAAQQDNOFrXrQ/TauHIZDJqoAEAAAAAATRjarv0yvjg8IPfmepnBdAAAAAAgACaMRVbOAamvocwk8lo4QAAAACAOieAZjwzaeGwhxAAAAAA6pwAmvHECegw9RYOewgBAAAAAAE040m//6T4YBotHGqgAQAAAKDOCaAZT3rlyrZLrwhTb+FIkiSEYAgaAAAAAOqZAJoJtF12RXwwjSHoWTgOAAAAALBgCKCZQLGFY6o10PYQAgAAAECdE0AzgfTKlXEV4VRbOOwhBAAAAIA6J4BmYktv/KP4YEotHPYQAgAAAECdE0AzsWILR/8zT0/+U0mSJEliCBoAAAAA6pYAmokVWzjye1+d0gfVQAMAAABAPRNAMymLL70ihJB7be+UVhGqgQYAAACAeiaAZlLiBHQI4dDfTSGAVgMNAAAAAPVMAM2kTK+FIwbQMmgAAAAAqE/pah+ABaN13fqBZ57Kvba3/5mnWo8NREcxYo5Z82uvvVYMnWP/Rk9PT5IkVTkzAAAAAFBFDcPDw9U+A9Oxd+/e3bt3r1y5cs2aNeNfuXPnzve9730rVqyY4Te+8k/PNFzy6yGE/3dSx1NX/qeeEjFfTo4JIWSz2RBCJpPp7OwMIdxwww0z/HYAAAAAYMExAb0gPfzww7fffvv69eufe+65TZs2bdmyZawrX3755d/6rd/62te+dsEFF0x42+Igc1dXVzg20RyODTInSXLnSR3LX90TWziy2Wxp4jyWbDYbM2gAAAAAoN4IoBeefD6/devWBx98cPXq1fv379+4ceOmTZs6OjpGXjk0NPQHf/AHy5cvH/U+MRceZ5A5RswhhEwmEz/y5l1fefOur544XPidX1lb1sIxFnsIAQAAAKBuCaAXnieeeGLZsmWrV68OIRx//PHnnHPOk08+OWoAfdddd51//vm7du0a+VYxFJ7kIHPUsu7sEL4aQjj84HcmH0AnSdLd3V1MsQEAAACAOiGAXnh6e3tPPfXU4tPFixe/+OKLIy/r7u7u6uratm3bddddN/LdJEmm0cvcuu7slnVnDzzz1MAzT03pg4agAQAAAKAOpap9AKYsn8+nUm//Hy6VShUKhbJr+vr6br755rvuuqvi3966bn0IIffa3v5JZ9CZTGbbtm0VPwkAAAAAMM8JoBeG2267be3atWvXrv3Yxz7W0tKSz+eLbxUKhXS6fJL9K1/5yumnn/7KK6/s2LFj//79u3bt2r17d0VO0nKseWPyQ9CbN282AQ0AAAAAdUgFx8Jw1VVXbdy4MYSQTqeHh4dfeOGF4lsHDhy48MILy65fsWLFz372s29/+9shhJ6enh07dixZsmTNmjUzP0n6/SfFB4cf/M7SGz87yU8JoAEAAACgDgmgF4ZVq1atWrUqPo6FGzt27Dj33HNfeumlp59++otf/GJ8a+fOnSeccEJ7e/uWLVuKn73uuusuvfTSCy64oCInSa9c2XbpFemVK1smt4QwhJAkSSaTsYcQAAAAAOqNAHrhSaVSd95554033rh69epdu3bdcccdy5cvj2/dfffdF1100SWXXDKrB3jP1zqn+pFMJtPV1SWABgAAAIC60jA8PFztM1D7uru7Ozs777///mofBAAAAACYO5YQMheSJFEDDQAAAAD1RgDNXEiSJITQ3d1d7YMAAAAAAHNHAM0ciRk0AAAAAFA/BNDMkbiHsNqnAAAAAADmjgCaOZLNZlVwAAAAAEBdEUAzR+whBAAAAIB6I4BmjiRJkiSJIWgAAAAAqB8CaGbq6KP/640bbwiFQgihf8dj+/9wS3w8khpoAAAAAKgrAmhmatEFHx/62a437/6zwhtvvLHl+kUf/48hNfr/X6mBBgAAAIC6kq72AVj4Uqnl3/jLfZ/c2P/kjuM2bV708U+OdaEaaAAAAACoKyagqYD0qg8svuzKwR//eOmNfzTOZTGAlkEDAAAAQJ0QQFMBQy+/dPgf/q713A0HvvAn41+ZyWQE0AAAAABQJwTQzFih8Mb1v7Pkhi3v+Ytv9O94/Mj/fGSca+0hBAAAAID6IYBmpnpv/9PQ3LLk+v+cWrrs+Dv+bP8ffib/+utjXWwPIQAAAADUj4bh4eFqn4E60tPT8+lPf3r79u3VPggAAAAAMOtMQDOnkiRJksQQNAAAAADUAwE0VWAPIQAAAADUAwE0c80eQgAAAACoEwJo5po9hAAAAABQJwTQzLUkSVRwAAAAAEA9EEAz15IkyWQyhqABAAAAoOYJoKkCNdAAAAAAUA8E0FSBGmgAAAAAqAcCaKpADTQAAAAA1AMBNFWQJEkIQQYNAAAAALVNAE11GIIGAAAAgJongKY67CEEAAAAgJongKY67CEEAAAAgJongKY6VHAAAAAAQM0TQFMdSZIkSWIIGgAAAABqmACaqlEDDQAAAAC1TQBN1aiBBgAAAIDaJoCmatRAAwAAAEBtE0BTNQJoAAAAAKhtAmiqKZPJaOEAAAAAgFolgKaa7CEEAAAAgBomgKaa7CEEAAAAgBomgKaa1EADAAAAQA0TQFNNSZIkSWIIGgAAAABqkgAaAAAAAIBZIYCmyuwhBAAAAIBaJYCmyrLZ7EMPPVTtUwAAAAAAlSeApsqSJKn2EQAAAACAWSGApsrsIQQAAACAWiWApvrUQAMAAABATRJAU33ZbNYENAAAAADUHgE01ZckSU9PT7VPAQAAAABUmACa6ot7CGXQAAAAAFBjBNDMC4agAQAAAKD2CKCZF+whBAAAAIDaI4BmXrCHEAAAAABqjwCaeUEFBwAAAADUHgE080KSJEmSGIIGAAAAgFoigGa+SJJEDTQAAAAA1BIBNPPF5s2bTUADAAAAQC0RQDNfqIEGAAAAgBojgGa+EEADAAAAQI0RQDOPZDIZLRwAAAAAUDME0MwjmUzGHkIAAAAAqBkCaOaRbDZrAhoAAAAAaoYAmnlEDTQAAAAA1BIBNPNIkiRJkhiCBgAAAIDa8P8BtqHnNGJBxloAAAAASUVORK5CYII=;clipPath=inset(25.6% 33.33% 20.24% 37%);" parent="1" vertex="1">
          <mxGeometry x="50" y="650" width="806.9587912087912" height="825" as="geometry" />
        </mxCell>
        <mxCell id="hXmGlQrBdRvzctw2T5mR-79" value="&lt;font size=&quot;1&quot;&gt;&lt;b&gt;&lt;i style=&quot;&quot;&gt;&lt;font style=&quot;font-size: 40px;&quot; color=&quot;#6600cc&quot;&gt;{s}&lt;/font&gt;&lt;/i&gt;&lt;/b&gt;&lt;/font&gt;" style="text;html=1;strokeColor=none;fillColor=none;align=center;verticalAlign=middle;whiteSpace=wrap;rounded=0;" parent="1" vertex="1">
          <mxGeometry x="180" y="960" width="65" height="50" as="geometry" />
        </mxCell>
        <mxCell id="S7IZpB0op00duPQ5i5Fw-2" value="" style="endArrow=classic;html=1;rounded=0;strokeWidth=10;strokeColor=#00FFFF;" parent="1" edge="1">
          <mxGeometry width="50" height="50" relative="1" as="geometry">
            <mxPoint x="798" y="1555" as="sourcePoint" />
            <mxPoint x="774" y="1475" as="targetPoint" />
          </mxGeometry>
        </mxCell>
        <mxCell id="S7IZpB0op00duPQ5i5Fw-3" value="&lt;b&gt;&lt;i style=&quot;&quot;&gt;&lt;font color=&quot;#00ffff&quot; style=&quot;font-size: 40px;&quot;&gt;Sa&lt;/font&gt;&lt;/i&gt;&lt;/b&gt;" style="text;html=1;strokeColor=none;fillColor=none;align=center;verticalAlign=middle;whiteSpace=wrap;rounded=0;strokeWidth=5;" parent="1" vertex="1">
          <mxGeometry x="706" y="1517.0000000000002" width="60" height="30" as="geometry" />
        </mxCell>
        <mxCell id="S7IZpB0op00duPQ5i5Fw-4" value="&lt;font size=&quot;1&quot;&gt;&lt;b&gt;&lt;i style=&quot;&quot;&gt;&lt;font style=&quot;font-size: 40px;&quot; color=&quot;#6600cc&quot;&gt;{a}&lt;/font&gt;&lt;/i&gt;&lt;/b&gt;&lt;/font&gt;" style="text;html=1;strokeColor=none;fillColor=none;align=center;verticalAlign=middle;whiteSpace=wrap;rounded=0;" parent="1" vertex="1">
          <mxGeometry x="670" y="1425" width="65" height="50" as="geometry" />
        </mxCell>
      </root>
    </mxGraphModel>
  </diagram>
</mxfile>
